SplineFontDB: 3.0
FontName: BowlbyOne
FullName: Bowlby One
FamilyName: Bowlby One
Weight: Book
Copyright: Copyright (c) 2011 by vernon adams. All rights reserved.
Version: 1.000
ItalicAngle: 0
UnderlinePosition: -103
UnderlineWidth: 102
Ascent: 1638
Descent: 410
sfntRevision: 0x00010000
LayerCount: 2
Layer: 0 1 "Back"  1
Layer: 1 1 "Fore"  0
XUID: [1021 759 1887733602 10523309]
FSType: 0
OS2Version: 2
OS2_WeightWidthSlopeOnly: 0
OS2_UseTypoMetrics: 1
CreationTime: 1305893209
ModificationTime: 1309539067
PfmFamily: 17
TTFWeight: 400
TTFWidth: 5
LineGap: 0
VLineGap: 0
Panose: 2 0 5 5 6 0 0 2 0 4
OS2TypoAscent: -514
OS2TypoAOffset: 1
OS2TypoDescent: -28
OS2TypoDOffset: 1
OS2TypoLinegap: 0
OS2WinAscent: 0
OS2WinAOffset: 1
OS2WinDescent: 0
OS2WinDOffset: 1
HheadAscent: -1152
HheadAOffset: 1
HheadDescent: 494
HheadDOffset: 1
OS2SubXSize: 1331
OS2SubYSize: 1229
OS2SubXOff: 0
OS2SubYOff: 154
OS2SupXSize: 1331
OS2SupYSize: 1229
OS2SupXOff: 0
OS2SupYOff: 717
OS2StrikeYSize: 102
OS2StrikeYPos: 512
OS2Vendor: 'newt'
OS2CodePages: 00000001.00000000
OS2UnicodeRanges: 800000ef.4000a04b.00000000.00000000
Lookup: 258 0 0 "'kern' Horizontal Kerning in Latin lookup 0"  {"'kern' Horizontal Kerning in Latin lookup 0 subtable"  } ['kern' ('latn' <'dflt' > ) ]
DEI: 91125
TtTable: prep
PUSHW_2
 2048
 2048
MUL
DUP
PUSHB_1
 10
SWAP
WS
DUP
PUSHB_1
 0
SWAP
WCVTF
PUSHB_1
 16
RCVT
DUP
DUP
PUSHB_1
 40
ADD
FLOOR
DUP
ROLL
NEQ
IF
PUSHB_1
 10
RS
MUL
SWAP
DIV
PUSHB_1
 9
SWAP
WS
PUSHB_4
 5
 6
 3
 2
CALL
PUSHB_4
 7
 12
 3
 2
CALL
PUSHB_4
 13
 18
 3
 2
CALL
ELSE
PUSHB_2
 9
 10
RS
WS
EIF
PUSHB_3
 11
 40
 2
RCVT
GT
WS
PUSHB_4
 7
 12
 4
 2
CALL
EndTTInstrs
TtTable: fpgm
PUSHB_1
 0
FDEF
DUP
ABS
PUSHB_1
 32
ADD
FLOOR
SWAP
PUSHB_1
 0
LT
IF
NEG
EIF
ENDF
PUSHB_1
 1
FDEF
DUP
ABS
DUP
PUSHB_1
 192
LT
PUSHB_1
 4
MINDEX
AND
PUSHB_1
 11
RS
OR
IF
POP
SWAP
POP
ELSE
ROLL
IF
DUP
PUSHB_1
 80
LT
IF
POP
PUSHB_1
 64
EIF
ELSE
DUP
PUSHB_1
 56
LT
IF
POP
PUSHB_1
 56
EIF
EIF
DUP
PUSHB_1
 5
RCVT
SUB
ABS
PUSHB_1
 40
LT
IF
POP

StartChar: exclam
Encoding: 33 33 4
Width: 792
GlyphClass: 2
Flags: W
LayerCount: 2
Fore
SplineSet
388 1521 m 2,0,1
 446 1526 446 1526 635 1528 c 0,2,3
 703 1528 703 1528 706 1506 c 1,4,-1
 692 1318 l 1,5,6
 647 789 647 789 622 562 c 0,7,8
 619 543 619 543 528 543 c 2,9,-1
 468 543 l 1,10,-1
 448 544 l 1,11,-1
 407 543 l 1,12,-1
 367 543 l 1,13,-1
 283 542 l 1,14,-1
 252 542 l 1,15,16
 252 542 252 542 237 541 c 1,17,-1
 198 541 l 1,18,19
 161 559 161 559 162 672 c 0,20,21
 163 701 163 701 161 723 c 2,22,-1
 151 853 l 2,23,24
 149 885 149 885 146 918 c 128,-1,25
 143 951 143 951 141 983 c 2,26,-1
 114 1379 l 1,27,-1
 107 1500 l 2,28,29
 107 1516 107 1516 256 1516 c 2,30,-1
 324 1516 l 1,31,-1
 388 1521 l 2,0,1
656 311 m 2,32,-1
 655 307 l 1,33,-1
 655 305 l 1,34,35
 654 301 654 301 654 296 c 2,36,-1
 654 285 l 1,37,38
 655 251 655 251 655 219 c 2,39,-1
 655 153 l 2,40,41
 655 41 655 41 659 -11 c 1,42,43
 648 -22 648 -22 463 -28 c 1,44,-1
 443 -28 l 1,45,-1
 241 -32 l 1,46,-1
 233 -32 l 1,47,48
 193 -34 193 -34 154 -34 c 1,49,-1
 144 -19 l 1,50,-1
 127 -3 l 1,51,52
 127 170 127 170 136 249 c 128,-1,53
 145 328 145 328 146 328 c 2,54,-1
 342 328 l 2,55,56
 630 328 630 328 643 321.5 c 128,-1,57
 656 315 656 315 656 311 c 2,32,-1
EndSplineSet
EndChar

StartChar: quotedbl
Encoding: 34 34 5
Width: 1285
GlyphClass: 2
Flags: W
LayerCount: 2
Fore
SplineSet
503 875 m 1,0,-1
 484 876 l 1,1,2
 288 873 288 873 217 871 c 1,3,4
 217 871 217 871 193 892 c 1,5,6
 193 938 193 938 198 1031 c 1,7,-1
 203 1284 l 1,8,-1
 202 1315 l 1,9,-1
 208 1388 l 1,10,-1
 208 1444 l 1,11,-1
 206 1477 l 1,12,13
 206 1521 206 1521 215 1530 c 1,14,-1
 252 1529 l 1,15,-1
 383 1529 l 1,16,-1
 455 1531 l 1,17,18
 572 1531 572 1531 590 1517 c 1,19,-1
 589 1513 l 1,20,-1
 603 917 l 2,21,22
 603 889 603 889 590 882 c 128,-1,23
 577 875 577 875 543 875 c 2,24,-1
 503 875 l 1,0,-1
1125 1519 m 0,25,26
 1139 1253 1139 1253 1140 1078 c 0,27,28
 1141 889 1141 889 1138 884 c 1,29,-1
 1015 880 l 1,30,31
 942 880 942 880 822 875 c 2,32,-1
 757 872 l 1,33,34
 736 900 736 900 736 938 c 2,35,-1
 736 1002 l 1,36,-1
 746 1293 l 1,37,38
 748 1316 748 1316 748 1340 c 2,39,-1
 748 1467 l 1,40,-1
 747 1482 l 1,41,42
 747 1525 747 1525 752 1531 c 1,43,44
 880 1531 880 1531 1009 1531 c 1,45,-1
 1112 1532 l 2,46,47
 1128 1532 1128 1532 1128 1533 c 2,48,-1
 1128 1527 l 1,49,50
 1125 1527 1125 1527 1125 1519 c 0,25,26
1152 874 m 1,51,52
 1152 863 1152 863 1136 863 c 1,53,-1
 1136 883 l 1,54,-1
 1135 883 l 1,55,-1
 1136 884 l 1,56,-1
 1152 874 l 1,51,52
EndSplineSet
EndChar

StartChar: numbersign
Encoding: 35 35 6
Width: 1548
GlyphClass: 2
Flags: W
LayerCount: 2
Fore
SplineSet
406 1118 m 1,0,-1
 469 1116 l 1,1,-1
 474 1116 l 2,2,3
 497 1116 497 1116 529 1337 c 2,4,-1
 555 1520 l 1,5,6
 568 1530 568 1530 644 1530 c 2,7,-1
 761 1530 l 2,8,9
 812 1530 812 1530 822 1517 c 1,10,11
 804 1422 804 1422 794 1324 c 1,12,-1
 791 1298 l 2,13,14
 786 1253 786 1253 777 1200.5 c 128,-1,15
 768 1148 768 1148 761 1106 c 1,16,-1
 908 1106 l 1,17,18
 913 1143 913 1143 919.5 1220.5 c 128,-1,19
 926 1298 926 1298 930.5 1340 c 128,-1,20
 935 1382 935 1382 940 1418 c 0,21,22
 953 1499 953 1499 967 1522 c 1,23,-1
 1209 1522 l 2,24,25
 1218 1522 1218 1522 1222 1518 c 1,26,27
 1218 1482 1218 1482 1212.5 1438.5 c 128,-1,28
 1207 1395 1207 1395 1201.5 1350.5 c 128,-1,29
 1196 1306 1196 1306 1190 1263 c 128,-1,30
 1184 1220 1184 1220 1179 1183 c 2,31,-1
 1168 1108 l 1,32,-1
 1198 1107 l 2,33,34
 1226 1107 1226 1107 1247 1107 c 128,-1,35
 1268 1107 1268 1107 1277 1108 c 1,36,-1
 1298 1108 l 1,37,-1
 1317 1109 l 1,38,39
 1325 1103 1325 1103 1325 1053 c 1,40,-1
 1324 1037 l 1,41,-1
 1324 945 l 1,42,-1
 1326 890 l 1,43,-1
 1326 874 l 2,44,45
 1326 852 1326 852 1227 852 c 1,46,-1
 1152 855 l 1,47,-1
 1138 855 l 1,48,-1
 1124 754 l 2,49,50
 1124 750 1124 750 1123 746 c 128,-1,51
 1122 742 1122 742 1122 738 c 2,52,-1
 1112 651 l 1,53,54
 1182 651 1182 651 1219 651 c 0,55,56
 1266 651 1266 651 1268 648 c 1,57,-1
 1268 497 l 1,58,-1
 1269 470 l 1,59,-1
 1269 401 l 1,60,61
 1267 394 1267 394 1262 394 c 2,62,-1
 1084 398 l 1,63,64
 1055 202 1055 202 1056 166 c 128,-1,65
 1057 130 1057 130 1056 105.5 c 128,-1,66
 1055 81 1055 81 1050.5 57 c 128,-1,67
 1046 33 1046 33 1036 14 c 0,68,69
 1012 -29 1012 -29 955 -29 c 1,70,-1
 865 -32 l 1,71,72
 768 -32 768 -32 752 -12 c 1,73,74
 756 12 756 12 758.5 37.5 c 128,-1,75
 761 63 761 63 764 89 c 2,76,-1
 770 138 l 2,77,78
 773 165 773 165 777.5 197 c 128,-1,79
 782 229 782 229 786 262 c 0,80,81
 794 317 794 317 804 387 c 1,82,83
 780 383 780 383 766 382.5 c 128,-1,84
 752 382 752 382 740 381 c 0,85,86
 706 378 706 378 677 371 c 1,87,-1
 638 46 l 2,88,89
 632 2 632 2 626 -10 c 0,90,91
 613 -36 613 -36 580 -36 c 2,92,-1
 359 -32 l 1,93,94
 352 -22 352 -22 345 -17 c 1,95,-1
 347 -16 l 1,96,-1
 337 0 l 1,97,98
 347 72 347 72 356 135 c 2,99,-1
 391 378 l 1,100,-1
 342 378 l 2,101,102
 269 378 269 378 256 384 c 1,103,104
 239 394 239 394 239 439 c 2,105,-1
 239 579 l 1,106,-1
 237 613 l 1,107,108
 237 655 237 655 291 655 c 1,109,-1
 324 654 l 1,110,-1
 432 654 l 1,111,-1
 456 843 l 1,112,-1
 410 843 l 2,113,114
 305 843 305 843 305 863 c 2,115,-1
 308 1100 l 2,116,117
 308 1118 308 1118 406 1118 c 1,0,-1
848 902 m 1,118,-1
 729 908 l 1,119,-1
 717 908 l 1,120,-1
 694 868 l 1,121,122
 687 833 687 833 682 797.5 c 128,-1,123
 677 762 677 762 672 728 c 1,124,-1
 658 656 l 1,125,126
 660 610 660 610 697 603 c 1,127,-1
 706 603 l 1,128,-1
 713 604 l 1,129,-1
 846 610 l 2,130,131
 879 612 879 612 884 643 c 2,132,-1
 920 852 l 1,133,134
 914 902 914 902 869 902 c 2,135,-1
 848 902 l 1,118,-1
329 -22 m 1,136,137
 329 -13 329 -13 332.5 -13 c 128,-1,138
 336 -13 336 -13 344 -17 c 1,139,-1
 329 -22 l 1,136,137
EndSplineSet
EndChar

StartChar: dollar
Encoding: 36 36 7
Width: 1444
GlyphClass: 2
Flags: W
LayerCount: 2
Fore
SplineSet
1422 1089 m 1,0,-1
 1416 1090 l 1,1,2
 1301 1090 1301 1090 1238 1087 c 2,3,-1
 1178 1085 l 2,4,5
 1028 1080 1028 1080 975 1080 c 128,-1,6
 922 1080 922 1080 911.5 1081.5 c 128,-1,7
 901 1083 901 1083 896 1088 c 1,8,9
 889 1093 889 1093 882 1117.5 c 128,-1,10
 875 1142 875 1142 865.5 1158 c 128,-1,11
 856 1174 856 1174 841 1186 c 0,12,13
 809 1212 809 1212 750 1212 c 1,14,-1
 724 1206 l 1,15,16
 668 1191 668 1191 651 1181 c 0,17,18
 615 1160 615 1160 614.5 1125 c 128,-1,19
 614 1090 614 1090 636 1069.5 c 128,-1,20
 658 1049 658 1049 690 1035 c 0,21,22
 740 1013 740 1013 833 994 c 1,23,-1
 985 960 l 1,24,25
 1191 906 1191 906 1299 843 c 1,26,27
 1487 700 1487 700 1487 453 c 0,28,29
 1487 48 1487 48 908 -60 c 1,30,-1
 911 -234 l 1,31,-1
 912 -251 l 1,32,33
 910 -269 910 -269 889 -269 c 0,34,35
 739 -269 739 -269 589 -263 c 1,36,-1
 561 -237 l 1,37,38
 562 -219 562 -219 562 -207 c 2,39,-1
 562 -176 l 2,40,41
 562 -94 562 -94 545.5 -73.5 c 128,-1,42
 529 -53 529 -53 511 -47.5 c 128,-1,43
 493 -42 493 -42 468 -38 c 0,44,45
 258 -2 258 -2 146 137 c 1,46,47
 47 258 47 258 28 453 c 1,48,49
 31 469 31 469 78 469 c 1,50,-1
 126 467 l 1,51,-1
 604 467 l 1,52,53
 615 462 615 462 622 430.5 c 128,-1,54
 629 399 629 399 635.5 379 c 128,-1,55
 642 359 642 359 656 342 c 0,56,57
 686 303 686 303 756 303 c 0,58,59
 858 303 858 303 894 372 c 0,60,61
 907 396 907 396 907 422.5 c 128,-1,62
 907 449 907 449 897.5 465 c 128,-1,63
 888 481 888 481 873 492 c 0,64,65
 843 513 843 513 816 514.5 c 128,-1,66
 789 516 789 516 759 527.5 c 128,-1,67
 729 539 729 539 687 550 c 2,68,-1
 649 560 l 2,69,70
 381 630 381 630 309 663.5 c 128,-1,71
 237 697 237 697 192 737 c 128,-1,72
 147 777 147 777 118 826 c 0,73,74
 63 920 63 920 63 1027 c 128,-1,75
 63 1134 63 1134 85.5 1204.5 c 128,-1,76
 108 1275 108 1275 146.5 1328 c 128,-1,77
 185 1381 185 1381 236 1418 c 128,-1,78
 287 1455 287 1455 344 1481 c 0,79,80
 432 1520 432 1520 579 1554 c 1,81,82
 574 1632 574 1632 574 1690.5 c 128,-1,83
 574 1749 574 1749 580 1761 c 1,84,85
 622 1759 622 1759 658 1759 c 2,86,-1
 866 1762 l 2,87,88
 888 1762 888 1762 888 1679 c 1,89,-1
 884 1551 l 1,90,91
 1038 1539 1038 1539 1119 1510 c 128,-1,92
 1200 1481 1200 1481 1251.5 1447.5 c 128,-1,93
 1303 1414 1303 1414 1342 1364 c 0,94,95
 1423 1260 1423 1260 1423 1091 c 1,96,-1
 1422 1089 l 1,0,-1
EndSplineSet
EndChar

StartChar: percent
Encoding: 37 37 8
Width: 2153
GlyphClass: 2
Flags: W
LayerCount: 2
Fore
SplineSet
2151 669 m 1,0,1
 2180 582 2180 582 2180 453.5 c 128,-1,2
 2180 325 2180 325 2144 228.5 c 128,-1,3
 2108 132 2108 132 2045 68 c 0,4,5
 1919 -62 1919 -62 1716 -62 c 0,6,7
 1404 -62 1404 -62 1316 204 c 0,8,9
 1284 301 1284 301 1284 430 c 2,10,-1
 1284 444 l 2,11,12
 1284 462 1284 462 1294 537 c 128,-1,13
 1304 612 1304 612 1318 662 c 0,14,15
 1350 775 1350 775 1421 834 c 0,16,17
 1570 956 1570 956 1733 956 c 0,18,19
 1891 956 1891 956 2014 879 c 1,20,-1
 2013 879 l 1,21,22
 2107 805 2107 805 2152 669 c 1,23,-1
 2151 669 l 1,0,1
25.5 919 m 128,-1,25
 18 979 18 979 18 1011.5 c 128,-1,26
 18 1044 18 1044 22 1075 c 128,-1,27
 26 1106 26 1106 33.5 1156 c 128,-1,28
 41 1206 41 1206 56 1255 c 0,29,30
 88 1364 88 1364 148 1430 c 1,31,32
 304 1553 304 1553 477 1553 c 0,33,34
 712 1553 712 1553 820 1400 c 0,35,36
 907 1277 907 1277 907 1078 c 0,37,38
 907 707 907 707 666 586 c 0,39,40
 578 541 578 541 469 541 c 128,-1,41
 360 541 360 541 293.5 561.5 c 128,-1,42
 227 582 227 582 179 617.5 c 128,-1,43
 131 653 131 653 100 701 c 128,-1,44
 69 749 69 749 51 804 c 128,-1,24
 33 859 33 859 25.5 919 c 128,-1,25
1392 1493 m 1,45,46
 1412 1533 1412 1533 1432 1564 c 1,47,-1
 1480 1564 l 2,48,49
 1594 1564 1594 1564 1636 1571 c 1,50,-1
 1617 1532 l 1,51,52
 1526 1361 1526 1361 1446 1200 c 1,53,-1
 1352 1015 l 1,54,-1
 1352 1017 l 1,55,-1
 1264 851 l 1,56,57
 1168 674 1168 674 1109 546 c 1,58,-1
 799 -73 l 1,59,60
 785 -98 785 -98 581 -89 c 1,61,-1
 573 -89 l 1,62,-1
 568 -88 l 1,63,-1
 549 -37 l 1,64,65
 709 264 709 264 878.5 562.5 c 128,-1,66
 1048 861 1048 861 1213 1170 c 1,67,-1
 1392 1494 l 1,68,-1
 1392 1493 l 1,45,46
1648 1591 m 1,69,-1
 1664 1579 l 1,70,71
 1659 1574 1659 1574 1636 1571 c 1,72,-1
 1648 1591 l 1,69,-1
1856 510 m 1,73,-1
 1857 533 l 1,74,75
 1857 671 1857 671 1796 724 c 0,76,77
 1771 745 1771 745 1732 745 c 1,78,-1
 1727 744 l 1,79,80
 1672 742 1672 742 1640 683 c 0,81,82
 1604 616 1604 616 1604 444 c 2,83,-1
 1604 408 l 1,84,85
 1607 293 1607 293 1622.5 244 c 128,-1,86
 1638 195 1638 195 1664 167.5 c 128,-1,87
 1690 140 1690 140 1737 140 c 0,88,89
 1857 140 1857 140 1857 350 c 2,90,-1
 1857 379 l 1,91,-1
 1856 410 l 1,92,-1
 1856 510 l 1,73,-1
586 1109 m 1,93,-1
 587 1131 l 1,94,95
 587 1230 587 1230 572 1268 c 0,96,97
 542 1347 542 1347 470 1347 c 1,98,99
 365 1344 365 1344 343 1163 c 0,100,101
 338 1122 338 1122 338 1072 c 2,102,-1
 338 992 l 2,103,104
 338 740 338 740 473 740 c 0,105,106
 587 740 587 740 587 961 c 2,107,-1
 587 1002 l 1,108,-1
 586 1023 l 1,109,-1
 586 1109 l 1,93,-1
EndSplineSet
EndChar

StartChar: ampersand
Encoding: 38 38 9
Width: 1815
GlyphClass: 2
Flags: W
LayerCount: 2
Fore
SplineSet
1522 792 m 1,0,-1
 1642 788 l 1,1,2
 1686 788 1686 788 1721.5 788 c 128,-1,3
 1757 788 1757 788 1777 790 c 1,4,5
 1785 785 1785 785 1791 771 c 1,6,-1
 1786 736 l 1,7,8
 1770 560 1770 560 1666 404 c 0,9,10
 1630 351 1630 351 1584 305 c 1,11,-1
 1779 103 l 1,12,13
 1811 68 1811 68 1826 48 c 1,14,-1
 1846 29 l 2,15,16
 1880 -3 1880 -3 1882 -19 c 1,17,18
 1882 -35 1882 -35 1822 -35 c 1,19,-1
 1775 -34 l 1,20,-1
 1516 -34 l 2,21,22
 1416 -34 1416 -34 1302 -30 c 1,23,24
 1270 -13 1270 -13 1243 14 c 1,25,-1
 1204 47 l 1,26,-1
 1151 20 l 1,27,28
 936 -59 936 -59 794 -69 c 1,29,-1
 705 -72 l 1,30,31
 406 -72 406 -72 210 55 c 0,32,33
 17 179 17 179 17 370 c 0,34,35
 17 665 17 665 417 811 c 1,36,37
 248 919 248 919 190 1070 c 0,38,39
 171 1122 171 1122 171 1181.5 c 128,-1,40
 171 1241 171 1241 198.5 1302 c 128,-1,41
 226 1363 226 1363 263.5 1398 c 128,-1,42
 301 1433 301 1433 349 1459 c 128,-1,43
 397 1485 397 1485 460 1506 c 0,44,45
 600 1551 600 1551 760 1551 c 0,46,47
 1251 1551 1251 1551 1360 1319 c 0,48,49
 1388 1259 1388 1259 1388 1193.5 c 128,-1,50
 1388 1128 1388 1128 1365 1074 c 128,-1,51
 1342 1020 1342 1020 1302 970 c 0,52,53
 1235 886 1235 886 1083 776 c 1,54,-1
 1100 758 l 1,55,56
 1111 748 1111 748 1122.5 737.5 c 128,-1,57
 1134 727 1134 727 1145 716.5 c 128,-1,58
 1156 706 1156 706 1165 699 c 1,59,-1
 1165 700 l 1,60,-1
 1273 597 l 1,61,62
 1330 674 1330 674 1332 724 c 0,63,64
 1333 762 1333 762 1350.5 775.5 c 128,-1,65
 1368 789 1368 789 1399 790.5 c 128,-1,66
 1430 792 1430 792 1460 792 c 2,67,-1
 1522 792 l 1,0,-1
1012 281 m 1,68,69
 968 316 968 316 945.5 342.5 c 128,-1,70
 923 369 923 369 915 377 c 2,71,-1
 764 521 l 1,72,73
 750 521 750 521 744 533 c 0,74,75
 731 558 731 558 696 584.5 c 128,-1,76
 661 611 661 611 645 612 c 1,77,78
 593 588 593 588 547.5 522.5 c 128,-1,79
 502 457 502 457 502 401 c 128,-1,80
 502 345 502 345 525.5 308.5 c 128,-1,81
 549 272 549 272 586 248 c 0,82,83
 657 201 657 201 759 201 c 128,-1,84
 861 201 861 201 1012 281 c 1,68,69
761 976 m 1,85,86
 774 968 774 968 783 968 c 0,87,88
 803 968 803 968 813 973 c 1,89,90
 967 1090 967 1090 967 1183 c 0,91,92
 967 1258 967 1258 898 1296 c 1,93,94
 846 1326 846 1326 792.5 1326 c 128,-1,95
 739 1326 739 1326 707 1315.5 c 128,-1,96
 675 1305 675 1305 650 1285 c 0,97,98
 595 1241 595 1241 595 1169 c 1,99,100
 604 1070 604 1070 762 975 c 1,101,-1
 761 976 l 1,85,86
EndSplineSet
EndChar

StartChar: quotesingle
Encoding: 39 39 10
Width: 803
GlyphClass: 2
Flags: W
LayerCount: 2
Fore
SplineSet
213 1479 m 1,0,1
 213 1520 213 1520 220 1529 c 1,2,-1
 286 1529 l 2,3,4
 439 1529 439 1529 595 1526 c 0,5,6
 599 1525 599 1525 599 1516 c 2,7,-1
 602 1331 l 2,8,9
 608 1022 608 1022 608 918 c 0,10,11
 608 877 608 877 478 872 c 0,12,13
 440 870 440 870 397 870 c 2,14,-1
 286 870 l 1,15,-1
 247 871 l 1,16,-1
 222 871 l 1,17,18
 198 885 198 885 198 910 c 128,-1,19
 198 935 198 935 199.5 961 c 128,-1,20
 201 987 201 987 202 1015 c 2,21,-1
 209 1230 l 2,22,23
 211 1279 211 1279 214 1424 c 1,24,-1
 214 1461 l 1,25,-1
 213 1479 l 1,0,1
EndSplineSet
EndChar

StartChar: parenleft
Encoding: 40 40 11
Width: 832
GlyphClass: 2
Flags: W
LayerCount: 2
Fore
SplineSet
805 -306 m 1,0,-1
 782 -336 l 1,1,-1
 732 -336 l 1,2,-1
 396 -328 l 1,3,4
 366 -311 366 -311 279 -37 c 1,5,-1
 260 13 l 2,6,7
 160 275 160 275 140 616 c 1,8,9
 163 835 163 835 256 1176 c 0,10,11
 309 1371 309 1371 340 1443.5 c 128,-1,12
 371 1516 371 1516 381 1520 c 0,13,14
 417 1532 417 1532 786 1532 c 1,15,16
 794 1526 794 1526 796 1519 c 1,17,-1
 742 1314 l 1,18,19
 615 875 615 875 615 606 c 1,20,21
 626 302 626 302 748 -106 c 1,22,-1
 805 -306 l 1,0,-1
809 -300 m 1,23,-1
 806 -310 l 1,24,-1
 805 -306 l 1,25,-1
 809 -300 l 1,23,-1
EndSplineSet
EndChar

StartChar: parenright
Encoding: 41 41 12
Width: 835
GlyphClass: 2
Flags: W
LayerCount: 2
Fore
SplineSet
379 1543 m 1,0,-1
 442 1544 l 2,1,2
 455 1544 455 1544 470 1522 c 1,3,-1
 470 1524 l 1,4,-1
 525 1373 l 1,5,6
 617 1116 617 1116 647 1006 c 0,7,8
 710 775 710 775 709 645 c 0,9,10
 707 446 707 446 658 263 c 1,11,12
 562 -80 562 -80 482 -264 c 0,13,14
 464 -304 464 -304 454 -314 c 1,15,16
 334 -320 334 -320 285 -320 c 2,17,-1
 253 -320 l 1,18,-1
 223 -319 l 1,19,-1
 162 -319 l 2,20,21
 94 -319 94 -319 60 -322 c 1,22,-1
 70 -294 l 1,23,24
 82 -267 82 -267 119 -128.5 c 128,-1,25
 156 10 156 10 179 124 c 0,26,27
 232 388 232 388 232 594 c 0,28,29
 232 848 232 848 105 1295 c 2,30,-1
 41 1521 l 1,31,32
 50 1535 50 1535 61 1543 c 1,33,-1
 379 1543 l 1,0,-1
455 -316 m 1,34,35
 462 -316 462 -316 472 -311 c 1,36,37
 472 -333 472 -333 457 -337 c 1,38,39
 457 -336 457 -336 459 -334 c 1,40,-1
 453 -323 l 1,41,-1
 453 -338 l 1,42,-1
 449 -338 l 1,43,-1
 445 -320 l 1,44,-1
 455 -316 l 1,34,35
48 -321 m 1,45,46
 50 -321 50 -321 52 -321 c 128,-1,47
 54 -321 54 -321 59 -322 c 1,48,-1
 60 -322 l 1,49,50
 59 -325 59 -325 59 -331 c 1,51,-1
 48 -321 l 1,45,46
453 -338 m 1,52,53
 454 -338 454 -338 454.5 -337.5 c 128,-1,54
 455 -337 455 -337 456 -337 c 1,55,56
 455 -337 455 -337 454.5 -337.5 c 128,-1,57
 454 -338 454 -338 453 -338 c 1,52,53
EndSplineSet
EndChar

StartChar: asterisk
Encoding: 42 42 13
Width: 930
GlyphClass: 2
Flags: W
LayerCount: 2
Fore
SplineSet
854 1073 m 2,0,1
 854 1069 854 1069 766 1069 c 2,2,-1
 648 1069 l 1,3,-1
 690 1004 l 1,4,-1
 689 1004 l 1,5,6
 698 987 698 987 705 974 c 128,-1,7
 712 961 712 961 718 944 c 1,8,-1
 732 921 l 1,9,10
 746 905 746 905 756 876 c 1,11,-1
 627 793 l 1,12,-1
 628 795 l 1,13,-1
 589 774 l 1,14,-1
 590 775 l 1,15,16
 577 785 577 785 535.5 860 c 128,-1,17
 494 935 494 935 484 953 c 1,18,19
 442 872 442 872 429 846.5 c 128,-1,20
 416 821 416 821 408 806 c 0,21,22
 387 769 387 769 382.5 769 c 128,-1,23
 378 769 378 769 365 773.5 c 128,-1,24
 352 778 352 778 336 786 c 0,25,26
 296 806 296 806 276 826 c 1,27,-1
 205 871 l 1,28,-1
 197 873 l 1,29,30
 204 903 204 903 268 1003 c 1,31,-1
 290 1048 l 1,32,-1
 238 1047 l 1,33,-1
 193 1046 l 1,34,-1
 179 1046 l 2,35,36
 150 1046 150 1046 132.5 1047 c 128,-1,37
 115 1048 115 1048 106 1059 c 0,38,39
 89 1078 89 1078 89 1158.5 c 128,-1,40
 89 1239 89 1239 108 1256 c 1,41,42
 194 1256 194 1256 308 1250 c 1,43,-1
 252 1337 l 1,44,45
 207 1404 207 1404 200 1444 c 1,46,47
 202 1447 202 1447 214.5 1452 c 128,-1,48
 227 1457 227 1457 236 1462 c 128,-1,49
 245 1467 245 1467 261.5 1479.5 c 128,-1,50
 278 1492 278 1492 298 1505 c 0,51,52
 351 1538 351 1538 373 1538 c 0,53,54
 375 1538 375 1538 397.5 1495.5 c 128,-1,55
 420 1453 420 1453 429 1436 c 2,56,-1
 490 1324 l 1,57,-1
 506 1389 l 1,58,-1
 524 1430 l 1,59,-1
 534 1449 l 2,60,61
 539 1458 539 1458 545 1471 c 128,-1,62
 551 1484 551 1484 558 1496 c 0,63,64
 576 1529 576 1529 584 1537 c 1,65,66
 747 1462 747 1462 747 1448 c 0,67,68
 747 1429 747 1429 728 1401 c 0,69,70
 677 1326 677 1326 641 1246 c 1,71,-1
 707 1252 l 1,72,73
 735 1258 735 1258 797 1258 c 2,74,-1
 810 1258 l 2,75,76
 855 1258 855 1258 858 1242 c 0,77,78
 860 1236 860 1236 860 1200.5 c 128,-1,79
 860 1165 860 1165 854 1131 c 1,80,-1
 854 1073 l 2,0,1
759 869 m 1,81,-1
 758 878 l 1,82,-1
 781 891 l 1,83,84
 800 867 800 867 800 844 c 1,85,-1
 759 852 l 1,86,-1
 759 869 l 1,81,-1
197 873 m 1,87,88
 196 872 196 872 196 872 c 1,89,90
 195 873 195 873 195 874 c 2,91,-1
 197 873 l 1,87,88
195 874 m 2,92,93
 193 874 193 874 193 875 c 2,94,-1
 195 874 l 2,92,93
EndSplineSet
EndChar

StartChar: plus
Encoding: 43 43 14
Width: 1271
GlyphClass: 2
Flags: W
LayerCount: 2
Fore
SplineSet
1189 503 m 1,0,-1
 1188 465 l 1,1,-1
 1188 408 l 2,2,3
 1188 397 1188 397 1187 391 c 1,4,-1
 1183 391 l 1,5,6
 1170 390 1170 390 1159 390 c 2,7,-1
 866 390 l 1,8,-1
 788 391 l 1,9,10
 792 239 792 239 792 173 c 2,11,-1
 792 20 l 2,12,13
 792 -1 792 -1 770.5 -7 c 128,-1,14
 749 -13 749 -13 716 -13 c 2,15,-1
 629 -12 l 2,16,17
 593 -12 593 -12 565 -12 c 128,-1,18
 537 -12 537 -12 503 -14 c 1,19,-1
 498 372 l 1,20,-1
 470 371 l 1,21,-1
 368 371 l 1,22,-1
 346 372 l 1,23,-1
 324 371 l 1,24,-1
 188 371 l 1,25,-1
 149 372 l 1,26,-1
 112 372 l 1,27,28
 97 380 97 380 97 447 c 1,29,-1
 98 462 l 1,30,-1
 98 531 l 1,31,-1
 97 564 l 1,32,-1
 97 628 l 2,33,34
 97 659 97 659 102.5 670 c 128,-1,35
 108 681 108 681 134 681 c 0,36,37
 318 681 318 681 488 683 c 1,38,-1
 488 749 l 1,39,-1
 491 1004 l 1,40,-1
 491 1037 l 2,41,42
 491 1060 491 1060 496.5 1069 c 128,-1,43
 502 1078 502 1078 530 1078 c 1,44,-1
 549 1077 l 1,45,-1
 658 1077 l 1,46,-1
 718 1079 l 1,47,48
 786 1079 786 1079 796 1067 c 1,49,-1
 793 674 l 1,50,-1
 1180 676 l 1,51,52
 1189 672 1189 672 1189 625 c 2,53,-1
 1189 503 l 1,0,-1
EndSplineSet
EndChar

StartChar: comma
Encoding: 44 44 15
Width: 735
GlyphClass: 2
Flags: W
LayerCount: 2
Fore
SplineSet
534 422 m 1,0,1
 671 422 671 422 671 411 c 2,2,-1
 671 407 l 1,3,4
 619 254 619 254 588 151 c 2,5,-1
 575 108 l 1,6,7
 569 84 569 84 561 61 c 128,-1,8
 553 38 553 38 545 14 c 2,9,-1
 526 -49 l 1,10,-1
 461 -235 l 1,11,12
 443 -250 443 -250 258 -250 c 1,13,-1
 216 -249 l 1,14,-1
 27 -249 l 1,15,16
 13 -235 13 -235 9 -229 c 1,17,18
 15 -210 15 -210 20.5 -176 c 128,-1,19
 26 -142 26 -142 35 -101 c 2,20,-1
 43 -66 l 2,21,22
 54 -19 54 -19 65.5 33 c 128,-1,23
 77 85 77 85 89 136.5 c 128,-1,24
 101 188 101 188 112.5 236 c 128,-1,25
 124 284 124 284 134 322 c 0,26,27
 157 403 157 403 169 417 c 1,28,29
 183 419 183 419 197 419 c 0,30,31
 302 419 302 419 408 419 c 1,32,-1
 534 422 l 1,0,1
EndSplineSet
EndChar

StartChar: hyphen
Encoding: 45 45 16
Width: 859
GlyphClass: 2
Flags: W
LayerCount: 2
Fore
SplineSet
812 550 m 1,0,-1
 811 508 l 1,1,-1
 811 393 l 1,2,3
 809 375 809 375 804 375 c 0,4,5
 620 375 620 375 438.5 365 c 128,-1,6
 257 355 257 355 73 355 c 1,7,8
 60 366 60 366 50 379 c 1,9,-1
 51 407 l 1,10,-1
 51 437 l 1,11,12
 51 437 51 437 53 567 c 1,13,-1
 53 582 l 1,14,-1
 51 648 l 1,15,16
 51 732 51 732 62 732 c 2,17,-1
 283 732 l 1,18,-1
 354 731 l 1,19,-1
 658 734 l 1,20,-1
 692 734 l 1,21,-1
 730 733 l 1,22,-1
 798 733 l 1,23,24
 812 719 812 719 812 564 c 2,25,-1
 812 550 l 1,0,-1
EndSplineSet
EndChar

StartChar: period
Encoding: 46 46 17
Width: 775
GlyphClass: 2
Flags: W
LayerCount: 2
Fore
SplineSet
569 416 m 1,0,1
 649 416 649 416 649 407 c 2,2,-1
 652 254 l 2,3,4
 653 219 653 219 653 179.5 c 128,-1,5
 653 140 653 140 655 102 c 1,6,-1
 655 33 l 1,7,-1
 656 20 l 1,8,9
 656 -18 656 -18 653 -18 c 2,10,-1
 646 -17 l 1,11,12
 327 -35 327 -35 153 -35 c 1,13,-1
 130 1 l 1,14,15
 129 8 129 8 129 14 c 2,16,-1
 129 25 l 1,17,-1
 132 129 l 1,18,-1
 132 183 l 2,19,20
 132 403 132 403 146 417 c 1,21,22
 322 415 322 415 500 415 c 2,23,-1
 546 415 l 1,24,-1
 569 416 l 1,0,1
EndSplineSet
EndChar

StartChar: slash
Encoding: 47 47 18
Width: 804
GlyphClass: 2
Flags: W
LayerCount: 2
Fore
SplineSet
794 1565 m 1,0,-1
 804 1566 l 1,1,2
 846 1566 846 1566 846 1555 c 1,3,4
 833 1492 833 1492 811 1432 c 2,5,-1
 782 1355 l 1,6,7
 692 1096 692 1096 602 821 c 1,8,-1
 580 758 l 2,9,10
 521 590 521 590 464.5 418 c 128,-1,11
 408 246 408 246 345 81 c 2,12,-1
 327 34 l 1,13,-1
 329 34 l 1,14,15
 310 -20 310 -20 295 -35 c 0,16,17
 262 -68 262 -68 192 -70 c 1,18,-1
 149 -70 l 1,19,20
 113 -75 113 -75 41 -75 c 2,21,-1
 -10 -75 l 1,22,23
 -36 -20 -36 -20 -38 -14 c 1,24,25
 -35 -4 -35 -4 -31.5 8 c 128,-1,26
 -28 20 -28 20 -24 32 c 0,27,28
 -17 57 -17 57 -10 64 c 1,29,-1
 50 229 l 2,30,31
 203 651 203 651 515 1476 c 1,32,-1
 549 1563 l 1,33,34
 569 1568 569 1568 629 1568 c 1,35,-1
 748 1565 l 1,36,-1
 794 1565 l 1,0,-1
EndSplineSet
EndChar

StartChar: zero
Encoding: 48 48 19
Width: 1462
GlyphClass: 2
Flags: W
LayerCount: 2
Fore
SplineSet
921 705 m 1,0,1
 925 766 925 766 925 847.5 c 128,-1,2
 925 929 925 929 923.5 967 c 128,-1,3
 922 1005 922 1005 916 1042.5 c 128,-1,4
 910 1080 910 1080 898.5 1115 c 128,-1,5
 887 1150 887 1150 868 1178 c 1,6,7
 825 1237 825 1237 761.5 1237 c 128,-1,8
 698 1237 698 1237 663 1214.5 c 128,-1,9
 628 1192 628 1192 605.5 1154 c 128,-1,10
 583 1116 583 1116 570.5 1065.5 c 128,-1,11
 558 1015 558 1015 552 959 c 0,12,13
 543 886 543 886 543 790.5 c 128,-1,14
 543 695 543 695 544 645.5 c 128,-1,15
 545 596 545 596 550 544.5 c 128,-1,16
 555 493 555 493 566 443.5 c 128,-1,17
 577 394 577 394 598 356 c 0,18,19
 643 270 643 270 727 270 c 0,20,21
 913 270 913 270 920 601 c 0,22,23
 921 647 921 647 921 686 c 2,24,-1
 921 705 l 1,0,1
1440 727 m 0,25,26
 1440 535 1440 535 1368 348 c 1,27,28
 1291 143 1291 143 1114 38 c 0,29,30
 952 -57 952 -57 721 -59 c 1,31,32
 421 -59 421 -59 244 110 c 0,33,34
 92 256 92 256 50 504 c 1,35,36
 40 552 40 552 37 596 c 128,-1,37
 34 640 34 640 31 678 c 2,38,-1
 26 744 l 1,39,40
 26 1140 26 1140 233 1352 c 1,41,42
 414 1539 414 1539 737 1571 c 1,43,-1
 751 1571 l 2,44,45
 1024 1571 1024 1571 1190 1434 c 0,46,47
 1440 1229 1440 1229 1440 727 c 0,25,26
EndSplineSet
EndChar

StartChar: one
Encoding: 49 49 20
Width: 1579
GlyphClass: 2
Flags: W
LayerCount: 2
Fore
SplineSet
1119 1410 m 1,0,-1
 1117 1116 l 1,1,2
 1117 823 1117 823 1122 610 c 1,3,-1
 1131 -11 l 1,4,5
 1103 -34 1103 -34 1002 -34 c 1,6,-1
 916 -32 l 1,7,-1
 899 -32 l 1,8,-1
 858 -33 l 1,9,-1
 817 -33 l 1,10,-1
 754 -34 l 1,11,12
 629 -34 629 -34 554 -31 c 1,13,-1
 538 -6 l 2,14,15
 528 10 528 10 528 30 c 0,16,17
 528 208 528 208 531 372.5 c 128,-1,18
 534 537 534 537 536 706 c 2,19,-1
 540 980 l 1,20,21
 375 868 375 868 220 819 c 1,22,23
 213 820 213 820 212 828 c 1,24,-1
 212 934 l 1,25,-1
 211 979 l 1,26,-1
 211 1158 l 2,27,28
 211 1242 211 1242 213 1242 c 0,29,30
 225 1248 225 1248 246 1259.5 c 128,-1,31
 267 1271 267 1271 281.5 1278 c 128,-1,32
 296 1285 296 1285 315.5 1292 c 128,-1,33
 335 1299 335 1299 343 1304 c 128,-1,34
 351 1309 351 1309 359.5 1313 c 128,-1,35
 368 1317 368 1317 373 1320 c 2,36,-1
 445 1356 l 2,37,38
 621 1444 621 1444 672 1525 c 1,39,-1
 980 1519 l 1,40,41
 1072 1519 1072 1519 1116 1523 c 1,42,43
 1119 1516 1119 1516 1119 1467 c 2,44,-1
 1119 1410 l 1,0,-1
EndSplineSet
EndChar

StartChar: two
Encoding: 50 50 21
Width: 1458
GlyphClass: 2
Flags: W
LayerCount: 2
Fore
SplineSet
1431 3 m 2,0,1
 1431 -21 1431 -21 1409 -24 c 1,2,-1
 997 -15 l 1,3,4
 556 -15 556 -15 98 -35 c 1,5,-1
 85 -18 l 1,6,7
 68 -6 68 -6 68 82.5 c 128,-1,8
 68 171 68 171 70 239 c 1,9,-1
 70 246 l 1,10,11
 72 308 72 308 72 371 c 0,12,13
 72 386 72 386 231 492 c 2,14,-1
 404 607 l 1,15,16
 694 805 694 805 784 932 c 0,17,18
 842 1013 842 1013 842 1075.5 c 128,-1,19
 842 1138 842 1138 810.5 1167.5 c 128,-1,20
 779 1197 779 1197 736.5 1197 c 128,-1,21
 694 1197 694 1197 673 1186 c 128,-1,22
 652 1175 652 1175 640 1158 c 128,-1,23
 628 1141 628 1141 621.5 1120.5 c 128,-1,24
 615 1100 615 1100 611 1082 c 0,25,26
 601 1035 601 1035 587 1028 c 1,27,28
 564 1027 564 1027 542 1027 c 2,29,-1
 191 1027 l 1,30,-1
 146 1028 l 1,31,-1
 107 1028 l 2,32,33
 73 1028 73 1028 68 1037 c 1,34,35
 76 1157 76 1157 95 1215 c 1,36,37
 145 1399 145 1399 345 1488 c 1,38,39
 513 1564 513 1564 748 1564 c 0,40,41
 1033 1564 1033 1564 1214 1456 c 0,42,43
 1419 1333 1419 1333 1419 1099 c 0,44,45
 1419 809 1419 809 1100 571 c 1,46,-1
 900 430 l 1,47,48
 890 420 890 420 870 402 c 2,49,-1
 844 378 l 1,50,-1
 1332 387 l 1,51,52
 1419 387 1419 387 1432 287 c 0,53,54
 1436 256 1436 256 1436 219 c 2,55,-1
 1431 23 l 1,56,-1
 1431 3 l 2,0,1
EndSplineSet
EndChar

StartChar: three
Encoding: 51 51 22
Width: 1454
GlyphClass: 2
Flags: W
LayerCount: 2
Fore
SplineSet
254 1468 m 1,0,1
 423 1566 423 1566 794 1566 c 0,2,3
 1001 1566 1001 1566 1174 1462 c 0,4,5
 1297 1389 1297 1389 1348 1270 c 0,6,7
 1374 1210 1374 1210 1374 1134 c 128,-1,8
 1374 1058 1374 1058 1347.5 1003 c 128,-1,9
 1321 948 1321 948 1278 909 c 0,10,11
 1204 843 1204 843 1061 798 c 1,12,13
 1251 739 1251 739 1331 653 c 0,14,15
 1408 570 1408 570 1408 437 c 0,16,17
 1408 128 1408 128 1117 10 c 0,18,19
 1013 -33 1013 -33 918 -45 c 0,20,21
 372 -114 372 -114 133 120 c 1,22,23
 34 206 34 206 24 446 c 0,24,25
 24 459 24 459 35 459 c 0,26,27
 94 459 94 459 158.5 460.5 c 128,-1,28
 223 462 223 462 283 463 c 2,29,-1
 530 467 l 2,30,31
 545 467 545 467 547 454 c 0,32,33
 566 297 566 297 696 297 c 0,34,35
 765 297 765 297 800 335.5 c 128,-1,36
 835 374 835 374 835 434 c 0,37,38
 835 585 835 585 678 604 c 0,39,40
 635 609 635 609 612 608 c 128,-1,41
 589 607 589 607 583 607 c 2,42,-1
 572 607 l 2,43,44
 527 607 527 607 517 624 c 0,45,46
 504 647 504 647 504 699 c 128,-1,47
 504 751 504 751 504.5 786.5 c 128,-1,48
 505 822 505 822 509 848 c 0,49,50
 517 900 517 900 541 900 c 2,51,-1
 579 900 l 1,52,-1
 600 899 l 1,53,-1
 621 899 l 2,54,55
 714 899 714 899 752 928 c 0,56,57
 819 980 819 980 819 1083 c 0,58,59
 819 1170 819 1170 751 1200 c 0,60,61
 729 1209 729 1209 696 1209 c 128,-1,62
 663 1209 663 1209 640.5 1198.5 c 128,-1,63
 618 1188 618 1188 606 1172 c 0,64,65
 589 1150 589 1150 578 1092 c 1,66,-1
 579 1093 l 1,67,-1
 566 1053 l 2,68,69
 561 1039 561 1039 553 1033 c 1,70,71
 362 1033 362 1033 162 1039 c 1,72,-1
 125 1039 l 1,73,-1
 108 1038 l 1,74,75
 56 1038 56 1038 49 1057 c 1,76,77
 54 1100 54 1100 56.5 1143 c 128,-1,78
 59 1186 59 1186 69 1214.5 c 128,-1,79
 79 1243 79 1243 91 1271.5 c 128,-1,80
 103 1300 103 1300 124 1334 c 0,81,82
 178 1420 178 1420 254 1469 c 1,83,-1
 254 1468 l 1,0,1
EndSplineSet
EndChar

StartChar: four
Encoding: 52 52 23
Width: 1433
GlyphClass: 2
Flags: W
LayerCount: 2
Fore
SplineSet
1399 618 m 1,0,-1
 1421 619 l 2,1,2
 1438 619 1438 619 1445 612.5 c 128,-1,3
 1452 606 1452 606 1454 583 c 1,4,-1
 1450 579 l 1,5,-1
 1456 327 l 1,6,7
 1456 268 1456 268 1454 244.5 c 128,-1,8
 1452 221 1452 221 1442 221 c 2,9,-1
 1384 221 l 1,10,-1
 1361 220 l 1,11,-1
 1276 220 l 1,12,13
 1279 150 1279 150 1279 71.5 c 128,-1,14
 1279 -7 1279 -7 1276 -18 c 128,-1,15
 1273 -29 1273 -29 1259 -31 c 1,16,17
 1157 -29 1157 -29 1057 -29 c 2,18,-1
 1020 -29 l 2,19,20
 820 -29 820 -29 729 -35 c 1,21,-1
 728 -34 l 1,22,-1
 728 -35 l 1,23,-1
 704 -2 l 1,24,-1
 706 176 l 1,25,-1
 706 212 l 2,26,27
 706 238 706 238 687 246.5 c 128,-1,28
 668 255 668 255 643.5 255 c 128,-1,29
 619 255 619 255 598 252.5 c 128,-1,30
 577 250 577 250 556 246 c 0,31,32
 508 236 508 236 479 224 c 1,33,-1
 193 221 l 2,34,35
 164 220 164 220 134 218 c 128,-1,36
 104 216 104 216 78 216.5 c 128,-1,37
 52 217 52 217 31.5 220 c 128,-1,38
 11 223 11 223 -3 244 c 1,39,-1
 -3 352 l 2,40,41
 -3 476 -3 476 3 605 c 1,42,43
 84 807 84 807 214 1008 c 0,44,45
 254 1071 254 1071 299 1140 c 1,46,-1
 299 1139 l 1,47,48
 306 1148 306 1148 312.5 1160 c 128,-1,49
 319 1172 319 1172 344 1210.5 c 128,-1,50
 369 1249 369 1249 422 1330.5 c 128,-1,51
 475 1412 475 1412 531 1503 c 1,52,53
 541 1513 541 1513 590.5 1513 c 128,-1,54
 640 1513 640 1513 651 1514 c 2,55,-1
 741 1517 l 2,56,57
 942 1524 942 1524 1074 1524 c 2,58,-1
 1259 1524 l 1,59,-1
 1276 1518 l 1,60,-1
 1276 1470 l 1,61,-1
 1269 892 l 1,62,-1
 1270 796 l 1,63,-1
 1270 772 l 1,64,-1
 1268 717 l 1,65,66
 1268 618 1268 618 1334 618 c 2,67,-1
 1399 618 l 1,0,-1
1463 593 m 1,68,-1
 1468 581 l 1,69,-1
 1454 581 l 1,70,-1
 1454 583 l 1,71,-1
 1463 593 l 1,68,-1
1468 581 m 1,72,-1
 1475 581 l 1,73,74
 1475 575 1475 575 1471 575 c 1,75,-1
 1468 581 l 1,72,-1
778 711 m 1,76,-1
 781 845 l 1,77,78
 781 1180 781 1180 712 1186 c 1,79,80
 689 1173 689 1173 678 1157 c 1,81,-1
 627 1066 l 2,82,83
 607 1030 607 1030 587 993.5 c 128,-1,84
 567 957 567 957 547 922 c 2,85,-1
 491 824 l 2,86,87
 417 693 417 693 385 634 c 1,88,-1
 398 607 l 1,89,-1
 398 581 l 1,90,-1
 420 559 l 1,91,-1
 452 559 l 1,92,-1
 732 564 l 1,93,94
 774 584 774 584 779 618 c 1,95,-1
 779 639 l 1,96,-1
 778 661 l 1,97,-1
 778 711 l 1,76,-1
EndSplineSet
EndChar

StartChar: five
Encoding: 53 53 24
Width: 1469
GlyphClass: 2
Flags: W
LayerCount: 2
Fore
SplineSet
631 624 m 1,0,-1
 631 623 l 1,1,2
 629 612 629 612 628.5 603.5 c 128,-1,3
 628 595 628 595 626 588 c 0,4,5
 623 575 623 575 605 573 c 1,6,7
 524 576 524 576 398 576 c 2,8,-1
 168 576 l 2,9,10
 131 576 131 576 131 673 c 2,11,-1
 131 715 l 1,12,-1
 132 729 l 1,13,-1
 129 949 l 2,14,15
 127 1051 127 1051 127 1147 c 2,16,-1
 127 1380 l 2,17,18
 127 1400 127 1400 129 1422 c 1,19,-1
 129 1458 l 2,20,21
 129 1514 129 1514 147 1540 c 1,22,23
 184 1538 184 1538 216 1538 c 2,24,-1
 283 1538 l 1,25,-1
 1267 1529 l 1,26,-1
 1282 1530 l 1,27,28
 1318 1530 1318 1530 1327 1516 c 1,29,-1
 1327 1321 l 2,30,31
 1327 1174 1327 1174 1319.5 1168.5 c 128,-1,32
 1312 1163 1312 1163 1302 1163 c 2,33,-1
 1283 1163 l 2,34,35
 952 1163 952 1163 626 1159 c 1,36,37
 618 1133 618 1133 618.5 1101.5 c 128,-1,38
 619 1070 619 1070 617 1044 c 2,39,-1
 610 948 l 2,40,41
 610 942 610 942 609.5 927.5 c 128,-1,42
 609 913 609 913 609 908 c 1,43,44
 756 1007 756 1007 924 1007 c 0,45,46
 1146 1007 1146 1007 1280 870 c 1,47,48
 1412 737 1412 737 1412 525 c 0,49,50
 1412 319 1412 319 1308 178 c 0,51,52
 1175 -3 1175 -3 896 -47 c 0,53,54
 815 -60 815 -60 736 -60 c 128,-1,55
 657 -60 657 -60 575.5 -50 c 128,-1,56
 494 -40 494 -40 417 -16 c 0,57,58
 245 39 245 39 155 155 c 1,59,60
 102 235 102 235 76 396 c 1,61,62
 83 412 83 412 161 412 c 1,63,-1
 184 411 l 1,64,-1
 351 411 l 1,65,-1
 626 406 l 1,66,67
 635 400 635 400 639 382 c 128,-1,68
 643 364 643 364 650 345 c 0,69,70
 668 296 668 296 721 296 c 0,71,72
 845 296 845 296 845 491 c 0,73,74
 845 584 845 584 830 622 c 0,75,76
 800 697 800 697 724 697 c 128,-1,77
 648 697 648 697 631 624 c 1,0,-1
649 616 m 1,78,-1
 631 623 l 2,79,80
 631 624 631 624 631.5 624 c 128,-1,81
 632 624 632 624 632 625 c 2,82,-1
 649 616 l 1,78,-1
EndSplineSet
EndChar

StartChar: six
Encoding: 54 54 25
Width: 1457
GlyphClass: 2
Flags: W
LayerCount: 2
Fore
SplineSet
713 251 m 1,0,1
 767 235 767 235 772 235 c 0,2,3
 883 235 883 235 932 318 c 0,4,5
 971 384 971 384 970 463 c 128,-1,6
 969 542 969 542 959.5 584 c 128,-1,7
 950 626 950 626 928 656 c 0,8,9
 882 718 882 718 779 720 c 1,10,11
 620 720 620 720 592 559 c 0,12,13
 584 513 584 513 584 475 c 128,-1,14
 584 437 584 437 589 408.5 c 128,-1,15
 594 380 594 380 605 353 c 0,16,17
 629 294 629 294 681 261 c 1,18,-1
 693 276 l 1,19,20
 696 275 696 275 703 275 c 1,21,-1
 699 255 l 1,22,-1
 714 250 l 1,23,-1
 713 251 l 1,0,1
603 841 m 1,24,25
 728 988 728 988 923 988 c 0,26,27
 1141 988 1141 988 1288 852 c 0,28,29
 1435 717 1435 717 1435 512 c 0,30,31
 1435 160 1435 160 1091 13 c 0,32,33
 955 -45 955 -45 802 -54 c 1,34,35
 574 -50 574 -50 415 11 c 0,36,37
 352 35 352 35 309 73 c 1,38,-1
 309 72 l 1,39,40
 139 244 139 244 83 450 c 1,41,42
 53 581 53 581 53 753 c 128,-1,43
 53 925 53 925 105 1074 c 128,-1,44
 157 1223 157 1223 252 1332 c 0,45,46
 452 1560 452 1560 788 1578 c 1,47,48
 1239 1565 1239 1565 1344 1243 c 0,49,50
 1360 1192 1360 1192 1367 1141 c 1,51,52
 1268 1119 1268 1119 882 1119 c 0,53,54
 863 1119 863 1119 861 1115 c 1,55,-1
 859 1175 l 1,56,57
 837 1209 837 1209 780 1209 c 128,-1,58
 723 1209 723 1209 689 1180 c 128,-1,59
 655 1151 655 1151 636 1108 c 0,60,61
 602 1033 602 1033 602 917 c 2,62,-1
 602 877 l 1,63,-1
 603 848 l 1,64,-1
 603 841 l 1,24,25
EndSplineSet
EndChar

StartChar: seven
Encoding: 55 55 26
Width: 1462
GlyphClass: 2
Flags: W
LayerCount: 2
Fore
SplineSet
1370 1529 m 2,0,1
 1394 1529 1394 1529 1394 1383 c 2,2,-1
 1394 1336 l 2,3,4
 1394 1173 1394 1173 1382 1118.5 c 128,-1,5
 1370 1064 1370 1064 1352.5 1023 c 128,-1,6
 1335 982 1335 982 1306 928.5 c 128,-1,7
 1277 875 1277 875 1233.5 800.5 c 128,-1,8
 1190 726 1190 726 1129 616 c 0,9,10
 968 325 968 325 804 -17 c 1,11,12
 799 -32 799 -32 777 -32 c 2,13,-1
 687 -31 l 1,14,-1
 638 -31 l 1,15,-1
 588 -30 l 1,16,-1
 499 -30 l 1,17,-1
 434 -31 l 1,18,19
 193 -31 193 -31 193 -13.5 c 128,-1,20
 193 4 193 4 202 18 c 128,-1,21
 211 32 211 32 219 52 c 1,22,-1
 641 894 l 2,23,24
 653 918 653 918 667.5 946.5 c 128,-1,25
 682 975 682 975 696.5 1003.5 c 128,-1,26
 711 1032 711 1032 725.5 1060.5 c 128,-1,27
 740 1089 740 1089 754 1113 c 1,28,-1
 684 1113 l 2,29,30
 533 1113 533 1113 365 1109 c 1,31,-1
 125 1109 l 2,32,33
 103 1109 103 1109 93.5 1119.5 c 128,-1,34
 84 1130 84 1130 76 1141 c 1,35,-1
 76 1421 l 1,36,-1
 72 1485 l 1,37,38
 72 1547 72 1547 99 1547 c 0,39,40
 418 1547 418 1547 1163 1533 c 2,41,-1
 1370 1529 l 2,0,1
EndSplineSet
EndChar

StartChar: eight
Encoding: 56 56 27
Width: 1451
GlyphClass: 2
Flags: W
LayerCount: 2
Fore
SplineSet
1386 1088 m 0,0,1
 1386 863 1386 863 1140 776 c 1,2,3
 1300 697 1300 697 1345 642 c 0,4,5
 1431 535 1431 535 1431 393 c 0,6,7
 1431 299 1431 299 1388 209 c 1,8,9
 1331 84 1331 84 1163 8 c 0,10,11
 1044 -46 1044 -46 913.5 -52.5 c 128,-1,12
 783 -59 783 -59 703 -59 c 0,13,14
 85 -59 85 -59 37 391 c 1,15,16
 59 640 59 640 307 764 c 1,17,18
 84 867 84 867 84 1091 c 0,19,20
 84 1338 84 1338 297 1463 c 0,21,22
 476 1568 476 1568 723 1568 c 0,23,24
 993 1568 993 1568 1176 1460 c 0,25,26
 1386 1336 1386 1336 1386 1088 c 0,0,1
916 429 m 0,27,28
 916 646 916 646 732 646 c 0,29,30
 650 646 650 646 597 584 c 0,31,32
 546 523 546 523 546 436 c 1,33,34
 562 299 562 299 658 256 c 0,35,36
 690 242 690 242 733.5 242 c 128,-1,37
 777 242 777 242 811 256 c 128,-1,38
 845 270 845 270 868 294 c 0,39,40
 916 344 916 344 916 429 c 0,27,28
894 1074 m 0,41,42
 894 1262 894 1262 728 1262 c 0,43,44
 654 1262 654 1262 609 1194 c 0,45,46
 573 1140 573 1140 573 1071 c 0,47,48
 573 881 573 881 736 881 c 0,49,50
 817 881 817 881 859 941 c 0,51,52
 894 991 894 991 894 1074 c 0,41,42
EndSplineSet
EndChar

StartChar: nine
Encoding: 57 57 28
Width: 1456
GlyphClass: 2
Flags: W
LayerCount: 2
Fore
SplineSet
113 378 m 1,0,1
 129 399 129 399 142 410 c 1,2,-1
 603 403 l 1,3,4
 611 400 611 400 620 372.5 c 128,-1,5
 629 345 629 345 634.5 334.5 c 128,-1,6
 640 324 640 324 650 316 c 0,7,8
 671 298 671 298 719.5 298 c 128,-1,9
 768 298 768 298 800 324.5 c 128,-1,10
 832 351 832 351 849 392 c 0,11,12
 872 447 872 447 881 570 c 1,13,-1
 881 600 l 1,14,-1
 882 622 l 1,15,-1
 882 628 l 1,16,17
 760 549 760 549 601 544 c 1,18,19
 388 544 388 544 234 658 c 1,20,21
 59 786 59 786 50 1002 c 1,22,23
 70 1265 70 1265 283 1420 c 0,24,25
 476 1560 476 1560 726 1560 c 0,26,27
 1082 1560 1082 1560 1252 1360 c 1,28,-1
 1252 1361 l 1,29,30
 1430 1138 1430 1138 1430 792 c 0,31,32
 1430 423 1430 423 1274 191 c 1,33,34
 1145 1 1145 1 846 -52 c 0,35,36
 746 -69 746 -69 632.5 -69 c 128,-1,37
 519 -69 519 -69 428.5 -43 c 128,-1,38
 338 -17 338 -17 257 49 c 1,39,40
 123 146 123 146 113 378 c 1,0,1
505 1005 m 1,41,42
 518 787 518 787 706 787 c 0,43,44
 809 787 809 787 856 861 c 0,45,46
 892 918 892 918 892 990 c 128,-1,47
 892 1062 892 1062 884.5 1106 c 128,-1,48
 877 1150 877 1150 857 1184 c 0,49,50
 813 1261 813 1261 707 1261 c 128,-1,51
 601 1261 601 1261 548 1178 c 0,52,53
 505 1110 505 1110 505 1005 c 1,41,42
EndSplineSet
EndChar

StartChar: colon
Encoding: 58 58 29
Width: 771
GlyphClass: 2
Flags: W
LayerCount: 2
Fore
SplineSet
541 418 m 2,0,1
 629 418 629 418 645 406 c 1,2,-1
 645 218 l 1,3,-1
 647 124 l 1,4,-1
 647 20 l 2,5,6
 647 4 647 4 648 -12 c 1,7,8
 628 -35 628 -35 323 -35 c 1,9,10
 323 -35 323 -35 260 -34 c 0,11,12
 222 -34 222 -34 194 -34 c 128,-1,13
 166 -34 166 -34 147 -35 c 1,14,15
 141 -25 141 -25 132.5 -16 c 128,-1,16
 124 -7 124 -7 124 2 c 2,17,-1
 124 35 l 2,18,19
 124 201 124 201 135 408 c 0,20,21
 135 419 135 419 333 419 c 1,22,-1
 389 418 l 1,23,-1
 541 418 l 2,0,1
648 974 m 1,24,-1
 647 939 l 1,25,-1
 647 931 l 1,26,-1
 652 795 l 1,27,-1
 645 748 l 1,28,29
 654 708 654 708 654 674.5 c 128,-1,30
 654 641 654 641 642 641 c 0,31,32
 374 626 374 626 152 626 c 1,33,-1
 129 662 l 1,34,35
 128 677 128 677 128 690 c 2,36,-1
 128 737 l 1,37,-1
 130 807 l 1,38,-1
 130 867 l 2,39,40
 130 1063 130 1063 145 1078 c 1,41,42
 174 1077 174 1077 200 1077 c 2,43,-1
 255 1077 l 1,44,-1
 327 1078 l 1,45,-1
 396 1078 l 1,46,-1
 511 1079 l 1,47,-1
 556 1079 l 2,48,49
 646 1079 646 1079 646 1068 c 0,50,51
 648 1022 648 1022 648 974 c 1,24,-1
EndSplineSet
EndChar

StartChar: semicolon
Encoding: 59 59 30
Width: 733
GlyphClass: 2
Flags: W
LayerCount: 2
Fore
SplineSet
464.5 439.5 m 128,-1,1
 496 440 496 440 583 440 c 128,-1,2
 670 440 670 440 670 429 c 2,3,-1
 670 417 l 1,4,5
 632 313 632 313 574 132 c 2,6,-1
 527 -15 l 1,7,-1
 513 -64 l 1,8,-1
 491 -118 l 2,9,10
 483 -140 483 -140 473.5 -161 c 128,-1,11
 464 -182 464 -182 456 -203 c 1,12,13
 446 -219 446 -219 236 -219 c 1,14,-1
 77 -217 l 1,15,-1
 27 -217 l 1,16,-1
 9 -199 l 1,17,-1
 10 -196 l 1,18,-1
 16 -164 l 2,19,20
 32 -80 32 -80 37 -60 c 128,-1,21
 42 -40 42 -40 45.5 -18.5 c 128,-1,22
 49 3 49 3 55.5 37 c 128,-1,23
 62 71 62 71 70.5 114 c 128,-1,24
 79 157 79 157 88.5 201.5 c 128,-1,25
 98 246 98 246 108.5 288.5 c 128,-1,26
 119 331 119 331 129 364 c 0,27,28
 151 438 151 438 165 438 c 2,29,-1
 195 438 l 1,30,-1
 226 437 l 1,31,-1
 288 437 l 2,32,33
 323 437 323 437 350.5 437.5 c 128,-1,34
 378 438 378 438 405.5 438.5 c 128,-1,0
 433 439 433 439 464.5 439.5 c 128,-1,1
666 1058 m 0,35,36
 673 811 673 811 673 649 c 2,37,-1
 673 615 l 1,38,-1
 669 616 l 1,39,-1
 667 614 l 1,40,41
 627 612 627 612 583 611 c 128,-1,42
 539 610 539 610 499 608 c 2,43,-1
 173 595 l 1,44,45
 148 631 148 631 146.5 645 c 128,-1,46
 145 659 145 659 145 671 c 2,47,-1
 145 684 l 1,48,-1
 146 689 l 1,49,-1
 149 781 l 2,50,51
 150 790 150 790 150.5 813 c 128,-1,52
 151 836 151 836 152 865.5 c 128,-1,53
 153 895 153 895 153.5 927 c 128,-1,54
 154 959 154 959 156 987 c 0,55,56
 161 1051 161 1051 167 1059 c 1,57,-1
 204 1059 l 1,58,-1
 278 1060 l 1,59,-1
 352 1060 l 1,60,-1
 472 1061 l 1,61,-1
 538 1061 l 2,62,63
 666 1061 666 1061 666 1058 c 0,35,36
EndSplineSet
EndChar

StartChar: less
Encoding: 60 60 31
Width: 1271
GlyphClass: 2
Flags: W
LayerCount: 2
Fore
SplineSet
1196.5 199 m 128,-1,1
 1199 176 1199 176 1199 116.5 c 128,-1,2
 1199 57 1199 57 1191 -10 c 1,3,-1
 1191 -12 l 2,4,5
 1191 -38 1191 -38 1180 -38 c 1,6,-1
 1174 -37 l 1,7,-1
 696 151 l 1,8,9
 696 151 696 151 211 341 c 0,10,11
 204 343 204 343 198 345.5 c 128,-1,12
 192 348 192 348 180.5 352 c 128,-1,13
 169 356 169 356 151.5 362.5 c 128,-1,14
 134 369 134 369 120 380 c 0,15,16
 89 406 89 406 89 452 c 2,17,-1
 89 510 l 1,18,-1
 90 531 l 1,19,-1
 90 577 l 1,20,-1
 89 594 l 1,21,22
 89 656 89 656 119 693 c 1,23,-1
 1042 1041 l 1,24,25
 1108 1069 1108 1069 1176 1091 c 1,26,-1
 1180 1091 l 2,27,28
 1195 1091 1195 1091 1195 1022 c 2,29,-1
 1195 949 l 2,30,31
 1195 830 1195 830 1182 807 c 1,32,33
 900 699 900 699 724.5 628.5 c 128,-1,34
 549 558 549 558 464 524 c 1,35,36
 565 485 565 485 729 422 c 0,37,38
 1157 260 1157 260 1169.5 253.5 c 128,-1,39
 1182 247 1182 247 1188 234.5 c 128,-1,0
 1194 222 1194 222 1196.5 199 c 128,-1,1
1175 1112 m 1,40,-1
 1182 1113 l 1,41,-1
 1185 1094 l 1,42,-1
 1175 1091 l 1,43,-1
 1175 1112 l 1,40,-1
EndSplineSet
EndChar

StartChar: equal
Encoding: 61 61 32
Width: 1273
GlyphClass: 2
Flags: W
LayerCount: 2
Fore
SplineSet
1188 160 m 1,0,1
 1188 124 1188 124 1175 124 c 2,2,-1
 890 120 l 1,3,-1
 118 105 l 1,4,-1
 97 131 l 1,5,6
 94 167 94 167 94 201 c 2,7,-1
 94 244 l 2,8,9
 94 252 94 252 95 261 c 1,10,-1
 95 280 l 1,11,-1
 96 300 l 1,12,-1
 96 325 l 1,13,-1
 95 340 l 1,14,-1
 95 355 l 2,15,16
 95 405 95 405 107 431 c 0,17,18
 108 431 108 431 109 430.5 c 128,-1,19
 110 430 110 430 109.5 430.5 c 128,-1,20
 109 431 109 431 111 431 c 2,21,-1
 133 431 l 1,22,23
 581 403 581 403 891 403 c 1,24,-1
 929 404 l 2,25,26
 989 406 989 406 1052 406 c 128,-1,27
 1115 406 1115 406 1178 411 c 1,28,29
 1187 396 1187 396 1187 276 c 2,30,-1
 1187 173 l 1,31,-1
 1188 160 l 1,0,1
209 933 m 1,32,-1
 1178 929 l 1,33,34
 1185 912 1185 912 1185 786 c 2,35,-1
 1185 661 l 1,36,37
 1184 661 1184 661 1184 662 c 2,38,-1
 898 652 l 1,39,40
 701 643 701 643 507.5 637.5 c 128,-1,41
 314 632 314 632 118 623 c 1,42,-1
 97 650 l 1,43,-1
 97 656 l 1,44,45
 95 684 95 684 95 713 c 2,46,-1
 95 797 l 1,47,-1
 96 825 l 1,48,-1
 96 849 l 1,49,-1
 95 863 l 1,50,-1
 95 875 l 2,51,52
 95 933 95 933 107 933 c 2,53,-1
 209 933 l 1,32,-1
1185 661 m 1,54,55
 1187 658 1187 658 1195 650 c 1,56,-1
 1185 639 l 1,57,-1
 1185 661 l 1,54,55
EndSplineSet
EndChar

StartChar: greater
Encoding: 62 62 33
Width: 1269
GlyphClass: 2
Flags: W
LayerCount: 2
Fore
SplineSet
103 843 m 1,0,-1
 104 853 l 1,1,-1
 104 940 l 2,2,3
 104 986 104 986 102.5 1032.5 c 128,-1,4
 101 1079 101 1079 101 1083 c 1,5,6
 105 1080 105 1080 159 1059 c 0,7,8
 355 983 355 983 524 920 c 2,9,-1
 635 878 l 2,10,11
 683 860 683 860 738 839 c 128,-1,12
 793 818 793 818 850 796 c 0,13,14
 941 762 941 762 1064 713 c 1,15,-1
 1186 663 l 1,16,17
 1198 639 1198 639 1198 536 c 2,18,-1
 1198 419 l 2,19,20
 1198 406 1198 406 1196 404 c 2,21,-1
 1185 394 l 1,22,-1
 1182 391 l 1,23,-1
 1185 391 l 1,24,25
 743 216 743 216 494 108 c 1,26,-1
 357 51 l 2,27,28
 199 -15 199 -15 120 -42 c 1,29,-1
 89 -8 l 1,30,31
 89 114 89 114 99 240 c 1,32,33
 113 272 113 272 434 392 c 0,34,35
 483 410 483 410 530 428 c 1,36,-1
 562 441 l 1,37,38
 592 452 592 452 628 465.5 c 128,-1,39
 664 479 664 479 698 492 c 0,40,41
 767 517 767 517 801 532 c 1,42,43
 622 605 622 605 452 677.5 c 128,-1,44
 282 750 282 750 107 812 c 1,45,46
 103 822 103 822 103 843 c 1,0,-1
104 1083 m 2,47,48
 103 1083 103 1083 103 1082.5 c 128,-1,49
 103 1082 103 1082 101 1082 c 128,-1,50
 99 1082 99 1082 98 1085 c 1,51,-1
 104 1083 l 2,47,48
EndSplineSet
EndChar

StartChar: question
Encoding: 63 63 34
Width: 1121
GlyphClass: 2
Flags: W
LayerCount: 2
Fore
SplineSet
52 1123 m 1,0,1
 54 1303 54 1303 54 1480 c 0,2,3
 54 1545 54 1545 357 1564 c 0,4,5
 399 1566 399 1566 435 1568 c 2,6,-1
 474 1570 l 1,7,8
 711 1570 711 1570 872 1497 c 1,9,-1
 917 1474 l 1,10,-1
 916 1475 l 1,11,12
 1000 1422 1000 1422 1043 1354 c 1,13,-1
 1055 1329 l 1,14,15
 1090 1244 1090 1244 1094 1201 c 1,16,-1
 1094 1196 l 1,17,18
 1101 1152 1101 1152 1105 1141 c 1,19,20
 1100 1016 1100 1016 1045 936 c 1,21,22
 993 873 993 873 927 825 c 128,-1,23
 861 777 861 777 827 753 c 128,-1,24
 793 729 793 729 766 704 c 0,25,26
 710 650 710 650 706 586 c 1,27,28
 715 546 715 546 715 493 c 1,29,-1
 721 493 l 1,30,31
 700 485 700 485 689 485 c 2,32,-1
 569 483 l 1,33,34
 437 483 437 483 202 475 c 1,35,36
 191 481 191 481 191 523 c 0,37,38
 191 646 191 646 238 712 c 1,39,40
 275 766 275 766 332 818.5 c 128,-1,41
 389 871 389 871 418 903 c 0,42,43
 484 976 484 976 498 1048 c 1,44,45
 486 1141 486 1141 361 1141 c 1,46,-1
 356 1140 l 1,47,48
 231 1137 231 1137 85 1080 c 1,49,-1
 52 1107 l 1,50,-1
 52 1123 l 1,0,1
709 78 m 1,51,-1
 710 46 l 1,52,-1
 710 -14 l 1,53,54
 663 -20 663 -20 612 -18.5 c 128,-1,55
 561 -17 561 -17 511 -20 c 2,56,-1
 457 -23 l 2,57,58
 431 -25 431 -25 406 -27 c 128,-1,59
 381 -29 381 -29 354 -30 c 2,60,-1
 279 -33 l 2,61,62
 243 -35 243 -35 208 -35 c 1,63,64
 184 1 184 1 185 15.5 c 128,-1,65
 186 30 186 30 186 42 c 2,66,-1
 186 98 l 1,67,-1
 187 117 l 1,68,-1
 187 200 l 1,69,-1
 186 221 l 1,70,71
 186 318 186 318 204 342 c 1,72,-1
 290 339 l 2,73,74
 382 336 382 336 449 334.5 c 128,-1,75
 516 333 516 333 562.5 331.5 c 128,-1,76
 609 330 609 330 637 327.5 c 128,-1,77
 665 325 665 325 680 319 c 0,78,79
 707 309 707 309 707 276 c 2,80,-1
 709 78 l 1,51,-1
709 -15 m 1,81,-1
 711 -15 l 1,82,-1
 709 -15 l 1,83,-1
 710 -14 l 1,84,-1
 712 -14 l 1,85,-1
 711 -15 l 1,86,-1
 724 -13 l 1,87,88
 724 -21 724 -21 719 -28.5 c 128,-1,89
 714 -36 714 -36 709 -36 c 1,90,-1
 709 -15 l 1,81,-1
EndSplineSet
EndChar

StartChar: at
Encoding: 64 64 35
Width: 1671
GlyphClass: 2
Flags: W
LayerCount: 2
Fore
SplineSet
1245 329 m 1,0,1
 1129 338 1129 338 1068 499 c 1,2,-1
 1035 499 l 1,3,4
 972 422 972 422 927 396 c 0,5,6
 843 349 843 349 764 349 c 128,-1,7
 685 349 685 349 630.5 372 c 128,-1,8
 576 395 576 395 534 436 c 0,9,10
 445 523 445 523 445 647 c 2,11,-1
 445 682 l 2,12,13
 445 843 445 843 552 965 c 0,14,15
 667 1097 667 1097 849 1097 c 0,16,17
 977 1097 977 1097 1055 1021 c 1,18,-1
 1127 914 l 1,19,-1
 1137 950 l 2,20,21
 1145 981 1145 981 1156 1018.5 c 128,-1,22
 1167 1056 1167 1056 1175 1088 c 1,23,-1
 1259 1085 l 1,24,-1
 1191 703 l 1,25,26
 1176 636 1176 636 1176 594.5 c 128,-1,27
 1176 553 1176 553 1180.5 528.5 c 128,-1,28
 1185 504 1185 504 1197 486 c 0,29,30
 1223 445 1223 445 1286 445 c 1,31,32
 1390 489 1390 489 1444 608 c 0,33,34
 1486 702 1486 702 1486 818 c 128,-1,35
 1486 934 1486 934 1463 1018 c 128,-1,36
 1440 1102 1440 1102 1399.5 1165 c 128,-1,37
 1359 1228 1359 1228 1303.5 1271.5 c 128,-1,38
 1248 1315 1248 1315 1182 1342 c 0,39,40
 1058 1394 1058 1394 911 1394 c 128,-1,41
 764 1394 764 1394 645.5 1351 c 128,-1,42
 527 1308 527 1308 436 1223 c 0,43,44
 235 1037 235 1037 235 716 c 0,45,46
 235 580 235 580 289.5 469.5 c 128,-1,47
 344 359 344 359 435 281 c 0,48,49
 625 118 625 118 889 118 c 0,50,51
 1027 118 1027 118 1125 146 c 1,52,53
 1130 131 1130 131 1131 124 c 128,-1,54
 1132 117 1132 117 1136 106 c 2,55,-1
 1159 35 l 1,56,57
 1023 -12 1023 -12 827 -12 c 0,58,59
 630 -12 630 -12 457 86 c 0,60,61
 192 236 192 236 107 528 c 0,62,63
 79 625 79 625 79 740 c 128,-1,64
 79 855 79 855 110 961.5 c 128,-1,65
 141 1068 141 1068 195.5 1156 c 128,-1,66
 250 1244 250 1244 325 1312 c 128,-1,67
 400 1380 400 1380 488 1427 c 0,68,69
 667 1522 667 1522 873 1522 c 0,70,71
 1174 1522 1174 1522 1389 1364 c 0,72,73
 1533 1257 1533 1257 1590 1096 c 0,74,75
 1618 1014 1618 1014 1618 929.5 c 128,-1,76
 1618 845 1618 845 1603 774.5 c 128,-1,77
 1588 704 1588 704 1562 640 c 128,-1,78
 1536 576 1536 576 1500 521.5 c 128,-1,79
 1464 467 1464 467 1423 426 c 0,80,81
 1336 339 1336 339 1245 329 c 1,0,1
1038.5 658 m 128,-1,83
 1058 707 1058 707 1058 768 c 128,-1,84
 1058 829 1058 829 1012 889.5 c 128,-1,85
 966 950 966 950 876 950 c 0,86,87
 767 950 767 950 697 874 c 0,88,89
 635 808 635 808 620 703 c 1,90,91
 620 552 620 552 716 502 c 0,92,93
 745 488 745 488 793.5 487.5 c 128,-1,94
 842 487 842 487 894 510 c 128,-1,95
 946 533 946 533 982.5 571 c 128,-1,82
 1019 609 1019 609 1038.5 658 c 128,-1,83
EndSplineSet
EndChar

StartChar: A
Encoding: 65 65 36
Width: 1639
GlyphClass: 2
Flags: W
LayerCount: 2
Fore
SplineSet
1148 1512 m 1,0,1
 1208 1512 1208 1512 1208 1488 c 1,2,3
 1326 1157 1326 1157 1466.5 712 c 128,-1,4
 1607 267 1607 267 1663 96 c 1,5,-1
 1677 46 l 1,6,7
 1682 22 1682 22 1697 -11 c 1,8,9
 1695 -22 1695 -22 1675 -23 c 128,-1,10
 1655 -24 1655 -24 1609 -24 c 2,11,-1
 1550 -24 l 1,12,-1
 1488 -25 l 1,13,-1
 1427 -25 l 1,14,-1
 1330 -26 l 1,15,16
 1175 -26 1175 -26 1089 -19 c 0,17,18
 1086 -18 1086 -18 1082 -7 c 1,19,-1
 1077 14 l 1,20,21
 1072 78 1072 78 1053.5 139.5 c 128,-1,22
 1035 201 1035 201 1030 213 c 1,23,-1
 602 209 l 1,24,25
 588 153 588 153 572.5 95 c 128,-1,26
 557 37 557 37 543 -19 c 1,27,28
 533 -29 533 -29 448 -29 c 1,29,-1
 423 -28 l 1,30,-1
 365 -28 l 1,31,-1
 105 -34 l 1,32,-1
 75 -34 l 1,33,-1
 47 -35 l 1,34,-1
 -23 -35 l 1,35,36
 -31 -28 -31 -28 -38 -17 c 1,37,38
 23 198 23 198 93.5 412.5 c 128,-1,39
 164 627 164 627 233 841 c 2,40,-1
 256 912 l 1,41,-1
 255 912 l 1,42,-1
 282 995 l 2,43,44
 323 1121 323 1121 366 1245.5 c 128,-1,45
 409 1370 409 1370 429 1437.5 c 128,-1,46
 449 1505 449 1505 452 1507 c 1,47,-1
 618 1507 l 1,48,-1
 973 1512 l 1,49,-1
 1069 1507 l 1,50,-1
 1148 1512 l 1,0,1
707 535 m 1,51,-1
 748 534 l 1,52,-1
 903 534 l 2,53,54
 945 534 945 534 987 535 c 1,55,56
 978 593 978 593 972.5 641 c 128,-1,57
 967 689 967 689 964 710 c 1,58,-1
 926 881 l 2,59,60
 911 947 911 947 895.5 1013 c 128,-1,61
 880 1079 880 1079 866 1146 c 1,62,-1
 851 1180 l 2,63,64
 845 1192 845 1192 820 1203 c 1,65,66
 800 1197 800 1197 763.5 1048 c 128,-1,67
 727 899 727 899 711.5 832.5 c 128,-1,68
 696 766 696 766 682.5 705 c 128,-1,69
 669 644 669 644 659 601 c 1,70,-1
 648 535 l 1,71,-1
 707 535 l 1,51,-1
EndSplineSet
EndChar

StartChar: B
Encoding: 66 66 37
Width: 1571
GlyphClass: 2
Flags: W
LayerCount: 2
Fore
SplineSet
108 1198 m 2,0,1
 108 1306 108 1306 113 1494 c 1,2,-1
 111 1496 l 1,3,-1
 165 1499 l 2,4,5
 403 1513 403 1513 504 1513 c 2,6,-1
 970 1513 l 2,7,8
 1213 1513 1213 1513 1367 1414 c 1,9,10
 1455 1339 1455 1339 1484 1204 c 0,11,12
 1493 1163 1493 1163 1493 1111 c 128,-1,13
 1493 1059 1493 1059 1475 1007.5 c 128,-1,14
 1457 956 1457 956 1422 913 c 0,15,16
 1361 836 1361 836 1229 767 c 1,17,18
 1379 726 1379 726 1458 636 c 128,-1,19
 1537 546 1537 546 1537 414 c 0,20,21
 1537 182 1537 182 1329 62 c 0,22,23
 1174 -28 1174 -28 942 -28 c 1,24,-1
 644 -24 l 1,25,26
 431 -24 431 -24 132 -33 c 1,27,28
 112 6 112 6 110 106.5 c 128,-1,29
 108 207 108 207 106 294 c 128,-1,30
 104 381 104 381 104 611 c 128,-1,31
 104 841 104 841 109 1116 c 1,32,-1
 108 1136 l 1,33,-1
 108 1198 l 2,0,1
680 596 m 1,34,35
 673 491 673 491 673 393 c 128,-1,36
 673 295 673 295 694 279 c 1,37,-1
 731 279 l 2,38,39
 849 279 849 279 897 305 c 128,-1,40
 945 331 945 331 967.5 369.5 c 128,-1,41
 990 408 990 408 990 461.5 c 128,-1,42
 990 515 990 515 978 545 c 128,-1,43
 966 575 966 575 946 594.5 c 128,-1,44
 926 614 926 614 899 625 c 128,-1,45
 872 636 872 636 843 642 c 1,46,47
 802 649 802 649 727 652 c 1,48,-1
 698 652 l 1,49,-1
 680 596 l 1,34,35
652 1157 m 0,50,51
 652 1066 652 1066 657 938 c 2,52,-1
 659 885 l 2,53,54
 661 847 661 847 703 840 c 1,55,-1
 752 846 l 2,56,57
 844 857 844 857 884 884 c 0,58,59
 966 938 966 938 966 1041 c 0,60,61
 966 1138 966 1138 886 1184 c 1,62,63
 826 1217 826 1217 739 1217 c 128,-1,64
 652 1217 652 1217 652 1157 c 0,50,51
EndSplineSet
EndChar

StartChar: C
Encoding: 67 67 38
Width: 1556
GlyphClass: 2
Flags: W
LayerCount: 2
Fore
SplineSet
49 797 m 1,0,1
 73 1026 73 1026 130 1143 c 128,-1,2
 187 1260 187 1260 268.5 1334.5 c 128,-1,3
 350 1409 350 1409 446 1454 c 0,4,5
 627 1538 627 1538 859 1538 c 0,6,7
 1173 1538 1173 1538 1344 1393 c 0,8,9
 1500 1262 1500 1262 1521 1033 c 2,10,-1
 1530 939 l 1,11,12
 1514 923 1514 923 1315 923 c 1,13,-1
 1156 925 l 1,14,-1
 1143 925 l 1,15,-1
 1056 927 l 1,16,-1
 1032 926 l 1,17,-1
 1012 926 l 2,18,19
 987 926 987 926 975 982 c 0,20,21
 958 1063 958 1063 946 1087 c 0,22,23
 918 1143 918 1143 864 1143 c 128,-1,24
 810 1143 810 1143 779 1125.5 c 128,-1,25
 748 1108 748 1108 727.5 1078.5 c 128,-1,26
 707 1049 707 1049 696 1009.5 c 128,-1,27
 685 970 685 970 680 927 c 0,28,29
 674 865 674 865 674 753 c 2,30,-1
 674 729 l 1,31,32
 674 729 674 729 670 628 c 1,33,34
 670 352 670 352 826 346 c 1,35,36
 907 346 907 346 937 446 c 0,37,38
 945 472 945 472 952 493 c 0,39,40
 966 540 966 540 974 552 c 1,41,-1
 1012 552 l 1,42,-1
 1058 551 l 1,43,-1
 1220 551 l 1,44,-1
 1269 552 l 1,45,-1
 1364 551 l 1,46,-1
 1422 551 l 1,47,-1
 1481 550 l 1,48,-1
 1521 550 l 1,49,50
 1533 548 1533 548 1538 529 c 1,51,-1
 1535 496 l 1,52,53
 1513 209 1513 209 1286 62 c 0,54,55
 1090 -65 1090 -65 812 -65 c 0,56,57
 510 -65 510 -65 325 79 c 0,58,59
 49 293 49 293 49 797 c 1,0,1
EndSplineSet
EndChar

StartChar: D
Encoding: 68 68 39
Width: 1648
GlyphClass: 2
Flags: W
LayerCount: 2
Fore
SplineSet
514 1512 m 1,0,-1
 701 1515 l 1,1,2
 1190 1515 1190 1515 1388 1353 c 1,3,4
 1454 1304 1454 1304 1524 1179 c 0,5,6
 1625 999 1625 999 1625 759 c 0,7,8
 1625 395 1625 395 1400 181 c 0,9,10
 1188 -20 1188 -20 882 -23 c 1,11,-1
 878 -27 l 1,12,-1
 853 -27 l 1,13,-1
 587 -24 l 1,14,15
 390 -24 390 -24 134 -33 c 1,16,17
 115 3 115 3 115 52 c 1,18,-1
 116 88 l 1,19,-1
 116 244 l 1,20,-1
 118 466 l 1,21,-1
 118 832 l 1,22,23
 116 928 116 928 116 1020 c 2,24,-1
 116 1184 l 1,25,-1
 117 1207 l 1,26,-1
 117 1493 l 2,27,28
 117 1512 117 1512 400 1512 c 2,29,-1
 514 1512 l 1,0,-1
1000.5 1092 m 128,-1,31
 976 1140 976 1140 939 1166 c 128,-1,32
 902 1192 902 1192 871.5 1200.5 c 128,-1,33
 841 1209 841 1209 810 1211.5 c 128,-1,34
 779 1214 779 1214 748 1214 c 128,-1,35
 717 1214 717 1214 686 1216 c 1,36,37
 673 1198 673 1198 662 1176 c 2,38,-1
 644 1139 l 1,39,-1
 644 1083 l 2,40,41
 644 913 644 913 652 614 c 1,42,-1
 658 325 l 1,43,44
 664 294 664 294 698 288 c 1,45,46
 807 291 807 291 857 302 c 1,47,48
 1054 372 1054 372 1054 781 c 0,49,50
 1054 914 1054 914 1039.5 979 c 128,-1,30
 1025 1044 1025 1044 1000.5 1092 c 128,-1,31
EndSplineSet
EndChar

StartChar: E
Encoding: 69 69 40
Width: 1306
GlyphClass: 2
Flags: W
LayerCount: 2
Fore
SplineSet
116 1498 m 1,0,1
 1040 1512 1040 1512 1261 1512 c 1,2,3
 1265 1510 1265 1510 1267 1506 c 1,4,-1
 1267 1224 l 1,5,6
 1266 1207 1266 1207 1266.5 1190.5 c 128,-1,7
 1267 1174 1267 1174 1265 1157 c 1,8,9
 1260 1141 1260 1141 1206 1141 c 2,10,-1
 1199 1141 l 2,11,12
 943 1141 943 1141 695 1149 c 1,13,14
 694 1135 694 1135 692 1116.5 c 128,-1,15
 690 1098 690 1098 689 1084 c 2,16,-1
 684 1046 l 2,17,18
 680 1016 680 1016 677 914 c 1,19,-1
 987 921 l 2,20,21
 1047 923 1047 923 1103 923 c 2,22,-1
 1119 923 l 2,23,24
 1173 923 1173 923 1195.5 920 c 128,-1,25
 1218 917 1218 917 1218 899 c 1,26,-1
 1217 891 l 1,27,-1
 1217 867 l 1,28,-1
 1222 610 l 1,29,-1
 1221 609 l 1,30,-1
 1221 610 l 1,31,32
 916 595 916 595 735 595 c 2,33,-1
 688 595 l 1,34,-1
 688 353 l 1,35,36
 828 353 828 353 961 361.5 c 128,-1,37
 1094 370 1094 370 1185.5 370 c 128,-1,38
 1277 370 1277 370 1288 357 c 1,39,40
 1287 337 1287 337 1287 320 c 2,41,-1
 1287 184 l 1,42,-1
 1294 11 l 1,43,44
 1294 -15 1294 -15 1272 -18 c 1,45,-1
 940 -15 l 2,46,47
 843 -15 843 -15 743.5 -17.5 c 128,-1,48
 644 -20 644 -20 550 -22 c 2,49,-1
 386 -26 l 2,50,51
 254 -30 254 -30 128 -32 c 1,52,-1
 125 -30 l 1,53,-1
 126 -30 l 1,54,-1
 107 -11 l 1,55,-1
 107 24 l 1,56,-1
 113 1093 l 1,57,-1
 114 1238 l 1,58,-1
 109 1501 l 2,59,60
 110 1501 110 1501 116 1498 c 1,0,1
EndSplineSet
EndChar

StartChar: F
Encoding: 70 70 41
Width: 1265
GlyphClass: 2
Flags: W
LayerCount: 2
Fore
SplineSet
1270 1463 m 2,0,-1
 1269 1370 l 1,1,2
 1269 1246 1269 1246 1265 1126 c 1,3,4
 1152 1116 1152 1116 945 1116 c 2,5,-1
 714 1115 l 1,6,-1
 714 1086 l 1,7,-1
 712 998 l 1,8,-1
 712 971 l 2,9,10
 712 954 712 954 715 930 c 1,11,12
 959 951 959 951 1083.5 951 c 128,-1,13
 1208 951 1208 951 1233 933 c 1,14,-1
 1233 598 l 2,15,16
 1233 563 1233 563 1218.5 553 c 128,-1,17
 1204 543 1204 543 1180 543 c 2,18,-1
 1167 543 l 1,19,-1
 1113 545 l 1,20,21
 898 534 898 534 716 530 c 1,22,-1
 723 132 l 1,23,-1
 722 98 l 1,24,-1
 722 4 l 2,25,26
 722 -12 722 -12 719 -19 c 128,-1,27
 716 -26 716 -26 704 -28 c 1,28,-1
 132 -33 l 1,29,30
 131 -31 131 -31 130 -28 c 0,31,32
 128 -24 128 -24 117 -6 c 1,33,34
 116 6 116 6 115.5 23.5 c 128,-1,35
 115 41 115 41 114.5 58 c 128,-1,36
 114 75 114 75 113.5 88.5 c 128,-1,37
 113 102 113 102 113 106 c 2,38,-1
 119 1497 l 2,39,40
 119 1510 119 1510 255 1510 c 1,41,-1
 280 1509 l 1,42,-1
 348 1509 l 1,43,-1
 831 1514 l 1,44,-1
 1174 1510 l 1,45,-1
 1208 1510 l 1,46,-1
 1223 1511 l 1,47,48
 1254 1511 1254 1511 1262 1497 c 128,-1,49
 1270 1483 1270 1483 1270 1463 c 2,0,-1
EndSplineSet
EndChar

StartChar: G
Encoding: 71 71 42
Width: 1681
GlyphClass: 2
Flags: W
LayerCount: 2
Fore
SplineSet
1613 58 m 1,0,-1
 1614 54 l 1,1,-1
 1611 46 l 1,2,-1
 1612 46 l 1,3,4
 1611 44 1611 44 1611.5 43.5 c 128,-1,5
 1612 43 1612 43 1611 41 c 0,6,7
 1548 -7 1548 -7 1266 -42 c 0,8,9
 1156 -55 1156 -55 1115 -55 c 2,10,-1
 1067 -55 l 2,11,12
 1060 -55 1060 -55 1054 -54 c 1,13,-1
 1003 -57 l 1,14,15
 943 -62 943 -62 911 -62 c 0,16,17
 491 -62 491 -62 270 151 c 0,18,19
 52 361 52 361 52 748 c 0,20,21
 52 1056 52 1056 203 1249 c 0,22,23
 430 1539 430 1539 929 1539 c 0,24,25
 1138 1539 1138 1539 1302 1484 c 1,26,27
 1456 1421 1456 1421 1532 1285 c 0,28,29
 1556 1241 1556 1241 1564.5 1197 c 128,-1,30
 1573 1153 1573 1153 1576.5 1111.5 c 128,-1,31
 1580 1070 1580 1070 1586 1031 c 1,32,33
 1580 1016 1580 1016 1543 1016 c 2,34,-1
 1035 1025 l 1,35,36
 1030 1027 1030 1027 1025 1052 c 1,37,-1
 1025 1049 l 1,38,39
 1013 1103 1013 1103 996 1120 c 0,40,41
 961 1157 961 1157 894 1157 c 0,42,43
 665 1157 665 1157 665 770 c 2,44,-1
 665 669 l 2,45,46
 665 520 665 520 686.5 469 c 128,-1,47
 708 418 708 418 734 391 c 0,48,49
 792 332 792 332 906 332 c 0,50,51
 1027 332 1027 332 1114 361 c 1,52,-1
 1119 519 l 1,53,-1
 1047 525 l 1,54,-1
 1037 520 l 1,55,-1
 933 520 l 1,56,-1
 921 519 l 1,57,-1
 896 545 l 1,58,59
 894 558 894 558 894 572 c 2,60,-1
 894 823 l 2,61,62
 894 840 894 840 918 857 c 1,63,-1
 985 857 l 2,64,65
 1098 857 1098 857 1180 855 c 1,66,-1
 1190 855 l 1,67,68
 1264 853 1264 853 1339 853 c 2,69,-1
 1399 853 l 1,70,-1
 1422 854 l 1,71,72
 1599 854 1599 854 1625 831 c 1,73,-1
 1613 72 l 1,74,-1
 1613 58 l 1,0,-1
EndSplineSet
EndChar

StartChar: H
Encoding: 72 72 43
Width: 1654
GlyphClass: 2
Flags: W
LayerCount: 2
Fore
SplineSet
1564 539 m 2,0,1
 1564 517 1564 517 1562 497 c 1,2,-1
 1562 449 l 2,3,4
 1562 405 1562 405 1564 365 c 1,5,-1
 1564 328 l 2,6,7
 1564 322 1564 322 1563.5 301 c 128,-1,8
 1563 280 1563 280 1563 238 c 2,9,-1
 1565 -14 l 1,10,11
 1552 -33 1552 -33 1434 -33 c 2,12,-1
 1260 -33 l 2,13,14
 1124 -33 1124 -33 971 -27 c 1,15,16
 966 -21 966 -21 961.5 -14.5 c 128,-1,17
 957 -8 957 -8 952 -2 c 1,18,-1
 952 158 l 1,19,-1
 954 465 l 2,20,21
 954 510 954 510 945 517 c 0,22,23
 933 526 933 526 883 526 c 2,24,-1
 869 526 l 2,25,26
 773 526 773 526 719 517 c 1,27,-1
 719 377 l 1,28,-1
 717 -10 l 1,29,30
 701 -26 701 -26 466 -26 c 2,31,-1
 418 -26 l 2,32,33
 205 -26 205 -26 121 -20 c 1,34,35
 102 -14 102 -14 102 122 c 1,36,-1
 108 343 l 1,37,-1
 118 1239 l 1,38,-1
 118 1287 l 1,39,40
 119 1306 119 1306 119 1393.5 c 128,-1,41
 119 1481 119 1481 130 1505 c 1,42,-1
 135 1505 l 1,43,44
 185 1503 185 1503 232 1503 c 2,45,-1
 344 1503 l 1,46,-1
 465 1505 l 1,47,-1
 503 1505 l 2,48,49
 639 1505 639 1505 670 1488 c 128,-1,50
 701 1471 701 1471 708 1452 c 128,-1,51
 715 1433 715 1433 715 1405 c 2,52,-1
 712 1280 l 1,53,-1
 712 1233 l 1,54,-1
 706 1035 l 2,55,56
 706 1018 706 1018 709 977 c 1,57,-1
 771 977 l 1,58,-1
 796 976 l 1,59,-1
 876 976 l 2,60,61
 922 976 922 976 966 983 c 1,62,-1
 966 1220 l 1,63,-1
 967 1294 l 1,64,-1
 967 1363 l 1,65,-1
 966 1379 l 1,66,-1
 966 1430 l 2,67,68
 966 1491 966 1491 971 1501 c 0,69,70
 978 1515 978 1515 1000 1515 c 1,71,-1
 1020 1514 l 1,72,73
 1060 1514 1060 1514 1100 1514 c 1,74,-1
 1301 1520 l 1,75,76
 1559 1520 1559 1520 1559 1479 c 2,77,-1
 1559 1408 l 1,78,-1
 1560 1384 l 1,79,-1
 1559 1332 l 1,80,-1
 1559 1177 l 1,81,-1
 1564 539 l 2,0,1
EndSplineSet
EndChar

StartChar: I
Encoding: 73 73 44
Width: 842
GlyphClass: 2
Flags: W
LayerCount: 2
Fore
SplineSet
124 1512 m 1,0,1
 330 1499 330 1499 496.5 1499 c 128,-1,2
 663 1499 663 1499 720 1505 c 1,3,4
 722 1502 722 1502 723 1488 c 1,5,-1
 716 1488 l 1,6,-1
 716 1126 l 1,7,-1
 723 312 l 2,8,9
 723 303 723 303 726 297 c 1,10,-1
 726 295 l 1,11,12
 729 289 729 289 729 267.5 c 128,-1,13
 729 246 729 246 730.5 208 c 128,-1,14
 732 170 732 170 733 135 c 2,15,-1
 737 -9 l 1,16,17
 732 -21 732 -21 719 -26 c 1,18,-1
 685 -26 l 1,19,-1
 125 -35 l 1,20,21
 111 -28 111 -28 99 -20 c 1,22,-1
 100 -3 l 1,23,-1
 103 107 l 2,24,25
 105 179 105 179 104.5 248 c 128,-1,26
 104 317 104 317 114 389 c 1,27,28
 114 823 114 823 126 1266 c 1,29,30
 123 1329 123 1329 123 1393 c 2,31,-1
 123 1426 l 1,32,33
 119 1460 119 1460 119 1482.5 c 128,-1,34
 119 1505 119 1505 124 1512 c 1,0,1
EndSplineSet
EndChar

StartChar: J
Encoding: 74 74 45
Width: 1383
GlyphClass: 2
Flags: W
LayerCount: 2
Fore
SplineSet
1298 1418 m 1,0,-1
 1297 1401 l 1,1,-1
 1295 1350 l 2,2,3
 1288 1150 1288 1150 1288 786 c 2,4,-1
 1288 569 l 2,5,6
 1288 518 1288 518 1287 439.5 c 128,-1,7
 1286 361 1286 361 1254.5 281.5 c 128,-1,8
 1223 202 1223 202 1170.5 144 c 128,-1,9
 1118 86 1118 86 1050.5 47 c 128,-1,10
 983 8 983 8 910 -15 c 0,11,12
 775 -58 775 -58 667 -58 c 0,13,14
 462 -58 462 -58 347 -23 c 1,15,16
 211 11 211 11 113 112 c 0,17,18
 -10 238 -10 238 -10 424 c 2,19,-1
 -10 450 l 1,20,-1
 -11 462 l 1,21,22
 -11 501 -11 501 1 501 c 2,23,-1
 130 497 l 1,24,-1
 170 497 l 2,25,26
 194 497 194 497 211.5 496.5 c 128,-1,27
 229 496 229 496 250 496 c 2,28,-1
 285 496 l 1,29,-1
 298 497 l 1,30,-1
 467 494 l 1,31,32
 506 491 506 491 514 452 c 0,33,34
 518 435 518 435 519 416.5 c 128,-1,35
 520 398 520 398 526 382 c 1,36,37
 542 346 542 346 597 346 c 0,38,39
 679 346 679 346 688 464 c 0,40,41
 691 495 691 495 691 522 c 2,42,-1
 691 548 l 1,43,-1
 688 548 l 1,44,-1
 684 690 l 2,45,46
 681 802 681 802 680.5 916 c 128,-1,47
 680 1030 680 1030 679.5 1189 c 128,-1,48
 679 1348 679 1348 684 1495 c 1,49,-1
 683 1496 l 1,50,51
 683 1504 683 1504 689 1508 c 1,52,-1
 702 1510 l 1,53,-1
 751 1509 l 1,54,-1
 1117 1509 l 1,55,-1
 1190 1510 l 1,56,-1
 1288 1510 l 2,57,58
 1295 1510 1295 1510 1300 1501 c 1,59,60
 1298 1484 1298 1484 1298 1466 c 2,61,-1
 1298 1418 l 1,0,-1
EndSplineSet
EndChar

StartChar: K
Encoding: 75 75 46
Width: 1646
GlyphClass: 2
Flags: W
LayerCount: 2
Fore
SplineSet
1627 1501 m 1,0,1
 1341 985 1341 985 1222 788 c 1,2,-1
 1245 751 l 1,3,4
 1297 687 1297 687 1416 475 c 128,-1,5
 1535 263 1535 263 1624 119 c 2,6,-1
 1648 80 l 1,7,8
 1692 11 1692 11 1692 -1 c 128,-1,9
 1692 -13 1692 -13 1686 -21 c 1,10,-1
 1680 -21 l 1,11,12
 1638 -19 1638 -19 1589.5 -19 c 128,-1,13
 1541 -19 1541 -19 1499 -21 c 1,14,-1
 1050 -21 l 1,15,16
 885 290 885 290 730 604 c 1,17,18
 714 455 714 455 706 226 c 1,19,-1
 706 213 l 1,20,-1
 708 -14 l 1,21,22
 695 -32 695 -32 603 -32 c 1,23,-1
 582 -31 l 1,24,-1
 528 -31 l 1,25,-1
 378 -32 l 1,26,-1
 245 -33 l 1,27,-1
 153 -33 l 2,28,29
 124 -33 124 -33 113 -12 c 1,30,-1
 110 -9 l 1,31,-1
 110 143 l 1,32,-1
 112 300 l 1,33,-1
 112 865 l 1,34,-1
 115 1360 l 1,35,-1
 112 1446 l 1,36,37
 112 1502 112 1502 123 1514 c 1,38,39
 143 1515 143 1515 158 1515 c 0,40,41
 216 1515 216 1515 265 1515 c 128,-1,42
 314 1515 314 1515 356 1514 c 2,43,-1
 497 1512 l 1,44,45
 527 1515 527 1515 605.5 1515 c 128,-1,46
 684 1515 684 1515 704 1495 c 1,47,48
 699 1250 699 1250 699 915 c 1,49,-1
 734 909 l 1,50,51
 753 959 753 959 782 1013 c 128,-1,52
 811 1067 811 1067 834 1117 c 2,53,-1
 845 1141 l 2,54,55
 867 1189 867 1189 888.5 1232.5 c 128,-1,56
 910 1276 910 1276 924.5 1313 c 128,-1,57
 939 1350 939 1350 949.5 1374.5 c 128,-1,58
 960 1399 960 1399 972 1424 c 0,59,60
 1000 1481 1000 1481 1021 1507 c 1,61,62
 1074 1508 1074 1508 1120 1508 c 2,63,-1
 1221 1508 l 2,64,65
 1327 1508 1327 1508 1425.5 1504.5 c 128,-1,66
 1524 1501 1524 1501 1627 1501 c 1,0,1
EndSplineSet
EndChar

StartChar: L
Encoding: 76 76 47
Width: 1265
GlyphClass: 2
Flags: W
LayerCount: 2
Fore
SplineSet
1269 380 m 1,0,1
 1263 364 1263 364 1263 324 c 2,2,-1
 1263 301 l 2,3,4
 1263 249 1263 249 1270 225 c 1,5,-1
 1270 107 l 2,6,7
 1270 52 1270 52 1269 -8 c 1,8,9
 1265 -29 1265 -29 692 -32 c 0,10,11
 608 -33 608 -33 531 -33.5 c 128,-1,12
 454 -34 454 -34 390 -34 c 2,13,-1
 282 -34 l 2,14,15
 211 -34 211 -34 133 -32 c 1,16,17
 117 -3 117 -3 117 67 c 1,18,-1
 119 132 l 1,19,-1
 119 359 l 1,20,-1
 120 549 l 1,21,-1
 120 737 l 1,22,-1
 121 1040 l 1,23,-1
 121 1110 l 2,24,25
 121 1142 121 1142 119 1198 c 1,26,-1
 119 1209 l 1,27,-1
 116 1353 l 1,28,29
 116 1482 116 1482 137 1518 c 1,30,31
 152 1517 152 1517 164 1517 c 2,32,-1
 240 1517 l 1,33,-1
 408 1519 l 1,34,35
 695 1519 695 1519 724 1483 c 1,36,-1
 716 1134 l 1,37,-1
 713 841 l 1,38,-1
 712 829 l 1,39,-1
 708 413 l 1,40,-1
 748 390 l 1,41,42
 928 401 928 401 1067 401 c 128,-1,43
 1206 401 1206 401 1237 398 c 128,-1,44
 1268 395 1268 395 1270 384 c 1,45,46
 1269 383 1269 383 1269 381 c 2,47,-1
 1269 380 l 1,0,1
EndSplineSet
EndChar

StartChar: M
Encoding: 77 77 48
Width: 2193
GlyphClass: 2
Flags: W
LayerCount: 2
Fore
SplineSet
1943 1512 m 1,0,-1
 1982 1511 l 1,1,-1
 2094 1511 l 1,2,3
 2102 1508 2102 1508 2104 1474 c 1,4,-1
 2114 1096 l 2,5,6
 2120 890 2120 890 2131 364 c 1,7,8
 2131 163 2131 163 2125 -15 c 1,9,10
 2123 -25 2123 -25 2111.5 -26.5 c 128,-1,11
 2100 -28 2100 -28 2085 -29 c 2,12,-1
 2040 -31 l 2,13,14
 2000 -33 2000 -33 1960 -33 c 2,15,-1
 1908 -33 l 1,16,17
 1835 -34 1835 -34 1764 -34 c 2,18,-1
 1622 -34 l 1,19,20
 1587 -4 1587 -4 1587 234 c 1,21,-1
 1589 548 l 1,22,-1
 1589 706 l 2,23,24
 1589 749 1589 749 1588 787 c 1,25,-1
 1550 794 l 1,26,27
 1512 655 1512 655 1423 255 c 2,28,-1
 1414 215 l 2,29,30
 1401 158 1401 158 1389.5 99.5 c 128,-1,31
 1378 41 1378 41 1364 -16 c 1,32,33
 1350 -30 1350 -30 1312 -30 c 2,34,-1
 1245 -30 l 1,35,-1
 1133 -27 l 1,36,-1
 1072 -28 l 1,37,-1
 1025 -28 l 1,38,39
 1025 -28 1025 -28 946 -29 c 1,40,-1
 922 -29 l 2,41,42
 874 -29 874 -29 867 -8 c 1,43,-1
 868 -9 l 1,44,-1
 777 388 l 2,45,46
 768 426 768 426 756.5 463 c 128,-1,47
 745 500 745 500 743 538 c 1,48,-1
 668 862 l 1,49,-1
 631 860 l 1,50,51
 619 560 619 560 619 435 c 2,52,-1
 619 166 l 1,53,-1
 620 -18 l 2,54,55
 620 -20 620 -20 619 -20 c 2,56,-1
 546 -20 l 1,57,-1
 521 -19 l 1,58,-1
 166 -22 l 1,59,-1
 142 -22 l 2,60,61
 132 -22 132 -22 130 -23 c 1,62,63
 130 -18 130 -18 134 -6 c 1,64,-1
 134 0 l 1,65,-1
 135 4 l 1,66,67
 130 84 130 84 130 179 c 2,68,-1
 134 1296 l 1,69,-1
 133 1348 l 1,70,-1
 133 1398 l 1,71,-1
 131 1492 l 2,72,73
 131 1502 131 1502 142 1513 c 1,74,-1
 279 1513 l 1,75,-1
 359 1514 l 1,76,77
 674 1514 674 1514 756 1507 c 0,78,79
 862 1498 862 1498 937 1498 c 1,80,81
 957 1376 957 1376 1023 1042 c 2,82,-1
 1094 684 l 1,83,-1
 1129 684 l 1,84,-1
 1256 1333 l 1,85,-1
 1258 1348 l 1,86,87
 1262 1370 1262 1370 1266.5 1398.5 c 128,-1,88
 1271 1427 1271 1427 1274 1448 c 0,89,90
 1283 1499 1283 1499 1288 1506 c 1,91,-1
 1292 1506 l 1,92,-1
 1943 1512 l 1,0,-1
EndSplineSet
EndChar

StartChar: N
Encoding: 78 78 49
Width: 1727
GlyphClass: 2
Flags: W
LayerCount: 2
Fore
SplineSet
1627 700 m 1,0,-1
 1626 633 l 1,1,-1
 1626 263 l 1,2,-1
 1628 87 l 1,3,-1
 1628 37 l 1,4,5
 1628 37 1628 37 1629 -10 c 1,6,7
 1623 -18 1623 -18 1580 -18 c 2,8,-1
 1554 -18 l 1,9,-1
 1240 -22 l 1,10,-1
 1089 -22 l 2,11,12
 1016 -22 1016 -22 942 -21 c 1,13,14
 927 -6 927 -6 883 123.5 c 128,-1,15
 839 253 839 253 833 270 c 2,16,-1
 642 777 l 1,17,-1
 606 772 l 1,18,-1
 605 670 l 1,19,-1
 605 399 l 1,20,-1
 609 128 l 1,21,-1
 609 16 l 2,22,23
 609 -1 609 -1 607 -15 c 128,-1,24
 605 -29 605 -29 589 -31 c 1,25,26
 490 -28 490 -28 400 -28 c 2,27,-1
 369 -28 l 1,28,-1
 218 -32 l 1,29,-1
 198 -32 l 1,30,-1
 126 -34 l 1,31,32
 123 -32 123 -32 106.5 -15.5 c 128,-1,33
 90 1 90 1 90 13 c 2,34,-1
 90 31 l 1,35,-1
 91 51 l 1,36,-1
 96 441 l 1,37,38
 96 1081 96 1081 108 1412 c 1,39,-1
 110 1495 l 2,40,41
 110 1501 110 1501 292.5 1504 c 128,-1,42
 475 1507 475 1507 535 1508 c 128,-1,43
 595 1509 595 1509 647 1509.5 c 128,-1,44
 699 1510 699 1510 739 1510.5 c 128,-1,45
 779 1511 779 1511 799 1511 c 1,46,47
 804 1508 804 1508 808 1495 c 128,-1,48
 812 1482 812 1482 817 1467 c 1,49,-1
 817 1470 l 1,50,-1
 823 1450 l 1,51,52
 920 1175 920 1175 1004.5 959.5 c 128,-1,53
 1089 744 1089 744 1111 683 c 1,54,-1
 1145 685 l 1,55,-1
 1149 1500 l 2,56,57
 1149 1508 1149 1508 1295 1508 c 1,58,-1
 1546 1503 l 1,59,-1
 1620 1503 l 1,60,61
 1627 1128 1627 1128 1627 700 c 1,0,-1
EndSplineSet
EndChar

StartChar: O
Encoding: 79 79 50
Width: 1645
GlyphClass: 2
Flags: W
LayerCount: 2
Fore
SplineSet
1048 788 m 0,0,1
 1048 1178 1048 1178 833 1178 c 0,2,3
 657 1178 657 1178 626 932 c 0,4,5
 618 868 618 868 614 811 c 2,6,-1
 610 760 l 1,7,-1
 609 755 l 1,8,-1
 609 752 l 1,9,10
 605 720 605 720 605 667 c 128,-1,11
 605 614 605 614 612.5 549.5 c 128,-1,12
 620 485 620 485 642 430 c 0,13,14
 693 304 693 304 802 299 c 1,15,16
 965 299 965 299 1015 458 c 0,17,18
 1043 547 1043 547 1045.5 639 c 128,-1,19
 1048 731 1048 731 1048 788 c 0,0,1
35 752 m 1,20,-1
 37 774 l 1,21,22
 52 955 52 955 80.5 1042 c 128,-1,23
 109 1129 109 1129 149 1200.5 c 128,-1,24
 189 1272 189 1272 267 1342.5 c 128,-1,25
 345 1413 345 1413 438 1460 c 0,26,27
 624 1552 624 1552 857 1552 c 0,28,29
 1105 1552 1105 1552 1296 1437 c 0,30,31
 1368 1394 1368 1394 1417 1329 c 1,32,33
 1503 1221 1503 1221 1531 1158.5 c 128,-1,34
 1559 1096 1559 1096 1569.5 1061 c 128,-1,35
 1580 1026 1580 1026 1587 990 c 128,-1,36
 1594 954 1594 954 1598 917 c 0,37,38
 1608 839 1608 839 1608 768.5 c 128,-1,39
 1608 698 1608 698 1600.5 622.5 c 128,-1,40
 1593 547 1593 547 1576 478 c 0,41,42
 1538 329 1538 329 1460 230 c 1,43,-1
 1414 169 l 1,44,45
 1322 62 1322 62 1140 -1 c 0,46,47
 981 -56 981 -56 831 -57 c 128,-1,48
 681 -58 681 -58 565 -32 c 128,-1,49
 449 -6 449 -6 350 58.5 c 128,-1,50
 251 123 251 123 190.5 203 c 128,-1,51
 130 283 130 283 96 374 c 0,52,53
 35 534 35 534 35 752 c 1,20,-1
EndSplineSet
EndChar

StartChar: P
Encoding: 80 80 51
Width: 1527
GlyphClass: 2
Flags: W
LayerCount: 2
Fore
SplineSet
117 661 m 1,0,-1
 119 1072 l 1,1,-1
 119 1489 l 1,2,3
 121 1490 121 1490 132 1490 c 0,4,5
 158 1490 158 1490 178 1490 c 128,-1,6
 198 1490 198 1490 207 1492 c 1,7,-1
 331 1497 l 2,8,9
 367 1499 367 1499 405 1499 c 2,10,-1
 564 1499 l 1,11,-1
 858 1506 l 1,12,13
 910 1506 910 1506 990 1501 c 1,14,-1
 997 1501 l 1,15,16
 1023 1503 1023 1503 1040 1503 c 0,17,18
 1245 1503 1245 1503 1382 1375 c 0,19,20
 1531 1236 1531 1236 1531 1005 c 0,21,22
 1531 722 1531 722 1325 598 c 0,23,24
 1175 508 1175 508 945 488 c 1,25,-1
 729 479 l 1,26,27
 719 252 719 252 719 106 c 1,28,-1
 720 75 l 1,29,-1
 720 -6 l 1,30,31
 716 -20 716 -20 705 -25 c 1,32,-1
 134 -34 l 1,33,34
 117 12 117 12 117 120 c 2,35,-1
 117 661 l 1,0,-1
711 1203 m 0,36,37
 696 1203 696 1203 696 908 c 1,38,-1
 694 833 l 1,39,-1
 697 773 l 1,40,41
 907 777 907 777 980 894 c 0,42,43
 1007 938 1007 938 1007 986 c 0,44,45
 1007 1062 1007 1062 992 1090 c 1,46,47
 951 1194 951 1194 795 1201 c 0,48,49
 752 1203 752 1203 711 1203 c 0,36,37
EndSplineSet
EndChar

StartChar: Q
Encoding: 81 81 52
Width: 1642
GlyphClass: 2
Flags: W
LayerCount: 2
Fore
SplineSet
1529 366 m 1,0,-1
 1594 368 l 1,1,2
 1662 365 1662 365 1662 324 c 1,3,-1
 1661 313 l 1,4,-1
 1661 303 l 1,5,6
 1660 298 1660 298 1660 290 c 2,7,-1
 1660 242 l 1,8,-1
 1661 229 l 1,9,-1
 1662 132 l 1,10,-1
 1661 106 l 1,11,-1
 1661 57 l 1,12,-1
 1660 22 l 1,13,-1
 1661 5 l 1,14,-1
 1661 -23 l 1,15,16
 1657 -37 1657 -37 1638 -46 c 1,17,18
 1518 -30 1518 -30 1399 -30 c 128,-1,19
 1280 -30 1280 -30 1209.5 -36.5 c 128,-1,20
 1139 -43 1139 -43 1071 -50 c 0,21,22
 894 -70 894 -70 793 -70 c 128,-1,23
 692 -70 692 -70 601.5 -47.5 c 128,-1,24
 511 -25 511 -25 438 17 c 0,25,26
 300 96 300 96 199 251 c 1,27,28
 186 251 186 251 186 249 c 1,29,-1
 172 263 l 1,30,31
 49 455 49 455 49 747 c 0,32,33
 49 1024 49 1024 170 1216 c 0,34,35
 278 1386 278 1386 474 1474 c 0,36,37
 650 1552 650 1552 848.5 1552 c 128,-1,38
 1047 1552 1047 1552 1186 1493 c 128,-1,39
 1325 1434 1325 1434 1421 1330 c 0,40,41
 1617 1119 1617 1119 1617 787 c 0,42,43
 1617 628 1617 628 1534 464 c 0,44,45
 1507 412 1507 412 1474 366 c 1,46,-1
 1529 366 l 1,0,-1
816 288 m 1,47,-1
 828 289 l 1,48,-1
 846 289 l 1,49,-1
 866 287 l 1,50,51
 1028 287 1028 287 1043 592 c 0,52,53
 1045 632 1045 632 1046 664 c 1,54,-1
 1046 682 l 1,55,-1
 1049 812 l 1,56,57
 1049 1048 1049 1048 976 1136 c 0,58,59
 924 1199 924 1199 833 1199 c 0,60,61
 666 1199 666 1199 620 932 c 0,62,63
 605 845 605 845 605 767 c 128,-1,64
 605 689 605 689 606 641.5 c 128,-1,65
 607 594 607 594 613 545.5 c 128,-1,66
 619 497 619 497 632 450.5 c 128,-1,67
 645 404 645 404 668 368 c 0,68,69
 721 288 721 288 816 288 c 1,47,-1
EndSplineSet
EndChar

StartChar: R
Encoding: 82 82 53
Width: 1561
GlyphClass: 2
Flags: W
LayerCount: 2
Fore
SplineSet
559 1504 m 1,0,-1
 880 1507 l 2,1,2
 971 1507 971 1507 1065 1503 c 1,3,4
 1289 1497 1289 1497 1405 1397 c 128,-1,5
 1521 1297 1521 1297 1521 1119 c 0,6,7
 1521 935 1521 935 1355 819 c 0,8,9
 1302 782 1302 782 1235 750 c 1,10,11
 1427 690 1427 690 1484 494 c 1,12,13
 1513 399 1513 399 1519.5 308.5 c 128,-1,14
 1526 218 1526 218 1532 173 c 1,15,-1
 1542 122 l 1,16,17
 1558 33 1558 33 1570 -8 c 1,18,-1
 1566 -11 l 1,19,20
 1291 -29 1291 -29 1007 -17 c 1,21,-1
 1001 -17 l 2,22,23
 970 -17 970 -17 935 278 c 2,24,-1
 930 321 l 1,25,26
 926 432 926 432 890 470 c 1,27,28
 851 513 851 513 759 506 c 1,29,-1
 706 506 l 1,30,-1
 706 202 l 1,31,-1
 707 170 l 1,32,-1
 707 -13 l 1,33,34
 704 -23 704 -23 692 -25 c 1,35,36
 547 -30 547 -30 404.5 -29 c 128,-1,37
 262 -28 262 -28 117 -30 c 1,38,-1
 111 -28 l 2,39,40
 110 -28 110 -28 108.5 -28.5 c 128,-1,41
 107 -29 107 -29 103 -26 c 1,42,-1
 105 64 l 1,43,44
 105 64 105 64 104 94 c 1,45,-1
 108 509 l 1,46,-1
 108 582 l 1,47,-1
 109 657 l 1,48,-1
 110 916 l 1,49,-1
 111 950 l 1,50,-1
 108 1177 l 1,51,-1
 112 1496 l 2,52,53
 112 1504 112 1504 169 1504 c 2,54,-1
 233 1503 l 1,55,-1
 294 1503 l 1,56,-1
 421 1502 l 1,57,-1
 559 1504 l 1,0,-1
1571 -8 m 1,58,-1
 1571 -6 l 2,59,60
 1571 -5 1571 -5 1576 -5 c 1,61,-1
 1571 -8 l 1,58,-1
1571 -8 m 1,62,-1
 1570 -8 l 1,63,-1
 1571 -9 l 1,64,-1
 1571 -8 l 1,62,-1
711 1204 m 1,65,66
 700 1189 700 1189 700 1122 c 2,67,-1
 700 967 l 2,68,69
 700 878 700 878 705 831 c 1,70,71
 835 834 835 834 896.5 865.5 c 128,-1,72
 958 897 958 897 988 938.5 c 128,-1,73
 1018 980 1018 980 1018 1040.5 c 128,-1,74
 1018 1101 1018 1101 992 1131 c 128,-1,75
 966 1161 966 1161 928 1178 c 0,76,77
 871 1204 871 1204 769 1204 c 2,78,-1
 711 1204 l 1,65,66
EndSplineSet
EndChar

StartChar: S
Encoding: 83 83 54
Width: 1484
GlyphClass: 2
Flags: W
LayerCount: 2
Fore
SplineSet
62 413 m 2,0,-1
 591 422 l 2,1,2
 609 422 609 422 620 397 c 128,-1,3
 631 372 631 372 639.5 354 c 128,-1,4
 648 336 648 336 663 321 c 0,5,6
 698 286 698 286 766 286 c 0,7,8
 861 286 861 286 900 356 c 0,9,10
 913 380 913 380 913 413 c 128,-1,11
 913 446 913 446 893 469 c 0,12,13
 856 512 856 512 795.5 527 c 128,-1,14
 735 542 735 542 714 547 c 128,-1,15
 693 552 693 552 682.5 553 c 128,-1,16
 672 554 672 554 664 557 c 1,17,-1
 666 557 l 1,18,-1
 609 572 l 1,19,20
 548 584 548 584 473.5 604.5 c 128,-1,21
 399 625 399 625 314 664 c 128,-1,22
 229 703 229 703 174 754 c 1,23,24
 65 852 65 852 65 1016 c 0,25,26
 65 1209 65 1209 178 1340 c 1,27,28
 324 1507 324 1507 620 1546 c 0,29,30
 706 1558 706 1558 776 1558 c 128,-1,31
 846 1558 846 1558 906 1552.5 c 128,-1,32
 966 1547 966 1547 1025 1535 c 0,33,34
 1154 1509 1154 1509 1241 1454 c 1,35,-1
 1240 1454 l 1,36,37
 1389 1345 1389 1345 1418 1214 c 0,38,39
 1428 1172 1428 1172 1433 1123 c 1,40,-1
 1407 1097 l 1,41,42
 1348 1095 1348 1095 1291 1093 c 128,-1,43
 1234 1091 1234 1091 1177 1090 c 0,44,45
 1082 1087 1082 1087 996 1087 c 128,-1,46
 910 1087 910 1087 895.5 1094.5 c 128,-1,47
 881 1102 881 1102 874 1113.5 c 128,-1,48
 867 1125 867 1125 863 1138 c 128,-1,49
 859 1151 859 1151 850 1162 c 0,50,51
 829 1189 829 1189 767 1189 c 2,52,-1
 763 1189 l 2,53,54
 688 1189 688 1189 639 1145 c 0,55,56
 620 1128 620 1128 619.5 1102 c 128,-1,57
 619 1076 619 1076 634.5 1058 c 128,-1,58
 650 1040 650 1040 674 1028 c 0,59,60
 709 1009 709 1009 778 992 c 2,61,-1
 813 983 l 1,62,63
 847 973 847 973 911 958 c 0,64,65
 1033 931 1033 931 1105 907 c 1,66,-1
 1105 908 l 1,67,68
 1279 848 1279 848 1364 762 c 1,69,70
 1473 654 1473 654 1473 478 c 0,71,72
 1473 191 1473 191 1221 60 c 0,73,74
 1038 -36 1038 -36 736 -63 c 1,75,76
 460 -63 460 -63 276 32 c 0,77,78
 171 87 171 87 131 167 c 1,79,80
 74 247 74 247 61 344 c 0,81,82
 57 375 57 375 53 414 c 1,83,84
 56 413 56 413 62 413 c 2,0,-1
EndSplineSet
EndChar

StartChar: T
Encoding: 84 84 55
Width: 1318
GlyphClass: 2
Flags: W
LayerCount: 2
Fore
SplineSet
1337 1135 m 2,0,1
 1337 1102 1337 1102 1330 1102 c 2,2,3
 1330 1102 1330 1102 968 1105 c 1,4,5
 966 1032 966 1032 966 952 c 2,6,7
 966 952 966 952 966 661 c 1,8,-1
 971 -14 l 1,9,10
 966 -28 966 -28 951 -29 c 1,11,-1
 740 -26 l 1,12,-1
 739 -27 l 1,13,-1
 673 -26 l 1,14,15
 554 -26 554 -26 480.5 -26 c 128,-1,16
 407 -26 407 -26 379 -27 c 1,17,-1
 362 -12 l 2,18,19
 357 -7 357 -7 354.5 -3.5 c 128,-1,20
 352 0 352 0 349 4 c 1,21,22
 349 104 349 104 351.5 200.5 c 128,-1,23
 354 297 354 297 356 395 c 2,24,-1
 367 927 l 1,25,-1
 365 952 l 2,26,27
 358 1051 358 1051 352 1067 c 0,28,29
 342 1091 342 1091 298 1091 c 1,30,-1
 258 1089 l 1,31,-1
 10 1093 l 1,32,33
 -3 1119 -3 1119 -3 1210 c 1,34,-1
 -1 1298 l 1,35,-1
 -1 1325 l 1,36,37
 -2 1370 -2 1370 -2.5 1403.5 c 128,-1,38
 -3 1437 -3 1437 -3 1464 c 128,-1,39
 -3 1491 -3 1491 -4 1496 c 1,40,-1
 -2 1496 l 1,41,-1
 4 1494 l 1,42,-1
 1277 1505 l 2,43,44
 1330 1505 1330 1505 1334 1491 c 0,45,46
 1336 1486 1336 1486 1336 1479 c 2,47,-1
 1336 1215 l 1,48,-1
 1337 1135 l 2,0,1
EndSplineSet
EndChar

StartChar: U
Encoding: 85 85 56
Width: 1615
GlyphClass: 2
Flags: W
LayerCount: 2
Fore
SplineSet
1546 775 m 1,0,-1
 1543 494 l 1,1,2
 1543 100 1543 100 1170 -16 c 0,3,4
 1024 -62 1024 -62 833 -62 c 0,5,6
 430 -62 430 -62 236 160 c 1,7,8
 121 290 121 290 104 493 c 1,9,10
 109 966 109 966 109 1266 c 1,11,12
 104 1314 104 1314 104 1395 c 128,-1,13
 104 1476 104 1476 113 1501 c 1,14,-1
 134 1501 l 1,15,16
 289 1509 289 1509 535 1509 c 1,17,18
 555 1504 555 1504 584 1504 c 0,19,20
 642 1504 642 1504 666 1501 c 2,21,-1
 697 1497 l 1,22,23
 701 1394 701 1394 702.5 1274 c 128,-1,24
 704 1154 704 1154 705 1082 c 128,-1,25
 706 1010 706 1010 706 952 c 2,26,-1
 700 550 l 1,27,28
 700 350 700 350 816 350 c 0,29,30
 864 350 864 350 900 394 c 1,31,32
 932 435 932 435 934 490 c 1,33,-1
 938 500 l 1,34,-1
 941 837 l 1,35,-1
 942 867 l 1,36,37
 942 1097 942 1097 936 1315 c 2,38,-1
 934 1388 l 1,39,40
 932 1422 932 1422 932 1462 c 128,-1,41
 932 1502 932 1502 943 1515 c 1,42,43
 1305 1515 1305 1515 1525 1512 c 1,44,-1
 1533 1504 l 1,45,-1
 1542 1499 l 1,46,-1
 1553 1492 l 1,47,48
 1545 1294 1545 1294 1545 1006 c 2,49,-1
 1545 834 l 1,50,-1
 1546 775 l 1,0,-1
EndSplineSet
EndChar

StartChar: V
Encoding: 86 86 57
Width: 1555
GlyphClass: 2
Flags: W
LayerCount: 2
Fore
SplineSet
1068 -25 m 1,0,-1
 942 -22 l 1,1,-1
 867 -22 l 1,2,3
 831 -26 831 -26 740.5 -26 c 128,-1,4
 650 -26 650 -26 412 -31 c 1,5,6
 375 0 375 0 329 224 c 0,7,8
 302 352 302 352 253 515 c 128,-1,9
 204 678 204 678 187 738 c 2,10,-1
 157 844 l 2,11,12
 134 923 134 923 109.5 1006 c 128,-1,13
 85 1089 85 1089 62 1173 c 0,14,15
 4 1380 4 1380 -21 1500 c 1,16,17
 -21 1508 -21 1508 260 1508 c 2,18,-1
 565 1508 l 2,19,20
 584 1508 584 1508 593 1495 c 1,21,22
 614 1373 614 1373 636 1244.5 c 128,-1,23
 658 1116 658 1116 680.5 985.5 c 128,-1,24
 703 855 703 855 726 726 c 128,-1,25
 749 597 749 597 771 473 c 1,26,-1
 779 420 l 1,27,-1
 819 420 l 1,28,-1
 828 472 l 1,29,30
 862 684 862 684 946 1101 c 1,31,-1
 970 1214 l 2,32,33
 985 1284 985 1284 998 1356.5 c 128,-1,34
 1011 1429 1011 1429 1025 1498 c 1,35,36
 1061 1510 1061 1510 1275 1510 c 2,37,-1
 1579 1510 l 1,38,39
 1591 1503 1591 1503 1594 1497 c 1,40,-1
 1393 770 l 2,41,42
 1374 704 1374 704 1367 669 c 1,43,-1
 1320 485 l 1,44,45
 1208 5 1208 5 1158 -27 c 1,46,47
 1117 -27 1117 -27 1073 -25 c 1,48,-1
 1068 -25 l 1,0,-1
EndSplineSet
EndChar

StartChar: W
Encoding: 87 87 58
Width: 2130
GlyphClass: 2
Flags: W
LayerCount: 2
Fore
SplineSet
815 1506 m 2,0,-1
 989 1507 l 1,1,-1
 1378 1507 l 2,2,3
 1382 1507 1382 1507 1384 1505 c 1,4,-1
 1420 1271 l 1,5,6
 1429 1205 1429 1205 1440 1132 c 128,-1,7
 1451 1059 1451 1059 1462 985.5 c 128,-1,8
 1473 912 1473 912 1484.5 840 c 128,-1,9
 1496 768 1496 768 1505 704 c 2,10,-1
 1513 650 l 1,11,-1
 1551 650 l 1,12,13
 1577 945 1577 945 1649 1411 c 1,14,-1
 1653 1434 l 2,15,16
 1655 1448 1655 1448 1654.5 1462 c 128,-1,17
 1654 1476 1654 1476 1658 1487 c 0,18,19
 1668 1511 1668 1511 1739 1511 c 128,-1,20
 1810 1511 1810 1511 1890.5 1508.5 c 128,-1,21
 1971 1506 1971 1506 2032 1503 c 0,22,23
 2111 1499 2111 1499 2185 1493 c 1,24,25
 2188 1490 2188 1490 2193 1470 c 1,26,27
 2156 1299 2156 1299 2114 1122 c 128,-1,28
 2072 945 2072 945 2032 760 c 2,29,-1
 2024 723 l 2,30,31
 2019 704 2019 704 2010 682.5 c 128,-1,32
 2001 661 2001 661 2002 645 c 1,33,-1
 1932 328 l 1,34,-1
 1900 171 l 2,35,36
 1874 47 1874 47 1863 -20 c 1,37,-1
 1858 -18 l 1,38,39
 1787 -22 1787 -22 1645 -22 c 2,40,-1
 1489 -22 l 1,41,-1
 1435 -21 l 1,42,43
 1335 -21 1335 -21 1229 -25 c 0,44,45
 1221 -25 1221 -25 1209 69.5 c 128,-1,46
 1197 164 1197 164 1192 200 c 128,-1,47
 1187 236 1187 236 1183.5 264 c 128,-1,48
 1180 292 1180 292 1178 302 c 2,49,-1
 1169 352 l 1,50,51
 1140 538 1140 538 1105 795 c 1,52,-1
 1068 796 l 1,53,54
 1017 531 1017 531 996.5 348 c 128,-1,55
 976 165 976 165 970.5 114 c 128,-1,56
 965 63 965 63 962 43 c 128,-1,57
 959 23 959 23 954 6 c 0,58,59
 943 -31 943 -31 924 -33 c 1,60,61
 762 -28 762 -28 638.5 -28 c 128,-1,62
 515 -28 515 -28 303 -35 c 1,63,64
 278 -15 278 -15 270 27 c 128,-1,65
 262 69 262 69 259 86 c 2,66,-1
 253 125 l 1,67,68
 218 310 218 310 176.5 496.5 c 128,-1,69
 135 683 135 683 95 869 c 2,70,-1
 74 966 l 2,71,72
 46 1096 46 1096 15.5 1234 c 128,-1,73
 -15 1372 -15 1372 -41 1500 c 1,74,75
 -40 1508 -40 1508 -27 1514 c 1,76,77
 -5 1511 -5 1511 22 1511 c 2,78,-1
 34 1511 l 1,79,-1
 129 1514 l 1,80,-1
 267 1517 l 1,81,82
 330 1517 330 1517 372 1514 c 1,83,-1
 435 1514 l 2,84,85
 450 1514 450 1514 468 1512 c 1,86,-1
 482 1512 l 2,87,88
 514 1512 514 1512 579 948 c 0,89,90
 598 788 598 788 603 748 c 2,91,-1
 610 691 l 1,92,-1
 649 690 l 1,93,94
 671 827 671 827 691 962 c 128,-1,95
 711 1097 711 1097 721 1168 c 128,-1,96
 731 1239 731 1239 733 1260 c 128,-1,97
 735 1281 735 1281 738 1308 c 128,-1,98
 741 1335 741 1335 745.5 1366 c 128,-1,99
 750 1397 750 1397 756 1425 c 0,100,101
 768 1490 768 1490 780 1507 c 1,102,103
 788 1506 788 1506 797 1506 c 128,-1,104
 806 1506 806 1506 815 1506 c 2,0,-1
EndSplineSet
EndChar

StartChar: X
Encoding: 88 88 59
Width: 1600
GlyphClass: 2
Flags: W
LayerCount: 2
Fore
SplineSet
1632 1488 m 1,0,-1
 1631 1480 l 1,1,-1
 1395 1102 l 1,2,3
 1382 1079 1382 1079 1367.5 1057.5 c 128,-1,4
 1353 1036 1353 1036 1339 1013 c 2,5,-1
 1167 740 l 1,6,-1
 1189 700 l 1,7,-1
 1220 657 l 1,8,-1
 1306 526 l 1,9,-1
 1330 484 l 2,10,11
 1341 466 1341 466 1354 447 c 128,-1,12
 1367 428 1367 428 1378 411 c 1,13,-1
 1378 412 l 1,14,-1
 1558 134 l 1,15,-1
 1558 135 l 1,16,-1
 1648 -8 l 2,17,18
 1651 -11 1651 -11 1651 -15 c 0,19,20
 1651 -28 1651 -28 1601 -32 c 1,21,-1
 1088 -36 l 2,22,23
 1030 -36 1030 -36 1005 -22 c 1,24,25
 995 1 995 1 982.5 25 c 128,-1,26
 970 49 970 49 959 73 c 2,27,-1
 798 410 l 1,28,29
 782 381 782 381 758 332 c 0,30,31
 720 254 720 254 710.5 233 c 128,-1,32
 701 212 701 212 679.5 168.5 c 128,-1,33
 658 125 658 125 637 86 c 0,34,35
 590 -3 590 -3 563 -30 c 1,36,37
 391 -26 391 -26 230 -26 c 1,38,-1
 165 -27 l 1,39,-1
 -22 -27 l 1,40,41
 -27 -25 -27 -25 -27 -17.5 c 128,-1,42
 -27 -10 -27 -10 -18 9.5 c 128,-1,43
 -9 29 -9 29 5 52 c 0,44,45
 49 126 49 126 63 142.5 c 128,-1,46
 77 159 77 159 79 165 c 1,47,-1
 455 754 l 1,48,-1
 363 905 l 1,49,50
 241 1122 241 1122 150 1272 c 2,51,-1
 11 1502 l 2,52,53
 10 1502 10 1502 10 1503 c 2,54,-1
 10 1506 l 1,55,-1
 169 1506 l 2,56,57
 358 1506 358 1506 438 1502 c 128,-1,58
 518 1498 518 1498 551.5 1498 c 128,-1,59
 585 1498 585 1498 622 1499 c 1,60,61
 654 1467 654 1467 709 1338.5 c 128,-1,62
 764 1210 764 1210 779 1174 c 1,63,-1
 794 1134 l 1,64,-1
 828 1067 l 1,65,-1
 859 1137 l 2,66,67
 866 1155 866 1155 880 1186.5 c 128,-1,68
 894 1218 894 1218 910.5 1255.5 c 128,-1,69
 927 1293 927 1293 945.5 1332.5 c 128,-1,70
 964 1372 964 1372 981 1406 c 0,71,72
 1020 1485 1020 1485 1031 1498 c 1,73,-1
 1036 1495 l 1,74,-1
 1150 1499 l 1,75,76
 1462 1511 1462 1511 1623 1511 c 1,77,78
 1632 1506 1632 1506 1632 1488 c 1,0,-1
1648 -8 m 1,79,-1
 1648 -5 l 1,80,-1
 1650 -8 l 1,81,-1
 1648 -8 l 1,79,-1
1648 -5 m 2,82,83
 1647 -4 1647 -4 1647 -2 c 2,84,-1
 1648 -5 l 2,82,83
EndSplineSet
EndChar

StartChar: Y
Encoding: 89 89 60
Width: 1524
GlyphClass: 2
Flags: W
LayerCount: 2
Fore
SplineSet
1530 1507 m 1,0,-1
 1563 1508 l 1,1,2
 1573 1503 1573 1503 1578 1483 c 1,3,-1
 1548 1424 l 1,4,-1
 1548 1425 l 1,5,-1
 1483 1300 l 1,6,7
 1339 1036 1339 1036 1293 937 c 1,8,-1
 1259 872 l 2,9,10
 1182 723 1182 723 1072 498 c 1,11,12
 1070 472 1070 472 1070 446 c 2,13,-1
 1070 -17 l 1,14,15
 1065 -33 1065 -33 1050 -33 c 2,16,-1
 477 -37 l 1,17,18
 455 -9 455 -9 455 27 c 2,19,-1
 457 152 l 1,20,-1
 457 181 l 1,21,-1
 458 211 l 1,22,-1
 459 284 l 1,23,24
 459 500 459 500 350 736 c 0,25,26
 318 804 318 804 285 873 c 1,27,-1
 136 1171 l 1,28,29
 116 1208 116 1208 98 1244 c 0,30,31
 83 1274 83 1274 47 1340 c 1,32,-1
 47 1339 l 1,33,34
 -33 1459 -33 1459 -33 1501 c 0,35,36
 -33 1506 -33 1506 -1 1506 c 2,37,-1
 256 1506 l 2,38,39
 455 1506 455 1506 577 1503 c 1,40,41
 599 1499 599 1499 684 1224 c 0,42,43
 701 1171 701 1171 716 1118.5 c 128,-1,44
 731 1066 731 1066 744 1022 c 2,45,-1
 789 863 l 1,46,47
 849 1016 849 1016 916 1227 c 128,-1,48
 983 1438 983 1438 1004 1501 c 1,49,50
 1004 1509 1004 1509 1065 1509 c 0,51,52
 1190 1509 1190 1509 1262 1509 c 128,-1,53
 1334 1509 1334 1509 1357 1507 c 1,54,-1
 1530 1507 l 1,0,-1
EndSplineSet
EndChar

StartChar: Z
Encoding: 90 90 61
Width: 1395
GlyphClass: 2
Flags: W
LayerCount: 2
Fore
SplineSet
1351 1379 m 1,0,-1
 1348 1179 l 1,1,-1
 1348 1166 l 1,2,3
 1334 1067 1334 1067 1129 844 c 2,4,-1
 1052 760 l 1,5,6
 948 638 948 638 843 510 c 2,7,-1
 729 371 l 1,8,-1
 782 371 l 1,9,-1
 1362 379 l 2,10,11
 1377 379 1377 379 1377 201 c 2,12,-1
 1377 89 l 1,13,14
 1377 89 1377 89 1379 24 c 1,15,16
 1379 -21 1379 -21 1347 -24 c 0,17,18
 1336 -25 1336 -25 1322 -25 c 2,19,-1
 1296 -25 l 1,20,-1
 97 -35 l 2,21,22
 71 -35 71 -35 56.5 -29.5 c 128,-1,23
 42 -24 42 -24 26 -1 c 1,24,-1
 26 84 l 2,25,26
 26 280 26 280 19 339 c 1,27,-1
 35 352 l 1,28,-1
 176 523 l 1,29,30
 233 594 233 594 293 669 c 128,-1,31
 353 744 353 744 414 820 c 0,32,33
 583 1028 583 1028 657 1116 c 1,34,35
 624 1116 624 1116 583 1115.5 c 128,-1,36
 542 1115 542 1115 501 1114.5 c 128,-1,37
 460 1114 460 1114 423 1113.5 c 128,-1,38
 386 1113 386 1113 362 1113 c 2,39,-1
 288 1111 l 2,40,41
 206 1108 206 1108 69 1108 c 1,42,43
 60 1113 60 1113 60 1129 c 2,44,-1
 60 1155 l 2,45,46
 60 1166 60 1166 59 1176 c 1,47,-1
 59 1195 l 1,48,-1
 60 1203 l 1,49,-1
 60 1262 l 1,50,-1
 51 1491 l 1,51,-1
 51 1495 l 2,52,53
 51 1496 51 1496 52 1497 c 1,54,55
 54 1497 54 1497 61 1493 c 1,56,57
 470 1493 470 1493 1070 1503 c 1,58,-1
 1287 1506 l 2,59,60
 1336 1506 1336 1506 1348 1477 c 0,61,62
 1353 1465 1353 1465 1353 1445 c 2,63,-1
 1351 1389 l 1,64,-1
 1351 1379 l 1,0,-1
EndSplineSet
EndChar

StartChar: bracketleft
Encoding: 91 91 62
Width: 1035
GlyphClass: 2
Flags: W
LayerCount: 2
Fore
SplineSet
380 1529 m 1,0,-1
 876 1537 l 1,1,2
 944 1537 944 1537 968 1504 c 0,3,4
 988 1477 988 1477 988 1403 c 2,5,-1
 987 1285 l 2,6,7
 987 1206 987 1206 985 1194 c 1,8,9
 941 1192 941 1192 862.5 1192 c 128,-1,10
 784 1192 784 1192 647 1204 c 1,11,12
 641 730 641 730 641 457 c 128,-1,13
 641 184 641 184 646 27 c 1,14,-1
 936 31 l 1,15,-1
 973 31 l 1,16,17
 992 12 992 12 992 -112 c 1,18,-1
 990 -212 l 1,19,-1
 990 -237 l 1,20,-1
 992 -266 l 1,21,22
 992 -327 992 -327 969 -330 c 1,23,-1
 210 -339 l 1,24,25
 181 -308 181 -308 176.5 -288 c 128,-1,26
 172 -268 172 -268 172 -246 c 2,27,-1
 174 -189 l 1,28,-1
 174 -112 l 1,29,-1
 175 -85 l 1,30,-1
 175 49 l 2,31,32
 175 1021 175 1021 198 1523 c 0,33,34
 198 1531 198 1531 228 1531 c 2,35,-1
 342 1529 l 1,36,-1
 380 1529 l 1,0,-1
987 1194 m 1,37,-1
 986 1193 l 1,38,-1
 985 1193 l 1,39,-1
 987 1194 l 1,37,-1
EndSplineSet
EndChar

StartChar: backslash
Encoding: 92 92 63
Width: 809
GlyphClass: 2
Flags: W
LayerCount: 2
Fore
SplineSet
857 -44 m 1,0,1
 857 -53 857 -53 859 -56 c 1,2,3
 859 -72 859 -72 838 -72 c 2,4,-1
 798 -72 l 1,5,-1
 776 -73 l 1,6,-1
 659 -73 l 1,7,8
 659 -73 659 -73 628 -72 c 1,9,10
 593 -72 593 -72 565 -72 c 128,-1,11
 537 -72 537 -72 521 -74 c 1,12,-1
 422 222 l 1,13,14
 136 1089 136 1089 -26 1565 c 1,15,-1
 -20 1569 l 1,16,17
 86 1563 86 1563 158 1563 c 128,-1,18
 230 1563 230 1563 248.5 1563.5 c 128,-1,19
 267 1564 267 1564 268 1564 c 2,20,-1
 267 1556 l 2,21,22
 267 1549 267 1549 268 1544 c 0,23,24
 414 1149 414 1149 540 813 c 1,25,-1
 598 656 l 2,26,27
 663 479 663 479 727.5 306 c 128,-1,28
 792 133 792 133 857 -44 c 1,0,1
EndSplineSet
EndChar

StartChar: bracketright
Encoding: 93 93 64
Width: 1036
GlyphClass: 2
Flags: W
LayerCount: 2
Fore
SplineSet
866 452 m 1,0,-1
 856 -214 l 1,1,-1
 856 -293 l 2,2,3
 856 -315 856 -315 845 -326 c 1,4,5
 769 -330 769 -330 698 -330 c 2,6,-1
 665 -330 l 1,7,-1
 362 -327 l 2,8,9
 292 -326 292 -326 223.5 -326 c 128,-1,10
 155 -326 155 -326 87 -324 c 1,11,12
 79 -321 79 -321 77 -302 c 1,13,-1
 77 -299 l 1,14,15
 72 -142 72 -142 72 -79.5 c 128,-1,16
 72 -17 72 -17 73.5 -5 c 128,-1,17
 75 7 75 7 78 13 c 0,18,19
 82 22 82 22 99 22 c 0,20,21
 150 22 150 22 233.5 22 c 128,-1,22
 317 22 317 22 416 25 c 1,23,-1
 416 140 l 2,24,25
 416 451 416 451 402 1173 c 1,26,-1
 252 1173 l 1,27,-1
 86 1170 l 1,28,29
 69 1187 69 1187 64 1195 c 1,30,-1
 64 1394 l 1,31,-1
 65 1447 l 1,32,-1
 65 1479 l 1,33,-1
 64 1492 l 1,34,35
 64 1534 64 1534 76 1547 c 1,36,-1
 158 1547 l 1,37,-1
 348 1545 l 1,38,-1
 380 1545 l 1,39,-1
 456 1546 l 1,40,-1
 560 1546 l 1,41,-1
 633 1547 l 1,42,-1
 880 1537 l 1,43,-1
 880 1466 l 1,44,-1
 879 1417 l 1,45,-1
 879 1242 l 2,46,47
 879 1088 879 1088 876 935.5 c 128,-1,48
 873 783 873 783 870 628 c 2,49,-1
 866 452 l 1,0,-1
880 1547 m 1,50,-1
 890 1537 l 1,51,-1
 880 1537 l 1,52,-1
 880 1547 l 1,50,-1
EndSplineSet
EndChar

StartChar: asciicircum
Encoding: 94 94 65
Width: 1275
GlyphClass: 2
Flags: W
LayerCount: 2
Fore
SplineSet
1007 756 m 1,0,-1
 904 759 l 1,1,-1
 882 759 l 2,2,3
 863 759 863 759 814 869 c 0,4,5
 803 895 803 895 794 913 c 2,6,-1
 754 995 l 1,7,8
 691 1134 691 1134 647 1218 c 1,9,-1
 439 781 l 2,10,11
 437 779 437 779 434 776.5 c 128,-1,12
 431 774 431 774 429 772 c 1,13,-1
 409 772 l 1,14,-1
 197 770 l 1,15,-1
 170 771 l 2,16,17
 159 771 159 771 155 769 c 1,18,19
 191 849 191 849 230 928.5 c 128,-1,20
 269 1008 269 1008 307 1087 c 2,21,-1
 384 1248 l 2,22,23
 418 1320 418 1320 453 1391.5 c 128,-1,24
 488 1463 488 1463 522 1535 c 1,25,-1
 524 1537 l 1,26,27
 585 1536 585 1536 642 1536 c 0,28,29
 704 1536 704 1536 737.5 1536 c 128,-1,30
 771 1536 771 1536 776 1537 c 1,31,32
 777 1536 777 1536 780 1518 c 1,33,34
 874 1333 874 1333 969 1150 c 128,-1,35
 1064 967 1064 967 1158 782 c 1,36,37
 1146 756 1146 756 1007 756 c 1,0,-1
137 769 m 1,38,-1
 154 768 l 2,39,40
 153 768 153 768 153 767 c 2,41,-1
 151 761 l 1,42,-1
 145 761 l 1,43,-1
 137 769 l 1,38,-1
133 768 m 1,44,-1
 134 771 l 1,45,-1
 137 768 l 1,46,-1
 133 768 l 1,44,-1
154 767 m 1,47,48
 154 762 154 762 151 761 c 1,49,-1
 154 767 l 1,47,48
155 769 m 1,50,-1
 154 768 l 1,51,-1
 155 769 l 1,50,-1
EndSplineSet
EndChar

StartChar: underscore
Encoding: 95 95 66
Width: 1050
GlyphClass: 2
Flags: W
LayerCount: 2
Fore
SplineSet
326 -168 m 1,0,-1
 700 -166 l 1,1,2
 982 -166 982 -166 1016 -170.5 c 128,-1,3
 1050 -175 1050 -175 1059 -181 c 0,4,5
 1076 -192 1076 -192 1075.5 -220.5 c 128,-1,6
 1075 -249 1075 -249 1075 -258.5 c 128,-1,7
 1075 -268 1075 -268 1072 -272 c 1,8,9
 1069 -279 1069 -279 1048 -279 c 2,10,-1
 980 -278 l 1,11,-1
 938 -278 l 1,12,-1
 894 -277 l 1,13,14
 477 -277 477 -277 14 -302 c 1,15,-1
 -9 -272 l 1,16,-1
 -9 -269 l 1,17,18
 -15 -236 -15 -236 -15 -202 c 128,-1,19
 -15 -168 -15 -168 0 -168 c 2,20,-1
 326 -168 l 1,0,-1
1073 -277 m 1,21,-1
 1074 -275 l 1,22,-1
 1091 -286 l 1,23,-1
 1073 -277 l 1,21,-1
EndSplineSet
EndChar

StartChar: grave
Encoding: 96 96 67
Width: 633
GlyphClass: 2
Flags: W
LayerCount: 2
Fore
SplineSet
214 1430 m 1,0,-1
 205 1426 l 1,1,2
 194 1437 194 1437 186.5 1447.5 c 128,-1,3
 179 1458 179 1458 169 1470 c 1,4,-1
 169 1469 l 1,5,-1
 138 1507 l 1,6,7
 51 1611 51 1611 13.5 1649.5 c 128,-1,8
 -24 1688 -24 1688 -44.5 1709 c 128,-1,9
 -65 1730 -65 1730 -81 1749 c 0,10,11
 -117 1792 -117 1792 -117 1801.5 c 128,-1,12
 -117 1811 -117 1811 -108 1819 c 1,13,14
 94 1801 94 1801 332 1801 c 2,15,-1
 362 1801 l 1,16,-1
 368 1802 l 1,17,18
 388 1788 388 1788 430.5 1715.5 c 128,-1,19
 473 1643 473 1643 491 1613.5 c 128,-1,20
 509 1584 509 1584 524 1558 c 1,21,22
 554 1510 554 1510 563 1499 c 0,23,24
 593 1460 593 1460 593 1445 c 128,-1,25
 593 1430 593 1430 532 1430 c 2,26,-1
 214 1430 l 1,0,-1
EndSplineSet
EndChar

StartChar: a
Encoding: 97 97 68
Width: 1575
GlyphClass: 2
Flags: W
LayerCount: 2
Fore
SplineSet
1476 229 m 2,0,-1
 1475 220 l 1,1,-1
 1475 199 l 2,2,3
 1475 104 1475 104 1504 19 c 1,4,-1
 1514 -3 l 1,5,-1
 1062 -3 l 1,6,-1
 1026 -2 l 1,7,8
 1026 -2 1026 -2 996 -2 c 0,9,10
 981 -2 981 -2 965 -3 c 1,11,12
 936 50 936 50 904 161 c 1,13,14
 881 111 881 111 834 75 c 0,15,16
 821 65 821 65 813 65 c 1,17,18
 667 -6 667 -6 588 -17 c 0,19,20
 561 -21 561 -21 525 -28.5 c 128,-1,21
 489 -36 489 -36 432.5 -36 c 128,-1,22
 376 -36 376 -36 300 -12 c 128,-1,23
 224 12 224 12 165 58 c 0,24,25
 35 159 35 159 35 327 c 0,26,27
 35 569 35 569 261 625 c 0,28,29
 322 640 322 640 485 654 c 2,30,-1
 518 657 l 1,31,-1
 564 664 l 1,32,-1
 574 663 l 1,33,-1
 598 663 l 2,34,35
 633 663 633 663 651 668 c 1,36,-1
 705 675 l 1,37,38
 793 680 793 680 824 700 c 0,39,40
 885 738 885 738 885 830 c 1,41,42
 879 840 879 840 879 858 c 128,-1,43
 879 876 879 876 871.5 894 c 128,-1,44
 864 912 864 912 851 926 c 0,45,46
 823 958 823 958 783 958 c 2,47,-1
 778 958 l 2,48,49
 682 958 682 958 682 795 c 1,50,51
 677 787 677 787 665.5 789 c 128,-1,52
 654 791 654 791 610 791 c 2,53,-1
 94 791 l 1,54,55
 99 864 99 864 125 930 c 128,-1,56
 151 996 151 996 187.5 1038 c 128,-1,57
 224 1080 224 1080 270.5 1111.5 c 128,-1,58
 317 1143 317 1143 370.5 1166 c 128,-1,59
 424 1189 424 1189 480 1204 c 0,60,61
 583 1231 583 1231 695 1235 c 1,62,-1
 755 1238 l 1,63,-1
 787 1241 l 2,64,65
 793 1241 793 1241 799 1238 c 1,66,-1
 812 1238 l 1,67,-1
 857 1240 l 2,68,69
 871 1240 871 1240 887.5 1237.5 c 128,-1,70
 904 1235 904 1235 920 1233 c 2,71,-1
 949 1229 l 2,72,73
 960 1227 960 1227 971 1228 c 128,-1,74
 982 1229 982 1229 994 1227 c 0,75,76
 1428 1170 1428 1170 1466 710 c 0,77,78
 1472 636 1472 636 1472 564 c 1,79,80
 1479 541 1479 541 1479 522 c 1,81,-1
 1474 453 l 1,82,-1
 1474 337 l 1,83,84
 1475 335 1475 335 1475 320 c 2,85,-1
 1473 252 l 1,86,-1
 1473 243 l 1,87,88
 1476 237 1476 237 1476 229 c 2,0,-1
892 432 m 1,89,-1
 893 464 l 1,90,91
 893 513 893 513 885 560 c 1,92,93
 854 543 854 543 819.5 532.5 c 128,-1,94
 785 522 785 522 756 508 c 0,95,96
 688 474 688 474 688 404 c 0,97,98
 688 352 688 352 710 325 c 1,99,100
 747 276 747 276 793 276 c 0,101,102
 816 276 816 276 844.5 289.5 c 128,-1,103
 873 303 873 303 889 330 c 1,104,-1
 891 340 l 1,105,-1
 892 402 l 1,106,-1
 892 432 l 1,89,-1
EndSplineSet
EndChar

StartChar: b
Encoding: 98 98 69
Width: 1524
GlyphClass: 2
Flags: W
LayerCount: 2
Fore
SplineSet
1476 677 m 1,0,-1
 1478 659 l 1,1,-1
 1478 653 l 1,2,-1
 1477 602 l 1,3,4
 1475 430 1475 430 1443 331.5 c 128,-1,5
 1411 233 1411 233 1373 171 c 128,-1,6
 1335 109 1335 109 1278 63 c 0,7,8
 1154 -36 1154 -36 975 -36 c 128,-1,9
 796 -36 796 -36 640 111 c 1,10,-1
 594 79 l 1,11,-1
 551 -5 l 1,12,-1
 39 -5 l 1,13,-1
 38 775 l 1,14,-1
 38 1555 l 1,15,16
 346 1557 346 1557 637 1557 c 1,17,18
 639 1487 639 1487 639 1441 c 2,19,-1
 639 1246 l 2,20,21
 639 1216 639 1216 638 1159 c 128,-1,22
 637 1102 637 1102 637 1080 c 1,23,24
 824 1239 824 1239 1012 1239 c 0,25,26
 1183 1239 1183 1239 1302 1120 c 1,27,28
 1325 1101 1325 1101 1334 1085 c 128,-1,29
 1343 1069 1343 1069 1352 1061 c 1,30,-1
 1352 1062 l 1,31,-1
 1362 1054 l 1,32,33
 1477 901 1477 901 1477 703 c 2,34,-1
 1477 690 l 2,35,36
 1477 685 1477 685 1476 677 c 1,0,-1
858 559 m 2,37,38
 858 795 858 795 774 866 c 0,39,40
 755 882 755 882 729.5 882 c 128,-1,41
 704 882 704 882 685 865 c 128,-1,42
 666 848 666 848 652 824 c 0,43,44
 603 736 603 736 603 524 c 0,45,46
 603 448 603 448 628 389.5 c 128,-1,47
 653 331 653 331 677 304 c 128,-1,48
 701 277 701 277 734 277 c 128,-1,49
 767 277 767 277 791 304.5 c 128,-1,50
 815 332 815 332 830 370 c 0,51,52
 858 442 858 442 858 522 c 2,53,-1
 858 528 l 2,54,55
 858 531 858 531 857 533 c 1,56,-1
 857 535 l 1,57,58
 858 539 858 539 858 546 c 2,59,-1
 858 559 l 2,37,38
EndSplineSet
EndChar

StartChar: c
Encoding: 99 99 70
Width: 1520
GlyphClass: 2
Flags: W
LayerCount: 2
Fore
SplineSet
706 -36 m 1,0,1
 642 -36 642 -36 586 -22 c 1,2,3
 546 -22 546 -22 478 -1 c 1,4,5
 254 50 254 50 138 186 c 2,6,-1
 120 207 l 1,7,8
 32 321 32 321 7 508 c 1,9,-1
 4 529 l 2,10,11
 0 553 0 553 0 600 c 128,-1,12
 0 647 0 647 16.5 725 c 128,-1,13
 33 803 33 803 67 876 c 0,14,15
 143 1040 143 1040 282 1114 c 2,16,-1
 417 1186 l 1,17,18
 530 1226 530 1226 708 1238 c 0,19,20
 747 1240 747 1240 779 1240 c 0,21,22
 877 1240 877 1240 948 1218 c 2,23,-1
 968 1212 l 2,24,25
 967 1212 967 1212 967 1213 c 1,26,-1
 969 1213 l 1,27,28
 1130 1170 1130 1170 1210 1120 c 0,29,30
 1360 1027 1360 1027 1420 915 c 1,31,-1
 1422 908 l 1,32,33
 1472 806 1472 806 1489 682 c 1,34,-1
 1466 690 l 1,35,-1
 840 690 l 1,36,-1
 835 727 l 1,37,38
 816 845 816 845 781 880 c 1,39,-1
 761 892 l 1,40,41
 679 886 679 886 666 697 c 0,42,43
 664 667 664 667 662.5 644 c 128,-1,44
 661 621 661 621 660 612.5 c 128,-1,45
 659 604 659 604 660 586 c 128,-1,46
 661 568 661 568 662 551 c 1,47,48
 662 532 662 532 664 509 c 1,49,-1
 674 499 l 1,50,-1
 663 499 l 1,51,52
 669 409 669 409 710 362 c 0,53,54
 727 344 727 344 751.5 344 c 128,-1,55
 776 344 776 344 793 364 c 128,-1,56
 810 384 810 384 820 412 c 0,57,58
 837 462 837 462 837 519 c 1,59,60
 914 523 914 523 1069 523 c 2,61,-1
 1107 523 l 1,62,-1
 1203 522 l 1,63,-1
 1299 522 l 1,64,-1
 1492 521 l 1,65,66
 1461 200 1461 200 1189 67 c 1,67,68
 1173 62 1173 62 1159 55.5 c 128,-1,69
 1145 49 1145 49 1134 44 c 2,70,-1
 1096 26 l 1,71,72
 933 -35 933 -35 805 -35 c 0,73,74
 791 -35 791 -35 786 -31 c 1,75,-1
 706 -36 l 1,0,1
EndSplineSet
EndChar

StartChar: d
Encoding: 100 100 71
Width: 1528
GlyphClass: 2
Flags: W
LayerCount: 2
Fore
SplineSet
871 1188 m 1,0,-1
 874 1289 l 1,1,-1
 874 1554 l 1,2,-1
 1172 1554 l 1,3,-1
 1472 1555 l 1,4,-1
 1473 -6 l 1,5,-1
 963 -6 l 1,6,7
 943 25 943 25 932 57 c 1,8,-1
 892 127 l 1,9,10
 796 42 796 42 735 14 c 0,11,12
 627 -36 627 -36 516.5 -36 c 128,-1,13
 406 -36 406 -36 320 5 c 128,-1,14
 234 46 234 46 170 120 c 0,15,16
 33 280 33 280 33 527 c 0,17,18
 33 687 33 687 70 835 c 1,19,20
 140 1079 140 1079 298 1186 c 0,21,22
 357 1226 357 1226 431 1234 c 1,23,-1
 446 1233 l 1,24,-1
 531 1239 l 1,25,26
 645 1239 645 1239 808 1132 c 1,27,-1
 829 1119 l 2,28,29
 835 1115 835 1115 841.5 1111.5 c 128,-1,30
 848 1108 848 1108 857 1098 c 1,31,-1
 888 1112 l 1,32,33
 871 1163 871 1163 871 1182 c 2,34,-1
 871 1188 l 1,0,-1
782 880 m 0,35,36
 706 880 706 880 670 693 c 0,37,38
 657 622 657 622 657 596 c 2,39,-1
 657 564 l 2,40,41
 657 558 657 558 656.5 553.5 c 128,-1,42
 656 549 656 549 656 544 c 2,43,-1
 656 533 l 1,44,-1
 656 510 l 2,45,46
 656 455 656 455 677 397 c 1,47,-1
 676 398 l 1,48,49
 682 370 682 370 704 338 c 0,50,51
 749 275 749 275 783 275 c 0,52,53
 796 275 796 275 804 280 c 1,54,55
 865 307 865 307 892 414 c 0,56,57
 909 485 909 485 907 587 c 0,58,59
 904 729 904 729 862 804.5 c 128,-1,60
 820 880 820 880 782 880 c 0,35,36
EndSplineSet
EndChar

StartChar: e
Encoding: 101 101 72
Width: 1475
GlyphClass: 2
Flags: W
LayerCount: 2
Fore
SplineSet
553 1226 m 1,0,1
 598 1239 598 1239 647 1239 c 0,2,3
 712 1239 712 1239 746 1235 c 2,4,-1
 788 1231 l 2,5,6
 810 1229 810 1229 827.5 1227.5 c 128,-1,7
 845 1226 845 1226 862 1224 c 0,8,9
 901 1218 901 1218 940 1208 c 1,10,-1
 940 1209 l 1,11,-1
 961 1200 l 1,12,13
 1172 1134 1172 1134 1288 1002 c 1,14,-1
 1288 1003 l 1,15,16
 1341 940 1341 940 1367.5 885.5 c 128,-1,17
 1394 831 1394 831 1394 817 c 1,18,-1
 1402 790 l 1,19,-1
 1407 761 l 1,20,21
 1426 692 1426 692 1426 665 c 2,22,-1
 1426 618 l 2,23,24
 1426 598 1426 598 1427 580 c 1,25,-1
 603 580 l 1,26,-1
 603 547 l 1,27,28
 609 526 609 526 609 488.5 c 128,-1,29
 609 451 609 451 612 425.5 c 128,-1,30
 615 400 615 400 620 382 c 0,31,32
 627 360 627 360 652 315 c 1,33,-1
 652 316 l 1,34,-1
 663 295 l 1,35,36
 681 276 681 276 715 265 c 1,37,38
 786 280 786 280 809 376 c 0,39,40
 818 412 818 412 822 434 c 1,41,42
 856 444 856 444 924 444 c 1,43,-1
 1052 441 l 1,44,-1
 1421 441 l 1,45,46
 1409 320 1409 320 1349 217 c 1,47,-1
 1350 217 l 1,48,49
 1274 98 1274 98 1083 26 c 1,50,51
 923 -33 923 -33 779 -33 c 0,52,53
 771 -33 771 -33 763 -31 c 1,54,-1
 740 -31 l 1,55,-1
 731 -32 l 2,56,57
 723 -32 723 -32 717 -32 c 128,-1,58
 711 -32 711 -32 702 -30 c 1,59,60
 693 -36 693 -36 680.5 -36 c 128,-1,61
 668 -36 668 -36 654 -32.5 c 128,-1,62
 640 -29 640 -29 631 -28 c 0,63,64
 612 -26 612 -26 591 -26 c 1,65,66
 583 -29 583 -29 561 -29 c 128,-1,67
 539 -29 539 -29 450 -2 c 1,68,-1
 450 -3 l 1,69,-1
 426 4 l 2,70,71
 412 9 412 9 408 10 c 128,-1,72
 404 11 404 11 365.5 22.5 c 128,-1,73
 327 34 327 34 262 73.5 c 128,-1,74
 197 113 197 113 146 166 c 0,75,76
 38 277 38 277 8 424 c 1,77,78
 3 457 3 457 -4 483 c 128,-1,79
 -11 509 -11 509 -11 524 c 2,80,-1
 -11 588 l 2,81,82
 -11 595 -11 595 -10 602 c 1,83,-1
 -10 617 l 2,84,85
 -10 829 -10 829 118 986 c 0,86,87
 242 1137 242 1137 454 1201 c 1,88,-1
 478 1208 l 1,89,90
 532 1218 532 1218 554 1227 c 1,91,-1
 553 1226 l 1,0,1
604 708 m 1,92,93
 652 712 652 712 722 712 c 2,94,-1
 852 712 l 1,95,-1
 873 725 l 1,96,97
 853 830 853 830 837 870 c 1,98,99
 799 958 799 958 738 958 c 0,100,101
 658 958 658 958 618 792 c 0,102,103
 608 748 608 748 604 708 c 1,92,93
EndSplineSet
EndChar

StartChar: f
Encoding: 102 102 73
Width: 893
GlyphClass: 2
Flags: W
LayerCount: 2
Fore
SplineSet
424 1570 m 0,0,1
 449 1571 449 1571 574.5 1571 c 128,-1,2
 700 1571 700 1571 832 1568 c 1,3,-1
 832 1355 l 1,4,5
 802 1355 802 1355 780 1355 c 128,-1,6
 758 1355 758 1355 746 1356 c 1,7,8
 674 1329 674 1329 668 1236 c 0,9,10
 667 1212 667 1212 668 1198 c 128,-1,11
 669 1184 669 1184 669 1180 c 2,12,-1
 668 1175 l 1,13,-1
 668 1147 l 1,14,15
 698 1141 698 1141 742 1141 c 0,16,17
 774 1141 774 1141 795.5 1141 c 128,-1,18
 817 1141 817 1141 828 1140 c 1,19,-1
 828 833 l 1,20,-1
 665 833 l 1,21,-1
 665 -1 l 1,22,-1
 456 -2 l 2,23,24
 313 -2 313 -2 161 0 c 1,25,-1
 161 834 l 1,26,-1
 47 834 l 1,27,-1
 46 985 l 1,28,-1
 46 1135 l 1,29,-1
 164 1135 l 1,30,-1
 164 1182 l 2,31,32
 164 1185 164 1185 163 1195 c 128,-1,33
 162 1205 162 1205 162 1232.5 c 128,-1,34
 162 1260 162 1260 170 1302.5 c 128,-1,35
 178 1345 178 1345 194 1387 c 0,36,37
 228 1481 228 1481 286 1533 c 1,38,39
 330 1564 330 1564 424 1570 c 0,0,1
EndSplineSet
EndChar

StartChar: g
Encoding: 103 103 74
Width: 1599
GlyphClass: 2
Flags: W
LayerCount: 2
Fore
SplineSet
932 147 m 1,0,-1
 936 184 l 1,1,-1
 936 190 l 2,2,3
 936 196 936 196 933 218 c 128,-1,4
 930 240 930 240 927 265 c 1,5,6
 907 229 907 229 884 211.5 c 128,-1,7
 861 194 861 194 842 186 c 128,-1,8
 823 178 823 178 788 169 c 128,-1,9
 753 160 753 160 718 154 c 0,10,11
 650 144 650 144 560.5 144 c 128,-1,12
 471 144 471 144 372 181 c 128,-1,13
 273 218 273 218 199 286 c 0,14,15
 38 434 38 434 38 662 c 0,16,17
 38 910 38 910 192 1072 c 0,18,19
 351 1240 351 1240 605 1240 c 0,20,21
 809 1240 809 1240 944 1127 c 1,22,-1
 966 1104 l 2,23,24
 971 1098 971 1098 996 1082 c 1,25,-1
 1010 1126 l 1,26,-1
 1010 1196 l 1,27,-1
 1269 1196 l 1,28,-1
 1529 1197 l 1,29,-1
 1530 264 l 2,30,31
 1530 239 1530 239 1528 211 c 1,32,-1
 1528 207 l 1,33,34
 1527 193 1527 193 1527 177 c 2,35,-1
 1527 136 l 1,36,-1
 1529 83 l 1,37,-1
 1523 27 l 2,38,39
 1523 22 1523 22 1523.5 21 c 128,-1,40
 1524 20 1524 20 1518 -4 c 0,41,42
 1501 -81 1501 -81 1486 -121 c 128,-1,43
 1471 -161 1471 -161 1424.5 -214 c 128,-1,44
 1378 -267 1378 -267 1324 -308 c 1,45,46
 1209 -392 1209 -392 1118 -406 c 1,47,48
 1105 -419 1105 -419 1083.5 -420.5 c 128,-1,49
 1062 -422 1062 -422 1044 -429 c 1,50,-1
 1044 -428 l 1,51,52
 948 -460 948 -460 817 -460 c 0,53,54
 796 -460 796 -460 782.5 -460 c 128,-1,55
 769 -460 769 -460 767 -458 c 1,56,-1
 737 -458 l 1,57,58
 729 -461 729 -461 711 -461 c 128,-1,59
 693 -461 693 -461 673.5 -459 c 128,-1,60
 654 -457 654 -457 632 -454 c 0,61,62
 581 -445 581 -445 549 -438 c 2,63,-1
 517 -431 l 2,64,65
 445 -416 445 -416 384 -388 c 1,66,67
 242 -332 242 -332 166 -241 c 1,68,69
 79 -139 79 -139 51 27 c 1,70,-1
 49 36 l 1,71,72
 73 34 73 34 96 34 c 2,73,-1
 143 34 l 1,74,-1
 307 37 l 1,75,-1
 750 37 l 1,76,-1
 749 34 l 1,77,-1
 749 33 l 2,78,79
 749 -54 749 -54 797 -91 c 0,80,81
 814 -104 814 -104 842 -104 c 128,-1,82
 870 -104 870 -104 889 -83 c 128,-1,83
 908 -62 908 -62 918 -32 c 0,84,85
 937 22 937 22 937 93 c 2,86,-1
 937 113 l 1,87,88
 934 113 934 113 934 109 c 1,89,90
 932 111 932 111 932 116 c 2,91,-1
 932 147 l 1,0,-1
960 670 m 1,92,-1
 961 682 l 1,93,94
 949 972 949 972 833 972 c 0,95,96
 779 972 779 972 745 910 c 0,97,98
 700 829 700 829 700 688 c 2,99,-1
 700 670 l 1,100,-1
 703 653 l 1,101,-1
 703 644 l 1,102,-1
 702 637 l 1,103,-1
 702 631 l 2,104,105
 702 549 702 549 729 495 c 128,-1,106
 756 441 756 441 781.5 417.5 c 128,-1,107
 807 394 807 394 842 394 c 0,108,109
 906 394 906 394 950 558 c 1,110,-1
 945 558 l 1,111,112
 960 598 960 598 960 638 c 2,113,-1
 960 670 l 1,92,-1
EndSplineSet
EndChar

StartChar: h
Encoding: 104 104 75
Width: 1438
GlyphClass: 2
Flags: W
LayerCount: 2
Fore
SplineSet
1373 587 m 1,0,-1
 1374 424 l 1,1,-1
 1374 171 l 1,2,-1
 1375 -1 l 1,3,-1
 807 -1 l 1,4,-1
 806 511 l 1,5,6
 806 511 806 511 809 622 c 1,7,8
 809 756 809 756 750 792 c 0,9,10
 733 802 733 802 704.5 802 c 128,-1,11
 676 802 676 802 655.5 782 c 128,-1,12
 635 762 635 762 626 731 c 0,13,14
 612 687 612 687 612 592 c 2,15,-1
 612 464 l 1,16,-1
 613 422 l 1,17,-1
 613 0 l 1,18,-1
 326 -1 l 1,19,-1
 41 -1 l 1,20,-1
 40 783 l 1,21,-1
 40 1568 l 1,22,23
 190 1570 190 1570 295 1570 c 0,24,25
 457 1570 457 1570 619 1570 c 1,26,-1
 620 1066 l 1,27,28
 729 1188 729 1188 888 1227 c 0,29,30
 937 1239 937 1239 977.5 1239 c 128,-1,31
 1018 1239 1018 1239 1058 1228.5 c 128,-1,32
 1098 1218 1098 1218 1136 1199 c 0,33,34
 1218 1158 1218 1158 1269 1093 c 1,35,36
 1337 985 1337 985 1366 838 c 0,37,38
 1375 796 1375 796 1375 764 c 2,39,-1
 1373 665 l 1,40,-1
 1373 587 l 1,0,-1
EndSplineSet
EndChar

StartChar: i
Encoding: 105 105 76
Width: 764
GlyphClass: 2
Flags: W
LayerCount: 2
Fore
SplineSet
680 1578 m 1,0,-1
 681 1304 l 1,1,-1
 65 1304 l 1,2,-1
 65 1374 l 2,3,4
 65 1410 65 1410 63 1441 c 1,5,-1
 62 1576 l 1,6,-1
 680 1578 l 1,0,-1
62 1586 m 1,7,-1
 62 1576 l 1,8,-1
 52 1576 l 1,9,-1
 62 1586 l 1,7,-1
684 317 m 1,10,-1
 685 308 l 1,11,-1
 686 158 l 2,12,13
 686 87 686 87 681 44.5 c 128,-1,14
 676 2 676 2 675 1 c 2,15,-1
 657 -1 l 1,16,-1
 293 -1 l 1,17,-1
 251 -5 l 1,18,19
 95 -5 95 -5 61 -1 c 1,20,-1
 61 6 l 1,21,-1
 60 25 l 1,22,-1
 60 70 l 2,23,24
 60 276 60 276 66 397 c 1,25,-1
 77 1167 l 1,26,-1
 77 1197 l 1,27,-1
 155 1198 l 1,28,-1
 172 1197 l 1,29,-1
 201 1197 l 1,30,-1
 226 1196 l 1,31,-1
 239 1197 l 1,32,-1
 311 1197 l 1,33,-1
 326 1198 l 1,34,-1
 667 1194 l 1,35,-1
 672 1195 l 2,36,37
 675 1195 675 1195 675 1189 c 2,38,-1
 676 1094 l 2,39,40
 677 1005 677 1005 678.5 932.5 c 128,-1,41
 680 860 680 860 681 801 c 0,42,43
 683 683 683 683 683 614 c 2,44,-1
 682 489 l 1,45,-1
 682 436 l 1,46,-1
 685 383 l 1,47,-1
 685 352 l 1,48,-1
 684 348 l 1,49,-1
 684 317 l 1,10,-1
EndSplineSet
EndChar

StartChar: j
Encoding: 106 106 77
Width: 918
GlyphClass: 2
Flags: W
LayerCount: 2
Fore
SplineSet
254 1294 m 1,0,-1
 251 1554 l 1,1,-1
 543 1554 l 1,2,-1
 835 1555 l 1,3,4
 835 1555 835 1555 836 1294 c 1,5,-1
 254 1294 l 1,0,-1
835 1197 m 1,6,7
 838 711 838 711 838 -108 c 2,8,-1
 838 -112 l 1,9,10
 841 -132 841 -132 841 -161 c 128,-1,11
 841 -190 841 -190 832.5 -234 c 128,-1,12
 824 -278 824 -278 808 -320 c 0,13,14
 772 -413 772 -413 717 -451 c 1,15,-1
 718 -451 l 1,16,17
 589 -535 589 -535 340 -535 c 1,18,-1
 234 -532 l 1,19,-1
 228 -532 l 1,20,-1
 222 -533 l 1,21,-1
 204 -533 l 2,22,23
 198 -533 198 -533 194 -531 c 1,24,-1
 176 -531 l 1,25,26
 161 -536 161 -536 140 -536 c 128,-1,27
 119 -536 119 -536 101 -534 c 1,28,-1
 95 -534 l 1,29,30
 81 -532 81 -532 64 -532 c 1,31,32
 44 -519 44 -519 38 -503 c 1,33,34
 38 -496 38 -496 41 -487 c 1,35,-1
 41 -484 l 1,36,37
 44 -475 44 -475 44 -469 c 2,38,-1
 44 -450 l 1,39,-1
 47 -354 l 1,40,-1
 47 -126 l 1,41,-1
 80 -126 l 2,42,43
 230 -126 230 -126 244 -2 c 0,44,45
 248 33 248 33 248 66 c 2,46,-1
 248 81 l 1,47,-1
 250 208 l 1,48,-1
 250 1196 l 1,49,-1
 542 1196 l 1,50,-1
 835 1197 l 1,6,7
39 -126 m 1,51,-1
 47 -116 l 1,52,-1
 47 -126 l 1,53,-1
 39 -126 l 1,51,-1
EndSplineSet
EndChar

StartChar: k
Encoding: 107 107 78
Width: 1632
GlyphClass: 2
Flags: W
LayerCount: 2
Fore
SplineSet
1410 1026 m 1,0,1
 1372 969 1372 969 1218 704 c 1,2,3
 1300 527 1300 527 1363 399 c 128,-1,4
 1426 271 1426 271 1438 246 c 2,5,-1
 1559 -1 l 1,6,-1
 871 -1 l 1,7,-1
 802 205 l 2,8,9
 751 358 751 358 699 527 c 1,10,-1
 661 441 l 1,11,-1
 661 1 l 1,12,13
 552 -2 552 -2 426 -2 c 2,14,15
 426 -2 426 -2 206 -2 c 0,16,17
 111 -2 111 -2 20 0 c 1,18,-1
 20 1569 l 1,19,-1
 338 1569 l 1,20,-1
 656 1570 l 1,21,22
 656 1509 656 1509 656.5 1438 c 128,-1,23
 657 1367 657 1367 657.5 1290.5 c 128,-1,24
 658 1214 658 1214 658.5 1135 c 128,-1,25
 659 1056 659 1056 659.5 979 c 128,-1,26
 660 902 660 902 660.5 829.5 c 128,-1,27
 661 757 661 757 661 694 c 1,28,-1
 699 806 l 1,29,30
 729 903 729 903 764 1003.5 c 128,-1,31
 799 1104 799 1104 831 1198 c 1,32,-1
 1367 1198 l 1,33,-1
 1386 1197 l 1,34,-1
 1463 1197 l 2,35,36
 1472 1197 1472 1197 1480.5 1198 c 128,-1,37
 1489 1199 1489 1199 1500 1199 c 1,38,39
 1491 1150 1491 1150 1441 1073 c 1,40,41
 1424 1053 1424 1053 1410 1025 c 1,42,-1
 1410 1026 l 1,0,1
EndSplineSet
EndChar

StartChar: l
Encoding: 108 108 79
Width: 770
GlyphClass: 2
Flags: W
LayerCount: 2
Fore
SplineSet
316 1571 m 2,0,1
 492 1571 492 1571 676 1569 c 1,2,-1
 676 -1 l 1,3,-1
 64 -1 l 1,4,-1
 62 1570 l 1,5,-1
 316 1571 l 2,0,1
EndSplineSet
EndChar

StartChar: m
Encoding: 109 109 80
Width: 2224
GlyphClass: 2
Flags: W
LayerCount: 2
Fore
SplineSet
2174 714 m 1,0,1
 2176 660 2176 660 2176 613 c 2,2,-1
 2176 -1 l 1,3,-1
 1570 -1 l 1,4,-1
 1569 587 l 1,5,-1
 1570 609 l 1,6,7
 1570 754 1570 754 1489 754 c 0,8,9
 1398 754 1398 754 1398 594 c 1,10,-1
 1400 525 l 1,11,-1
 1400 0 l 1,12,-1
 1122 -1 l 1,13,-1
 845 -1 l 1,14,-1
 844 536 l 1,15,-1
 846 601 l 1,16,17
 846 729 846 729 766 755 c 1,18,19
 672 749 672 749 672 610 c 1,20,-1
 674 550 l 1,21,-1
 674 0 l 1,22,-1
 352 -1 l 1,23,-1
 32 -1 l 1,24,-1
 31 600 l 1,25,-1
 31 1197 l 1,26,-1
 305 1198 l 1,27,-1
 580 1198 l 1,28,-1
 587 1174 l 2,29,30
 602 1125 602 1125 612.5 1084.5 c 128,-1,31
 623 1044 623 1044 630.5 1017 c 128,-1,32
 638 990 638 990 643 970 c 1,33,34
 744 1146 744 1146 874 1215 c 0,35,36
 920 1239 920 1239 953.5 1239 c 128,-1,37
 987 1239 987 1239 998 1239 c 256,38,39
 1009 1239 1009 1239 1038 1239 c 128,-1,40
 1067 1239 1067 1239 1114 1218.5 c 128,-1,41
 1161 1198 1161 1198 1204 1164 c 0,42,43
 1291 1096 1291 1096 1349 996 c 1,44,45
 1497 1190 1497 1190 1639 1226 c 0,46,47
 1687 1239 1687 1239 1739.5 1239 c 128,-1,48
 1792 1239 1792 1239 1854 1218 c 0,49,50
 1987 1175 1987 1175 2075 1070 c 0,51,52
 2120 1016 2120 1016 2139 951 c 1,53,-1
 2146 924 l 2,54,55
 2153 897 2153 897 2162.5 864 c 128,-1,56
 2172 831 2172 831 2172.5 812.5 c 128,-1,57
 2173 794 2173 794 2173 789 c 128,-1,58
 2173 784 2173 784 2169 771 c 1,59,60
 2176 765 2176 765 2176 753 c 2,61,-1
 2174 714 l 1,0,1
EndSplineSet
EndChar

StartChar: n
Encoding: 110 110 81
Width: 1460
GlyphClass: 2
Flags: W
LayerCount: 2
Fore
SplineSet
1396 190 m 1,0,-1
 1397 -1 l 1,1,-1
 812 -1 l 1,2,-1
 810 499 l 1,3,-1
 814 601 l 1,4,5
 814 754 814 754 733 754 c 0,6,7
 646 754 646 754 646 609 c 2,8,-1
 646 588 l 2,9,10
 646 574 646 574 647 565 c 1,11,-1
 647 550 l 1,12,-1
 648 533 l 1,13,-1
 648 0 l 1,14,-1
 350 -1 l 1,15,-1
 51 -1 l 1,16,-1
 50 599 l 1,17,-1
 50 1197 l 1,18,-1
 316 1196 l 1,19,-1
 584 1197 l 1,20,21
 589 1178 589 1178 593.5 1163 c 128,-1,22
 598 1148 598 1148 602.5 1131 c 128,-1,23
 607 1114 607 1114 613 1092.5 c 128,-1,24
 619 1071 619 1071 627 1041 c 2,25,-1
 646 966 l 1,26,27
 658 996 658 996 665.5 1015.5 c 128,-1,28
 673 1035 673 1035 678 1047 c 0,29,30
 690 1071 690 1071 695 1078 c 2,31,-1
 711 1098 l 1,32,33
 762 1169 762 1169 843 1204.5 c 128,-1,34
 924 1240 924 1240 1009.5 1240 c 128,-1,35
 1095 1240 1095 1240 1166 1205 c 128,-1,36
 1237 1170 1237 1170 1288 1112 c 0,37,38
 1399 988 1399 988 1399 824 c 0,39,40
 1399 812 1399 812 1396 805 c 1,41,-1
 1396 190 l 1,0,-1
EndSplineSet
EndChar

StartChar: o
Encoding: 111 111 82
Width: 1569
GlyphClass: 2
Flags: W
LayerCount: 2
Fore
SplineSet
1488 795 m 0,0,1
 1513 711 1513 711 1512 653 c 128,-1,2
 1511 595 1511 595 1511 593 c 2,3,-1
 1511 585 l 1,4,5
 1507 419 1507 419 1435 288 c 1,6,-1
 1436 288 l 1,7,8
 1336 134 1336 134 1144 44 c 1,9,10
 970 -36 970 -36 776 -36 c 0,11,12
 541 -36 541 -36 376 46 c 0,13,14
 208 129 208 129 135 228 c 0,15,16
 48 345 48 345 30 494 c 0,17,18
 22 565 22 565 22 603.5 c 128,-1,19
 22 642 22 642 25 648 c 1,20,-1
 25 664 l 1,21,22
 22 668 22 668 22 672 c 2,23,-1
 23 679 l 2,24,25
 24 680 24 680 23.5 680.5 c 128,-1,26
 23 681 23 681 24 683 c 1,27,-1
 23 683 l 1,28,29
 44 860 44 860 97 913 c 1,30,31
 97 921 97 921 101.5 926 c 128,-1,32
 106 931 106 931 111 938 c 1,33,-1
 111 937 l 1,34,35
 113 939 113 939 115.5 944 c 128,-1,36
 118 949 118 949 134.5 971.5 c 128,-1,37
 151 994 151 994 182 1025 c 128,-1,38
 213 1056 213 1056 248 1083 c 0,39,40
 318 1138 318 1138 396 1168 c 2,41,-1
 431 1181 l 1,42,43
 499 1215 499 1215 616 1229 c 1,44,-1
 648 1232 l 2,45,46
 664 1234 664 1234 681 1234 c 128,-1,47
 698 1234 698 1234 707 1238 c 1,48,-1
 750 1237 l 1,49,50
 753 1238 753 1238 757 1238 c 128,-1,51
 761 1238 761 1238 766 1237 c 1,52,-1
 765 1238 l 1,53,54
 771 1235 771 1235 783 1235 c 1,55,56
 787 1239 787 1239 843.5 1239 c 128,-1,57
 900 1239 900 1239 992 1218.5 c 128,-1,58
 1084 1198 1084 1198 1166 1150 c 1,59,-1
 1186 1141 l 1,60,61
 1421 1027 1421 1027 1488 795 c 0,0,1
780 298 m 0,62,63
 891 298 891 298 891 599 c 1,64,65
 887 790 887 790 834 868 c 0,66,67
 814 897 814 897 786.5 897 c 128,-1,68
 759 897 759 897 741 879 c 128,-1,69
 723 861 723 861 711 833 c 128,-1,70
 699 805 699 805 691 769.5 c 128,-1,71
 683 734 683 734 679 699 c 0,72,73
 672 638 672 638 672 600 c 128,-1,74
 672 562 672 562 674 533.5 c 128,-1,75
 676 505 676 505 681 473.5 c 128,-1,76
 686 442 686 442 694.5 410.5 c 128,-1,77
 703 379 703 379 715 354 c 0,78,79
 742 298 742 298 780 298 c 0,62,63
EndSplineSet
EndChar

StartChar: p
Encoding: 112 112 83
Width: 1552
GlyphClass: 2
Flags: W
LayerCount: 2
Fore
SplineSet
34 1196 m 1,0,-1
 292 1197 l 1,1,-1
 553 1197 l 1,2,3
 573 1155 573 1155 587 1131 c 2,4,-1
 625 1061 l 1,5,6
 731 1159 731 1159 799 1189 c 0,7,8
 912 1239 912 1239 1010.5 1239 c 128,-1,9
 1109 1239 1109 1239 1178.5 1212 c 128,-1,10
 1248 1185 1248 1185 1301 1138.5 c 128,-1,11
 1354 1092 1354 1092 1391.5 1030 c 128,-1,12
 1429 968 1429 968 1452 898 c 0,13,14
 1497 767 1497 767 1497 614 c 0,15,16
 1497 586 1497 586 1491.5 538.5 c 128,-1,17
 1486 491 1486 491 1473.5 422.5 c 128,-1,18
 1461 354 1461 354 1437 292 c 0,19,20
 1388 167 1388 167 1276 64 c 1,21,-1
 1276 65 l 1,22,23
 1180 -21 1180 -21 1086 -21 c 1,24,25
 1034 -45 1034 -45 923 -20 c 0,26,27
 905 -16 905 -16 897 -12 c 1,28,29
 761 17 761 17 672 106 c 1,30,-1
 634 105 l 1,31,32
 643 48 643 48 643 7 c 1,33,-1
 642 -11 l 1,34,-1
 642 -317 l 1,35,36
 642 -317 642 -317 338 -318 c 1,37,-1
 35 -318 l 1,38,-1
 34 439 l 1,39,-1
 34 1196 l 1,0,-1
871 503 m 2,40,-1
 876 566 l 1,41,42
 875 567 875 567 875 570 c 256,43,44
 875 573 875 573 876 575 c 1,45,-1
 876 592 l 2,46,47
 876 637 876 637 872 673 c 1,48,-1
 866 715 l 1,49,50
 862 732 862 732 861 739 c 0,51,52
 849 824 849 824 832 852 c 0,53,54
 800 905 800 905 757.5 905 c 128,-1,55
 715 905 715 905 691 873 c 128,-1,56
 667 841 667 841 654 792 c 0,57,58
 630 708 630 708 630 634.5 c 128,-1,59
 630 561 630 561 631 533 c 128,-1,60
 632 505 632 505 636.5 473 c 128,-1,61
 641 441 641 441 648.5 408 c 128,-1,62
 656 375 656 375 670 347 c 0,63,64
 700 284 700 284 749 271 c 1,65,66
 829 277 829 277 860 417 c 0,67,68
 868 456 868 456 871 503 c 2,40,-1
EndSplineSet
EndChar

StartChar: q
Encoding: 113 113 84
Width: 1556
GlyphClass: 2
Flags: W
LayerCount: 2
Fore
SplineSet
1493 786 m 1,0,-1
 1495 559 l 2,1,2
 1498 224 1498 224 1498 -319 c 1,3,-1
 890 -319 l 1,4,-1
 889 120 l 1,5,6
 837 97 837 97 809 71.5 c 128,-1,7
 781 46 781 46 744.5 27 c 128,-1,8
 708 8 708 8 666 -5 c 0,9,10
 434 -77 434 -77 262 50 c 0,11,12
 106 166 106 166 56 379 c 0,13,14
 40 445 40 445 40 511 c 1,15,16
 33 524 33 524 33 541 c 128,-1,17
 33 558 33 558 39 579 c 1,18,19
 34 588 34 588 34 620 c 128,-1,20
 34 652 34 652 42 714 c 0,21,22
 71 922 71 922 178 1062 c 1,23,24
 331 1240 331 1240 564 1240 c 1,25,26
 639 1234 639 1234 689.5 1217 c 128,-1,27
 740 1200 740 1200 750 1190 c 1,28,29
 805 1165 805 1165 873 1089 c 1,30,-1
 885 1078 l 1,31,-1
 912 1061 l 1,32,33
 925 1095 925 1095 937 1118 c 128,-1,34
 949 1141 949 1141 960 1164 c 2,35,-1
 970 1185 l 2,36,37
 971 1187 971 1187 975.5 1195 c 128,-1,38
 980 1203 980 1203 982 1207 c 1,39,40
 1052 1197 1052 1197 1227 1197 c 0,41,42
 1360 1197 1360 1197 1492 1197 c 1,43,-1
 1493 858 l 1,44,-1
 1493 786 l 1,0,-1
909 547 m 1,45,-1
 911 592 l 1,46,47
 911 879 911 879 789 906 c 1,48,49
 714 893 714 893 692 804 c 0,50,51
 686 780 686 780 682 757 c 128,-1,52
 678 734 678 734 674.5 719 c 128,-1,53
 671 704 671 704 668 690 c 0,54,55
 661 657 661 657 661 617 c 2,56,-1
 661 570 l 2,57,58
 661 304 661 304 780 271 c 1,59,60
 859 276 859 276 882 366 c 0,61,62
 888 389 888 389 893 411 c 1,63,-1
 910 533 l 1,64,-1
 909 547 l 1,45,-1
EndSplineSet
EndChar

StartChar: r
Encoding: 114 114 85
Width: 1186
GlyphClass: 2
Flags: W
LayerCount: 2
Fore
SplineSet
44 1197 m 1,0,-1
 310 1198 l 1,1,-1
 576 1198 l 1,2,-1
 598 1064 l 2,3,4
 604 1027 604 1027 610.5 983.5 c 128,-1,5
 617 940 617 940 625 904 c 1,6,-1
 660 904 l 1,7,8
 697 1075 697 1075 802 1147 c 1,9,-1
 842 1170 l 1,10,11
 846 1178 846 1178 878 1192 c 1,12,-1
 874 1191 l 1,13,-1
 897 1200 l 2,14,15
 993 1238 993 1238 1066 1240 c 1,16,-1
 1077 1240 l 2,17,18
 1082 1240 1082 1240 1086 1238 c 1,19,-1
 1123 1238 l 1,20,-1
 1123 680 l 1,21,22
 1101 685 1101 685 1050.5 685 c 128,-1,23
 1000 685 1000 685 949.5 668 c 128,-1,24
 899 651 899 651 863.5 622.5 c 128,-1,25
 828 594 828 594 806.5 555 c 128,-1,26
 785 516 785 516 774 472 c 0,27,28
 754 397 754 397 754 289 c 1,29,-1
 756 184 l 1,30,-1
 756 0 l 1,31,-1
 400 -1 l 1,32,-1
 45 -1 l 1,33,-1
 44 596 l 1,34,-1
 44 1197 l 1,0,-1
EndSplineSet
EndChar

StartChar: s
Encoding: 115 115 86
Width: 1638
GlyphClass: 2
Flags: W
LayerCount: 2
Fore
SplineSet
1182 938 m 1,0,1
 1059 938 1059 938 931 936 c 1,2,3
 919 968 919 968 883 991.5 c 128,-1,4
 847 1015 847 1015 802 1015 c 128,-1,5
 757 1015 757 1015 729.5 995 c 128,-1,6
 702 975 702 975 702 943 c 128,-1,7
 702 911 702 911 721.5 887 c 128,-1,8
 741 863 741 863 774 849 c 128,-1,9
 807 835 807 835 849 829 c 128,-1,10
 891 823 891 823 936 820 c 128,-1,11
 981 817 981 817 1025.5 814.5 c 128,-1,12
 1070 812 1070 812 1116 803.5 c 128,-1,13
 1162 795 1162 795 1209.5 790 c 128,-1,14
 1257 785 1257 785 1302 774 c 0,15,16
 1403 750 1403 750 1489 676 c 1,17,18
 1503 669 1503 669 1530 638 c 1,19,20
 1561 590 1561 590 1571 540 c 128,-1,21
 1581 490 1581 490 1586 439 c 1,22,23
 1580 293 1580 293 1479 180 c 1,24,25
 1381 72 1381 72 1228 22 c 1,26,27
 1215 16 1215 16 1198 14 c 1,28,-1
 1164 6 l 1,29,30
 1065 -22 1065 -22 996 -22 c 1,31,32
 956 -36 956 -36 858 -36 c 1,33,-1
 833 -35 l 1,34,-1
 760 -35 l 1,35,-1
 749 -36 l 1,36,37
 591 -36 591 -36 417 14 c 1,38,-1
 417 13 l 1,39,40
 39 108 39 108 39 337 c 1,41,42
 92 333 92 333 207 333 c 128,-1,43
 322 333 322 333 440.5 334.5 c 128,-1,44
 559 336 559 336 684 336 c 1,45,46
 683 331 683 331 683 326 c 128,-1,47
 683 321 683 321 683 307 c 128,-1,48
 683 293 683 293 695.5 274.5 c 128,-1,49
 708 256 708 256 729 243 c 0,50,51
 773 216 773 216 833 216 c 128,-1,52
 893 216 893 216 926 239.5 c 128,-1,53
 959 263 959 263 959 297 c 128,-1,54
 959 331 959 331 944.5 352 c 128,-1,55
 930 373 930 373 906 386.5 c 128,-1,56
 882 400 882 400 851 406.5 c 128,-1,57
 820 413 820 413 787.5 417 c 128,-1,58
 755 421 755 421 722.5 423.5 c 128,-1,59
 690 426 690 426 647 433 c 128,-1,60
 604 440 604 440 534.5 448.5 c 128,-1,61
 465 457 465 457 395.5 471.5 c 128,-1,62
 326 486 326 486 261 510 c 128,-1,63
 196 534 196 534 146 576 c 0,64,65
 37 667 37 667 37 833 c 0,66,67
 37 1011 37 1011 176 1106 c 0,68,69
 287 1182 287 1182 498 1210 c 0,70,71
 512 1212 512 1212 522 1214 c 0,72,73
 548 1219 548 1219 564 1222 c 0,74,75
 623 1235 623 1235 639.5 1235 c 128,-1,76
 656 1235 656 1235 662 1233 c 1,77,-1
 789 1240 l 1,78,-1
 965 1232 l 1,79,80
 1150 1217 1150 1217 1209 1201 c 128,-1,81
 1268 1185 1268 1185 1316.5 1159.5 c 128,-1,82
 1365 1134 1365 1134 1404 1100 c 0,83,84
 1488 1027 1488 1027 1500 945 c 1,85,-1
 1493 947 l 1,86,-1
 1273 937 l 1,87,-1
 1182 938 l 1,0,1
EndSplineSet
EndChar

StartChar: t
Encoding: 116 116 87
Width: 1042
GlyphClass: 2
Flags: W
LayerCount: 2
Fore
SplineSet
789 498 m 1,0,-1
 788 483 l 1,1,2
 788 416 788 416 804 400 c 0,3,4
 833 370 833 370 928 370 c 1,5,-1
 955 369 l 2,6,7
 970 369 970 369 982 372 c 1,8,-1
 983 -1 l 1,9,-1
 436 -1 l 1,10,-1
 402 -3 l 2,11,12
 392 -3 392 -3 385.5 -3 c 128,-1,13
 379 -3 379 -3 374 -1 c 0,14,15
 185 46 185 46 172 238 c 0,16,17
 169 292 169 292 169 348 c 2,18,-1
 169 902 l 1,19,-1
 51 902 l 1,20,-1
 50 1042 l 1,21,-1
 50 1185 l 1,22,-1
 165 1185 l 1,23,-1
 165 1516 l 1,24,-1
 474 1516 l 1,25,-1
 783 1517 l 1,26,-1
 784 1187 l 1,27,-1
 951 1187 l 1,28,-1
 952 1044 l 1,29,-1
 952 902 l 1,30,-1
 789 902 l 1,31,-1
 789 498 l 1,0,-1
EndSplineSet
EndChar

StartChar: u
Encoding: 117 117 88
Width: 1538
GlyphClass: 2
Flags: W
LayerCount: 2
Fore
SplineSet
689 465 m 2,0,1
 689 363 689 363 762 363 c 0,2,3
 823 363 823 363 823 471 c 2,4,-1
 823 1195 l 1,5,-1
 1152 1196 l 1,6,-1
 1478 1196 l 1,7,-1
 1479 1 l 1,8,-1
 919 1 l 1,9,-1
 872 163 l 1,10,11
 742 -36 742 -36 521 -36 c 0,12,13
 329 -36 329 -36 198 74 c 1,14,-1
 199 81 l 1,15,16
 175 89 175 89 133 150 c 0,17,18
 54 264 54 264 54 519 c 1,19,-1
 55 551 l 1,20,-1
 55 1195 l 1,21,-1
 373 1195 l 1,22,-1
 691 1196 l 1,23,-1
 691 1100 l 1,24,-1
 689 465 l 2,0,1
EndSplineSet
EndChar

StartChar: v
Encoding: 118 118 89
Width: 1663
GlyphClass: 2
Flags: W
LayerCount: 2
Fore
SplineSet
-5 1196 m 1,0,-1
 375 1197 l 1,1,-1
 747 1197 l 1,2,3
 753 1165 753 1165 754 1149 c 128,-1,4
 755 1133 755 1133 757 1117 c 2,5,-1
 779 899 l 2,6,7
 783 854 783 854 789 802 c 128,-1,8
 795 750 795 750 801 697 c 128,-1,9
 807 644 807 644 813 593 c 128,-1,10
 819 542 819 542 824 497 c 1,11,-1
 826 497 l 1,12,-1
 934 1197 l 1,13,-1
 1639 1197 l 1,14,-1
 1636 1177 l 1,15,-1
 1633 1177 l 1,16,17
 1423 449 1423 449 1291 0 c 1,18,-1
 325 0 l 1,19,20
 250 256 250 256 204 419 c 1,21,-1
 186 491 l 1,22,23
 83 884 83 884 -5 1196 c 1,0,-1
EndSplineSet
EndChar

StartChar: w
Encoding: 119 119 90
Width: 1966
GlyphClass: 2
Flags: W
LayerCount: 2
Fore
SplineSet
1141 1186 m 1,0,-1
 1215 708 l 1,1,-1
 1217 708 l 1,2,3
 1233 792 1233 792 1253 926 c 2,4,-1
 1269 1030 l 1,5,-1
 1283 1104 l 1,6,7
 1289 1165 1289 1165 1297 1198 c 1,8,-1
 1952 1198 l 1,9,10
 1877 846 1877 846 1820 590.5 c 128,-1,11
 1763 335 1763 335 1738 219 c 1,12,-1
 1682 -1 l 1,13,-1
 1046 -1 l 1,14,-1
 1024 166 l 1,15,16
 999 328 999 328 988 427 c 0,17,18
 971 583 971 583 968 583 c 1,19,-1
 880 -1 l 1,20,-1
 203 -1 l 1,21,22
 169 159 169 159 143.5 325 c 128,-1,23
 118 491 118 491 92 652 c 2,24,-1
 71 785 l 2,25,26
 55 886 55 886 36.5 991 c 128,-1,27
 18 1096 18 1096 1 1199 c 1,28,-1
 336 1199 l 1,29,-1
 669 1200 l 1,30,31
 672 1170 672 1170 674 1160 c 2,32,-1
 680 1117 l 1,33,34
 691 1019 691 1019 703.5 909.5 c 128,-1,35
 716 800 716 800 724 697 c 1,36,-1
 728 697 l 1,37,38
 735 739 735 739 740 780.5 c 128,-1,39
 745 822 745 822 753 865 c 2,40,-1
 802 1158 l 1,41,-1
 804 1184 l 1,42,43
 886 1186 886 1186 973 1186 c 2,44,-1
 1141 1186 l 1,0,-1
EndSplineSet
EndChar

StartChar: x
Encoding: 120 120 91
Width: 1624
GlyphClass: 2
Flags: W
LayerCount: 2
Fore
SplineSet
411 1197 m 1,0,-1
 726 1198 l 1,1,2
 740 1124 740 1124 751 1040 c 0,3,4
 771 895 771 895 782 841 c 2,5,-1
 795 775 l 1,6,-1
 830 775 l 1,7,-1
 869 965 l 2,8,9
 874 990 874 990 879.5 1022 c 128,-1,10
 885 1054 885 1054 891 1086 c 0,11,12
 905 1164 905 1164 915 1198 c 1,13,-1
 1542 1198 l 1,14,-1
 1388 868 l 1,15,-1
 1371 828 l 1,16,17
 1354 792 1354 792 1342 769 c 0,18,19
 1317 724 1317 724 1317 718 c 1,20,-1
 1290 668 l 1,21,22
 1367 480 1367 480 1414 357 c 0,23,24
 1490 161 1490 161 1558 -1 c 1,25,-1
 923 -1 l 1,26,27
 876 188 876 188 799 540 c 1,28,-1
 763 540 l 1,29,30
 753 486 753 486 741 425.5 c 128,-1,31
 729 365 729 365 720 311 c 2,32,-1
 702 203 l 2,33,34
 689 122 689 122 665 -2 c 1,35,-1
 655 -2 l 1,36,37
 529 0 529 0 410 0 c 2,38,-1
 309 0 l 1,39,-1
 207 -1 l 1,40,-1
 33 -1 l 1,41,42
 45 38 45 38 65 87 c 2,43,-1
 84 135 l 1,44,45
 120 234 120 234 154.5 334 c 128,-1,46
 189 434 189 434 234 533 c 1,47,-1
 286 670 l 1,48,49
 263 726 263 726 242.5 785 c 128,-1,50
 222 844 222 844 202 901 c 1,51,-1
 203 901 l 1,52,-1
 186 952 l 1,53,54
 168 1002 168 1002 155 1041 c 0,55,56
 118 1144 118 1144 103 1197 c 1,57,-1
 411 1197 l 1,0,-1
EndSplineSet
EndChar

StartChar: y
Encoding: 121 121 92
Width: 1403
GlyphClass: 2
Flags: W
LayerCount: 2
Fore
SplineSet
289 1195 m 1,0,-1
 590 1196 l 1,1,-1
 635 937 l 1,2,3
 643 871 643 871 651 813.5 c 128,-1,4
 659 756 659 756 667 696 c 1,5,-1
 764 1196 l 1,6,-1
 1355 1196 l 1,7,-1
 1355 1198 l 1,8,-1
 1375 1196 l 1,9,-1
 1370 1176 l 1,10,-1
 1368 1176 l 1,11,-1
 1104 444 l 1,12,13
 1065 347 1065 347 1044.5 277.5 c 128,-1,14
 1024 208 1024 208 1016 186.5 c 128,-1,15
 1008 165 1008 165 999 143 c 0,16,17
 991 123 991 123 968 62 c 128,-1,18
 945 1 945 1 926 -54 c 128,-1,19
 907 -109 907 -109 886 -164 c 0,20,21
 839 -292 839 -292 802 -358 c 128,-1,22
 765 -424 765 -424 731.5 -454.5 c 128,-1,23
 698 -485 698 -485 661 -504 c 0,24,25
 594 -538 594 -538 504 -545 c 1,26,-1
 410 -546 l 1,27,-1
 329 -550 l 1,28,29
 302 -550 302 -550 290 -547 c 1,30,31
 285 -549 285 -549 280 -549 c 2,32,-1
 269 -549 l 1,33,-1
 208 -546 l 1,34,-1
 169 -549 l 2,35,36
 160 -549 160 -549 144 -547 c 1,37,-1
 137 -547 l 1,38,39
 115 -545 115 -545 101.5 -546 c 128,-1,40
 88 -547 88 -547 81 -547 c 2,41,-1
 60 -547 l 1,42,-1
 41 -496 l 2,43,44
 39 -491 39 -491 39 -487 c 2,45,-1
 39 -474 l 2,46,47
 39 -470 39 -470 40 -467 c 1,48,-1
 40 -460 l 1,49,-1
 41 -450 l 1,50,-1
 41 -248 l 2,51,52
 41 -204 41 -204 40 -161 c 1,53,54
 51 -159 51 -159 58 -159 c 128,-1,55
 65 -159 65 -159 75 -159 c 128,-1,56
 85 -159 85 -159 97 -162 c 1,57,58
 113 -159 113 -159 134 -159 c 2,59,-1
 142 -159 l 1,60,61
 148 -155 148 -155 160 -153 c 0,62,63
 190 -148 190 -148 199 -146 c 0,64,65
 214 -144 214 -144 238 -138 c 1,66,-1
 238 -139 l 1,67,68
 313 -112 313 -112 327 -14 c 0,69,70
 331 13 331 13 332 50 c 0,71,72
 333 90 333 90 293 219 c 1,73,-1
 277 269 l 1,74,75
 119 770 119 770 -16 1195 c 1,76,-1
 289 1195 l 1,0,-1
EndSplineSet
EndChar

StartChar: z
Encoding: 122 122 93
Width: 1440
GlyphClass: 2
Flags: W
LayerCount: 2
Fore
SplineSet
456 819 m 1,0,-1
 228 821 l 1,1,-1
 146 821 l 1,2,-1
 146 1196 l 1,3,-1
 1399 1196 l 1,4,5
 1399 1193 1399 1193 1395 1193 c 1,6,-1
 1282 1011 l 1,7,8
 1048 608 1048 608 917 370 c 1,9,-1
 1106 370 l 1,10,11
 1106 370 1106 370 1325 369 c 1,12,-1
 1325 -1 l 1,13,-1
 145 -1 l 1,14,-1
 58 -4 l 2,15,16
 32 -4 32 -4 11 -1 c 1,17,-1
 12 -2 l 1,18,19
 8 -2 8 -2 4 -0.5 c 128,-1,20
 0 1 0 1 -3 1 c 1,21,22
 7 21 7 21 14 32 c 0,23,24
 57 101 57 101 98.5 164.5 c 128,-1,25
 140 228 140 228 176 282 c 0,26,27
 269 426 269 426 310 493 c 2,28,-1
 512 819 l 1,29,-1
 456 819 l 1,0,-1
EndSplineSet
EndChar

StartChar: braceleft
Encoding: 123 123 94
Width: 1032
GlyphClass: 2
Flags: W
LayerCount: 2
Fore
SplineSet
818 1534 m 1,0,-1
 897 1531 l 1,1,-1
 905 1531 l 1,2,-1
 930 1508 l 1,3,-1
 929 1345 l 1,4,-1
 929 1262 l 1,5,-1
 930 1219 l 1,6,7
 930 1163 930 1163 911 1163 c 2,8,-1
 892 1164 l 1,9,-1
 844 1164 l 2,10,11
 786 1164 786 1164 766 1146 c 0,12,13
 732 1115 732 1115 726 1045 c 1,14,-1
 723 965 l 2,15,16
 721 924 721 924 721 884 c 2,17,-1
 721 801 l 2,18,19
 721 696 721 696 592 628 c 0,20,21
 556 609 556 609 520 597 c 1,22,-1
 605 565 l 1,23,24
 675 533 675 533 700 471 c 0,25,26
 720 419 720 419 720 295 c 2,27,-1
 720 259 l 1,28,-1
 718 203 l 1,29,-1
 718 185 l 2,30,31
 718 91 718 91 738 66 c 0,32,33
 774 23 774 23 875 23 c 2,34,-1
 889 23 l 2,35,36
 914 23 914 23 918 18 c 1,37,-1
 918 -4 l 1,38,-1
 917 -16 l 1,39,-1
 917 -96 l 1,40,-1
 918 -129 l 1,41,42
 918 -309 918 -309 905 -325 c 1,43,-1
 721 -317 l 1,44,45
 512 -317 512 -317 412 -275 c 0,46,47
 271 -216 271 -216 263 -43 c 1,48,49
 260 53 260 53 260 123 c 128,-1,50
 260 193 260 193 259 242.5 c 128,-1,51
 258 292 258 292 253.5 323 c 128,-1,52
 249 354 249 354 236 372 c 0,53,54
 215 404 215 404 144 416 c 1,55,-1
 109 420 l 2,56,57
 90 422 90 422 75 423.5 c 128,-1,58
 60 425 60 425 60 427 c 0,59,60
 54 575 54 575 54 669.5 c 128,-1,61
 54 764 54 764 66 776 c 1,62,63
 248 776 248 776 257 886 c 1,64,-1
 255 1155 l 1,65,-1
 254 1163 l 1,66,-1
 254 1188 l 2,67,68
 254 1403 254 1403 396 1478 c 0,69,70
 476 1520 476 1520 557.5 1525.5 c 128,-1,71
 639 1531 639 1531 690 1532 c 2,72,-1
 818 1534 l 1,0,-1
EndSplineSet
EndChar

StartChar: bar
Encoding: 124 124 95
Width: 492
GlyphClass: 2
Flags: W
LayerCount: 2
Fore
SplineSet
388 1557 m 1,0,-1
 385 1500 l 1,1,-1
 389 1159 l 2,2,3
 390 1055 390 1055 391.5 944.5 c 128,-1,4
 393 834 393 834 394 722 c 0,5,6
 396 572 396 572 402 280 c 1,7,-1
 407 -60 l 1,8,9
 395 -84 395 -84 293 -84 c 0,10,11
 228 -84 228 -84 182.5 -84 c 128,-1,12
 137 -84 137 -84 111 -79 c 1,13,-1
 100 -67 l 1,14,15
 96 -65 96 -65 93.5 -62 c 128,-1,16
 91 -59 91 -59 88 -56 c 1,17,18
 88 333 88 333 99 817 c 1,19,-1
 102 965 l 2,20,21
 105 1108 105 1108 106 1246 c 128,-1,22
 107 1384 107 1384 109 1519 c 1,23,-1
 109 1526 l 1,24,-1
 108 1534 l 1,25,-1
 108 1559 l 2,26,27
 108 1565 108 1565 112 1570 c 1,28,29
 147 1571 147 1571 177 1571 c 0,30,31
 246 1571 246 1571 300 1571 c 128,-1,32
 354 1571 354 1571 387 1570 c 0,33,34
 388 1569 388 1569 388 1567 c 2,35,-1
 388 1557 l 1,0,-1
EndSplineSet
EndChar

StartChar: braceright
Encoding: 125 125 96
Width: 1035
GlyphClass: 2
Flags: W
LayerCount: 2
Fore
SplineSet
258 1512 m 1,0,-1
 265 1513 l 1,1,-1
 363 1513 l 2,2,3
 492 1513 492 1513 544.5 1500 c 128,-1,4
 597 1487 597 1487 636 1463.5 c 128,-1,5
 675 1440 675 1440 705 1398 c 0,6,7
 768 1308 768 1308 776 1128 c 1,8,-1
 776 1082 l 1,9,-1
 770 894 l 1,10,11
 770 784 770 784 900 774 c 0,12,13
 933 772 933 772 963 772 c 1,14,-1
 967 773 l 1,15,16
 974 771 974 771 974 760 c 2,17,-1
 974 641 l 1,18,-1
 973 599 l 1,19,-1
 973 471 l 1,20,-1
 974 427 l 1,21,22
 966 416 966 416 928 414.5 c 128,-1,23
 890 413 890 413 866 410.5 c 128,-1,24
 842 408 842 408 822 398 c 0,25,26
 776 375 776 375 776 314 c 0,27,28
 776 284 776 284 778 260 c 2,29,-1
 781 192 l 1,30,31
 785 130 785 130 785 36 c 128,-1,32
 785 -58 785 -58 757 -135.5 c 128,-1,33
 729 -213 729 -213 682 -256 c 0,34,35
 600 -332 600 -332 444 -332 c 2,36,-1
 398 -332 l 1,37,-1
 382 -331 l 1,38,-1
 256 -332 l 1,39,-1
 227 -334 l 1,40,-1
 161 -334 l 1,41,-1
 136 -333 l 2,42,43
 128 -333 128 -333 124 -334 c 1,44,45
 114 -319 114 -319 108 -311 c 1,46,-1
 108 -312 l 1,47,-1
 100 -302 l 1,48,-1
 103 -147 l 1,49,-1
 102 -103 l 1,50,51
 102 22 102 22 119 31 c 1,52,-1
 174 31 l 2,53,54
 240 31 240 31 264 48 c 1,55,56
 307 81 307 81 307 158 c 2,57,-1
 307 179 l 1,58,-1
 304 304 l 1,59,60
 308 439 308 439 350 497 c 128,-1,61
 392 555 392 555 525 601 c 1,62,63
 402 638 402 638 356 696 c 0,64,65
 312 752 312 752 312 865 c 1,66,-1
 315 1039 l 1,67,68
 315 1115 315 1115 281 1142 c 0,69,70
 246 1170 246 1170 146 1170 c 0,71,72
 114 1170 114 1170 114 1174 c 2,73,-1
 116 1315 l 1,74,-1
 116 1375 l 1,75,-1
 114 1439 l 1,76,77
 114 1497 114 1497 122 1515 c 1,78,79
 145 1513 145 1513 164 1513 c 2,80,-1
 232 1513 l 1,81,-1
 239 1512 l 1,82,-1
 258 1512 l 1,0,-1
EndSplineSet
EndChar

StartChar: asciitilde
Encoding: 126 126 97
Width: 1303
GlyphClass: 2
Flags: W
LayerCount: 2
Fore
SplineSet
1056 745 m 1,0,1
 1053 751 1053 751 1050 766 c 1,2,-1
 1060 770 l 1,3,-1
 1070 760 l 1,4,-1
 1080 761 l 1,5,6
 1107 761 1107 761 1156 592 c 0,7,8
 1176 525 1176 525 1176 511 c 2,9,10
 1176 511 1176 511 1176 492 c 0,11,12
 1176 488 1176 488 1175 485 c 1,13,-1
 1175 480 l 1,14,15
 1042 295 1042 295 890 295 c 0,16,17
 804 295 804 295 690 352 c 1,18,19
 681 353 681 353 675 358 c 1,20,-1
 651 370 l 2,21,22
 604 394 604 394 555.5 413.5 c 128,-1,23
 507 433 507 433 448 433 c 128,-1,24
 389 433 389 433 351.5 400 c 128,-1,25
 314 367 314 367 280 305 c 1,26,-1
 211 315 l 1,27,-1
 195 358 l 2,28,29
 193 364 193 364 189.5 371 c 128,-1,30
 186 378 186 378 184 386 c 1,31,-1
 185 385 l 1,32,33
 138 508 138 508 138 563 c 0,34,35
 138 566 138 566 140 568 c 0,36,37
 257 772 257 772 427 772 c 0,38,39
 490 772 490 772 543 751.5 c 128,-1,40
 596 731 596 731 651 706 c 1,41,-1
 684 688 l 1,42,43
 690 686 690 686 705 678.5 c 128,-1,44
 720 671 720 671 744 659.5 c 128,-1,45
 768 648 768 648 792 638 c 0,46,47
 851 616 851 616 882.5 616 c 128,-1,48
 914 616 914 616 936.5 628 c 128,-1,49
 959 640 959 640 980 658 c 0,50,51
 1024 697 1024 697 1056 745 c 1,0,1
EndSplineSet
EndChar

StartChar: exclamdown
Encoding: 161 161 99
Width: 784
GlyphClass: 2
Flags: W
LayerCount: 2
Fore
SplineSet
235 696 m 2,0,-1
 297 695 l 1,1,-1
 464 695 l 2,2,3
 554 695 554 695 575 687.5 c 128,-1,4
 596 680 596 680 602 669.5 c 128,-1,5
 608 659 608 659 610.5 642.5 c 128,-1,6
 613 626 613 626 613.5 602 c 128,-1,7
 614 578 614 578 620 545 c 1,8,-1
 628 488 l 1,9,10
 675 -8 675 -8 692 -253 c 2,11,-1
 698 -343 l 2,12,13
 700 -361 700 -361 700 -385 c 1,14,15
 693 -402 693 -402 662 -403 c 0,16,17
 627 -404 627 -404 611 -406 c 1,18,-1
 99 -415 l 1,19,-1
 79 -400 l 2,20,21
 78 -400 78 -400 78 -399 c 256,22,23
 78 -398 78 -398 77.5 -398 c 128,-1,24
 77 -398 77 -398 77 -397 c 2,25,-1
 90 -259 l 1,26,27
 94 -183 94 -183 107.5 -69 c 128,-1,28
 121 45 121 45 126.5 111 c 128,-1,29
 132 177 132 177 137.5 251.5 c 128,-1,30
 143 326 143 326 149 402 c 128,-1,31
 155 478 155 478 161 540 c 0,32,33
 174 679 174 679 189 692 c 0,34,35
 193 696 193 696 235 696 c 2,0,-1
593 1226 m 1,36,-1
 648 1225 l 1,37,38
 659 1199 659 1199 659 1007 c 2,39,-1
 659 888 l 1,40,41
 644 870 644 870 508 870 c 1,42,-1
 472 871 l 1,43,-1
 385 871 l 1,44,-1
 154 864 l 1,45,46
 138 880 138 880 129 893 c 1,47,-1
 134 1047 l 1,48,-1
 135 1070 l 1,49,-1
 135 1085 l 2,50,51
 135 1224 135 1224 143 1224 c 2,52,-1
 212 1224 l 1,53,-1
 424 1226 l 1,54,-1
 593 1226 l 1,36,-1
660 890 m 1,55,-1
 659 888 l 1,56,-1
 660 890 l 1,55,-1
EndSplineSet
EndChar

StartChar: cent
Encoding: 162 162 100
Width: 1497
GlyphClass: 2
Flags: W
LayerCount: 2
Fore
SplineSet
628 1317 m 2,0,1
 628 1330 628 1330 732 1330 c 2,2,-1
 878 1330 l 2,3,4
 920 1330 920 1330 934 1322 c 1,5,-1
 934 1315 l 1,6,7
 932 1261 932 1261 932 1207.5 c 128,-1,8
 932 1154 932 1154 929 1095 c 1,9,-1
 938 1085 l 1,10,11
 1213 1069 1213 1069 1314 852 c 0,12,13
 1349 776 1349 776 1360 673 c 1,14,15
 1348 667 1348 667 1308 667 c 2,16,-1
 1249 667 l 1,17,-1
 1216 668 l 1,18,-1
 1158 668 l 1,19,-1
 942 665 l 2,20,21
 910 665 910 665 896 672 c 1,22,-1
 896 675 l 2,23,24
 896 782 896 782 854 816 c 0,25,26
 834 833 834 833 798 833 c 1,27,28
 655 829 655 829 655 522 c 0,29,30
 655 443 655 443 661 404 c 1,31,-1
 661 397 l 2,32,33
 661 222 661 222 775 222 c 0,34,35
 875 222 875 222 904 319 c 0,36,37
 912 344 912 344 917 365 c 2,38,-1
 923 389 l 1,39,40
 1097 386 1097 386 1368 386 c 0,41,42
 1374 386 1374 386 1380 371 c 1,43,44
 1373 259 1373 259 1353 216 c 128,-1,45
 1333 173 1333 173 1314 151 c 1,46,47
 1233 29 1233 29 953 -53 c 1,48,49
 958 -153 958 -153 958 -204 c 128,-1,50
 958 -255 958 -255 955.5 -269.5 c 128,-1,51
 953 -284 953 -284 936 -286 c 1,52,-1
 865 -286 l 2,53,54
 741 -286 741 -286 648 -281 c 1,55,-1
 623 -252 l 1,56,-1
 626 -60 l 1,57,58
 463 -18 463 -18 416 6.5 c 128,-1,59
 369 31 369 31 340 55.5 c 128,-1,60
 311 80 311 80 282 110.5 c 128,-1,61
 253 141 253 141 230 176 c 0,62,63
 178 254 178 254 171 341 c 1,64,65
 143 447 143 447 143 533.5 c 128,-1,66
 143 620 143 620 162.5 689 c 128,-1,67
 182 758 182 758 216 813.5 c 128,-1,68
 250 869 250 869 296.5 912 c 128,-1,69
 343 955 343 955 397 988 c 0,70,71
 494 1047 494 1047 630 1088 c 1,72,-1
 630 1143 l 1,73,-1
 628 1317 l 2,0,1
EndSplineSet
EndChar

StartChar: sterling
Encoding: 163 163 101
Width: 1440
GlyphClass: 2
Flags: W
LayerCount: 2
Fore
SplineSet
1407 399 m 1,0,1
 1422 394 1422 394 1422 348 c 2,2,-1
 1422 318 l 1,3,-1
 1426 15 l 1,4,5
 1424 -15 1424 -15 1406 -22.5 c 128,-1,6
 1388 -30 1388 -30 1362 -30 c 2,7,-1
 1324 -30 l 1,8,-1
 1303 -31 l 1,9,-1
 1088 -31 l 1,10,-1
 1035 -30 l 1,11,12
 684 -30 684 -30 446 -35 c 1,13,-1
 410 -37 l 2,14,15
 374 -39 374 -39 341 -39 c 2,16,-1
 288 -39 l 1,17,-1
 260 -38 l 1,18,19
 189 -38 189 -38 141.5 -38 c 128,-1,20
 94 -38 94 -38 69 -36 c 1,21,-1
 51 -13 l 1,22,-1
 50 5 l 1,23,-1
 50 25 l 1,24,-1
 45 271 l 1,25,26
 45 346 45 346 62 365 c 1,27,-1
 204 375 l 1,28,29
 207 486 207 486 207 540 c 2,30,-1
 207 569 l 1,31,-1
 208 610 l 1,32,-1
 125 610 l 1,33,-1
 105 611 l 1,34,-1
 76 611 l 1,35,-1
 63 610 l 1,36,37
 12 610 12 610 12 628 c 2,38,-1
 13 708 l 1,39,-1
 13 746 l 1,40,-1
 14 784 l 1,41,-1
 14 799 l 1,42,-1
 12 854 l 1,43,44
 12 893 12 893 24 905 c 1,45,-1
 65 904 l 1,46,-1
 106 904 l 1,47,-1
 212 903 l 1,48,49
 210 953 210 953 210 1030 c 0,50,51
 210 1200 210 1200 280 1328 c 1,52,53
 361 1444 361 1444 521 1508 c 0,54,55
 669 1567 669 1567 843 1567 c 0,56,57
 1232 1567 1232 1567 1385 1335 c 1,58,59
 1440 1268 1440 1268 1440 1094 c 0,60,61
 1440 1073 1440 1073 1432 1069 c 1,62,63
 1327 1070 1327 1070 1215.5 1070 c 128,-1,64
 1104 1070 1104 1070 1040.5 1072.5 c 128,-1,65
 977 1075 977 1075 963 1078 c 128,-1,66
 949 1081 949 1081 942 1086 c 0,67,68
 930 1094 930 1094 927.5 1106 c 128,-1,69
 925 1118 925 1118 920 1131.5 c 128,-1,70
 915 1145 915 1145 904 1158 c 0,71,72
 879 1188 879 1188 837 1188 c 1,73,74
 735 1178 735 1178 735 1029 c 0,75,76
 735 974 735 974 738 948 c 1,77,-1
 738 942 l 1,78,79
 740 926 740 926 740 895 c 1,80,-1
 991 900 l 2,81,82
 1036 900 1036 900 1044 893 c 1,83,-1
 1047 641 l 2,84,85
 1047 619 1047 619 1032 619 c 0,86,87
 1027 619 1027 619 1022 619 c 128,-1,88
 1017 619 1017 619 1011 620 c 2,89,-1
 953 623 l 2,90,91
 938 624 938 624 924 624 c 2,92,-1
 893 624 l 2,93,94
 760 624 760 624 750 606 c 0,95,96
 746 597 746 597 745 573.5 c 128,-1,97
 744 550 744 550 743 532 c 128,-1,98
 742 514 742 514 742 497 c 2,99,-1
 739 388 l 1,100,101
 909 392 909 392 1079 392 c 2,102,-1
 1135 392 l 1,103,-1
 1407 399 l 1,0,1
EndSplineSet
EndChar

StartChar: currency
Encoding: 164 164 102
Width: 1478
GlyphClass: 2
Flags: W
LayerCount: 2
Fore
SplineSet
767 59 m 1,0,-1
 672 72 l 1,1,2
 524 95 524 95 420 184 c 1,3,-1
 349 108 l 1,4,5
 289 38 289 38 268 38 c 0,6,7
 263 38 263 38 248 50 c 1,8,9
 233 54 233 54 221 61 c 1,10,11
 259 127 259 127 310 180 c 2,12,-1
 367 240 l 1,13,14
 325 293 325 293 305 353 c 1,15,-1
 306 353 l 1,16,-1
 294 386 l 1,17,18
 265 451 265 451 255 516 c 1,19,-1
 249 626 l 1,20,21
 253 801 253 801 322 938 c 1,22,23
 349 994 349 994 392 1038 c 1,24,-1
 339 1093 l 1,25,26
 222 1210 222 1210 222 1227 c 0,27,28
 222 1238 222 1238 245 1250 c 128,-1,29
 268 1262 268 1262 272 1263 c 1,30,-1
 442 1081 l 1,31,32
 587 1183 587 1183 760 1183 c 0,33,34
 987 1183 987 1183 1108 1071 c 1,35,-1
 1131 1052 l 1,36,-1
 1331 1262 l 1,37,38
 1336 1260 1336 1260 1380 1225 c 1,39,40
 1378 1213 1378 1213 1341 1175 c 0,41,42
 1293 1126 1293 1126 1281 1113 c 0,43,44
 1252 1082 1252 1082 1231 1061 c 1,45,-1
 1232 1061 l 1,46,-1
 1179 1004 l 1,47,48
 1295 850 1295 850 1295 585 c 0,49,50
 1295 411 1295 411 1206 269 c 1,51,-1
 1291 180 l 2,52,53
 1351 116 1351 116 1381 60 c 1,54,55
 1370 52 1370 52 1356 49 c 1,56,-1
 1339 39 l 1,57,-1
 1334 38 l 1,58,59
 1320 38 1320 38 1299 59 c 128,-1,60
 1278 80 1278 80 1252 108 c 2,61,-1
 1156 210 l 1,62,63
 1047 101 1047 101 899 72 c 0,64,65
 855 64 855 64 812 60 c 1,66,-1
 767 59 l 1,0,-1
1329 1263 m 2,67,-1
 1333 1265 l 1,68,-1
 1331 1262 l 1,69,70
 1330 1263 1330 1263 1329 1263 c 2,67,-1
277 1262 m 1,71,-1
 273 1262 l 1,72,-1
 270 1265 l 1,73,-1
 277 1262 l 1,71,-1
733 300 m 1,74,-1
 742 301 l 1,75,-1
 767 301 l 2,76,77
 934 301 934 301 998 398 c 0,78,79
 1049 474 1049 474 1049 612 c 0,80,81
 1049 830 1049 830 956 898 c 1,82,83
 906 936 906 936 853.5 940 c 128,-1,84
 801 944 801 944 769 944 c 2,85,-1
 734 944 l 2,86,87
 568 944 568 944 504 792 c 0,88,89
 478 731 478 731 478 646.5 c 128,-1,90
 478 562 478 562 490.5 511 c 128,-1,91
 503 460 503 460 524 424 c 1,92,93
 562 363 562 363 639 329 c 1,94,95
 676 300 676 300 733 300 c 1,74,-1
EndSplineSet
EndChar

StartChar: yen
Encoding: 165 165 103
Width: 1456
GlyphClass: 2
Flags: W
LayerCount: 2
Fore
SplineSet
1333 819 m 1,0,1
 1345 813 1345 813 1345 770 c 2,2,-1
 1346 674 l 2,3,4
 1346 598 1346 598 1333 591 c 1,5,-1
 1072 591 l 1,6,-1
 1026 621 l 1,7,8
 1026 515 1026 515 1036 380 c 1,9,10
 1142 390 1142 390 1214.5 390 c 128,-1,11
 1287 390 1287 390 1305.5 387 c 128,-1,12
 1324 384 1324 384 1334 378 c 0,13,14
 1352 368 1352 368 1352 339 c 1,15,-1
 1350 300 l 1,16,-1
 1350 206 l 2,17,18
 1350 168 1350 168 1339.5 158.5 c 128,-1,19
 1329 149 1329 149 1303 149 c 2,20,-1
 1236 150 l 1,21,-1
 1203 150 l 1,22,-1
 1169 151 l 1,23,24
 1089 151 1089 151 1027 147 c 1,25,-1
 1027 130 l 1,26,-1
 1026 82 l 1,27,-1
 1026 61 l 1,28,-1
 1027 18 l 1,29,30
 1027 -33 1027 -33 1003 -36 c 1,31,-1
 959 -36 l 1,32,-1
 862 -37 l 1,33,-1
 728 -37 l 1,34,-1
 635 -38 l 1,35,-1
 616 -38 l 1,36,-1
 610 -37 l 1,37,-1
 461 -34 l 1,38,39
 456 -25 456 -25 450 -18.5 c 128,-1,40
 444 -12 444 -12 438 -4 c 1,41,-1
 438 10 l 2,42,43
 438 15 438 15 439 22 c 1,44,-1
 439 35 l 1,45,-1
 440 56 l 1,46,-1
 438 109 l 1,47,-1
 438 145 l 1,48,-1
 219 139 l 1,49,50
 130 139 130 139 127 162 c 1,51,-1
 127 252 l 1,52,-1
 128 284 l 1,53,-1
 125 341 l 1,54,55
 125 389 125 389 160 389 c 1,56,-1
 193 388 l 1,57,-1
 225 388 l 1,58,-1
 362 386 l 1,59,-1
 411 386 l 1,60,-1
 452 392 l 1,61,62
 452 590 452 590 392 590 c 1,63,64
 292 585 292 585 143 585 c 1,65,66
 129 594 129 594 129 674 c 2,67,-1
 129 699 l 1,68,-1
 131 782 l 2,69,70
 131 806 131 806 145 810 c 0,71,72
 162 816 162 816 197 816 c 2,73,-1
 207 816 l 1,74,-1
 250 814 l 1,75,-1
 283 814 l 1,76,-1
 266 916 l 1,77,-1
 143 1168 l 2,78,79
 114 1228 114 1228 90 1283 c 128,-1,80
 66 1338 66 1338 28 1399 c 1,81,82
 22 1412 22 1412 8.5 1435.5 c 128,-1,83
 -5 1459 -5 1459 -12 1474 c 0,84,85
 -29 1507 -29 1507 -29 1523 c 0,86,87
 -29 1531 -29 1531 152 1531 c 2,88,-1
 226 1531 l 1,89,-1
 374 1534 l 1,90,91
 539 1534 539 1534 557 1516 c 1,92,93
 562 1478 562 1478 577 1440 c 128,-1,94
 592 1402 592 1402 605 1364 c 2,95,-1
 643 1246 l 1,96,-1
 642 1246 l 1,97,-1
 671 1154 l 2,98,99
 680 1125 680 1125 691 1094.5 c 128,-1,100
 702 1064 702 1064 710 1035 c 1,101,-1
 735 955 l 1,102,-1
 762 856 l 1,103,104
 775 899 775 899 792.5 954 c 128,-1,105
 810 1009 810 1009 828 1066 c 0,106,107
 868 1197 868 1197 891 1274 c 2,108,-1
 947 1460 l 1,109,110
 961 1503 961 1503 1000 1516 c 0,111,112
 1038 1529 1038 1529 1146 1529 c 1,113,-1
 1291 1527 l 1,114,-1
 1330 1527 l 1,115,-1
 1360 1528 l 1,116,-1
 1389 1528 l 1,117,-1
 1443 1529 l 1,118,-1
 1463 1529 l 2,119,120
 1506 1529 1506 1529 1513 1519 c 1,121,122
 1481 1461 1481 1461 1455.5 1400 c 128,-1,123
 1430 1339 1430 1339 1397 1280 c 1,124,-1
 1314 1111 l 1,125,126
 1294 1063 1294 1063 1273 1008 c 128,-1,127
 1252 953 1252 953 1233 905 c 2,128,-1
 1199 820 l 1,129,130
 1238 817 1238 817 1259 817 c 2,131,-1
 1290 817 l 2,132,133
 1299 817 1299 817 1306 818 c 1,134,-1
 1319 818 l 1,135,-1
 1333 819 l 1,0,1
1342 600 m 1,136,-1
 1342 604 l 1,137,-1
 1362 602 l 1,138,-1
 1342 600 l 1,136,-1
EndSplineSet
EndChar

StartChar: brokenbar
Encoding: 166 166 104
Width: 494
GlyphClass: 2
Flags: W
LayerCount: 2
Fore
SplineSet
389 1557 m 1,0,-1
 386 1500 l 1,1,-1
 390 1159 l 1,2,-1
 396 795 l 1,3,4
 386 769 386 769 290 769 c 2,5,-1
 218 769 l 1,6,-1
 177 767 l 1,7,8
 121 767 121 767 113 783 c 1,9,-1
 100 797 l 1,10,-1
 110 1519 l 1,11,-1
 110 1526 l 1,12,-1
 109 1534 l 1,13,-1
 109 1559 l 2,14,15
 109 1565 109 1565 113 1570 c 1,16,17
 148 1571 148 1571 178 1571 c 0,18,19
 247 1571 247 1571 301.5 1571 c 128,-1,20
 356 1571 356 1571 388 1570 c 0,21,22
 389 1569 389 1569 389 1567 c 2,23,-1
 389 1557 l 1,0,-1
389 477 m 1,24,-1
 388 442 l 1,25,-1
 388 430 l 2,26,27
 388 424 388 424 390 420 c 1,28,-1
 390 6 l 1,29,-1
 392 -10 l 1,30,-1
 396 -348 l 1,31,32
 386 -373 386 -373 290 -373 c 2,33,-1
 218 -373 l 1,34,-1
 177 -375 l 1,35,36
 121 -375 121 -375 113 -359 c 1,37,-1
 100 -345 l 1,38,-1
 110 440 l 1,39,-1
 109 449 l 1,40,-1
 109 467 l 2,41,42
 109 494 109 494 195 494 c 128,-1,43
 281 494 281 494 389 491 c 1,44,-1
 388 489 l 1,45,-1
 389 477 l 1,24,-1
EndSplineSet
EndChar

StartChar: section
Encoding: 167 167 105
Width: 1819
GlyphClass: 2
Flags: W
LayerCount: 2
Fore
SplineSet
253 299 m 1,0,1
 472 226 472 226 592 226 c 0,2,3
 643 226 643 226 666 257 c 0,4,5
 675 269 675 269 675 286 c 128,-1,6
 675 303 675 303 664 316 c 0,7,8
 639 343 639 343 552 376 c 1,9,10
 523 390 523 390 492 401 c 128,-1,11
 461 412 461 412 430 424 c 0,12,13
 352 455 352 455 306 489 c 1,14,-1
 307 489 l 1,15,16
 200 583 200 583 200 715 c 0,17,18
 200 853 200 853 336 951 c 0,19,20
 381 983 381 983 438 1003 c 1,21,22
 360 1044 360 1044 314 1107 c 128,-1,23
 268 1170 268 1170 265 1244 c 1,24,25
 290 1428 290 1428 445 1504 c 1,26,27
 581 1559 581 1559 731 1559 c 0,28,29
 950 1559 950 1559 1229 1515 c 1,30,-1
 1230 1327 l 1,31,-1
 1231 1262 l 2,32,33
 1231 1246 1231 1246 1227 1242 c 1,34,35
 1049 1281 1049 1281 957.5 1281 c 128,-1,36
 866 1281 866 1281 866 1237 c 0,37,38
 866 1197 866 1197 963 1162 c 0,39,40
 989 1152 989 1152 1013 1144 c 2,41,-1
 1077 1123 l 1,42,-1
 1076 1124 l 1,43,-1
 1102 1115 l 1,44,45
 1334 1020 1334 1020 1363 820 c 1,46,47
 1363 719 1363 719 1340 669 c 0,48,49
 1289 556 1289 556 1136 476 c 1,50,51
 1201 432 1201 432 1240 371.5 c 128,-1,52
 1279 311 1279 311 1279 248 c 0,53,54
 1279 31 1279 31 1016 -42 c 0,55,56
 922 -68 922 -68 803 -68 c 0,57,58
 518 -68 518 -68 260 -21 c 1,59,-1
 236 7 l 1,60,61
 233 97 233 97 233 146 c 2,62,-1
 233 227 l 2,63,64
 233 299 233 299 253 299 c 1,0,1
653 830 m 1,65,-1
 638 842 l 1,66,67
 618 810 618 810 618 781 c 128,-1,68
 618 752 618 752 636 728 c 128,-1,69
 654 704 654 704 681 685.5 c 128,-1,70
 708 667 708 667 740 654 c 128,-1,71
 772 641 772 641 801 632 c 0,72,73
 857 616 857 616 870 616 c 128,-1,74
 883 616 883 616 898.5 621 c 128,-1,75
 914 626 914 626 930 636 c 0,76,77
 971 662 971 662 971 689.5 c 128,-1,78
 971 717 971 717 948.5 736 c 128,-1,79
 926 755 926 755 892 770.5 c 128,-1,80
 858 786 858 786 818.5 799 c 128,-1,81
 779 812 779 812 744 820 c 0,82,83
 673 838 673 838 663 838 c 1,84,-1
 708 883 l 1,85,86
 682 883 682 883 664.5 870 c 128,-1,87
 647 857 647 857 638 843 c 1,88,-1
 653 830 l 1,65,-1
1341 672 m 1,89,-1
 1341 675 l 1,90,-1
 1341 672 l 1,89,-1
EndSplineSet
EndChar

StartChar: dieresis
Encoding: 168 168 106
Width: 659
GlyphClass: 2
Flags: W
LayerCount: 2
Fore
SplineSet
586 1810 m 1,0,-1
 756 1813 l 1,1,2
 817 1813 817 1813 820 1805 c 1,3,4
 825 1674 825 1674 827 1463 c 1,5,6
 824 1457 824 1457 824 1453 c 1,7,-1
 817 1454 l 1,8,-1
 484 1440 l 1,9,-1
 458 1469 l 1,10,11
 458 1789 458 1789 482 1813 c 1,12,13
 524 1810 524 1810 586 1810 c 1,0,-1
458 1468 m 1,14,-1
 458 1469 l 1,15,-1
 458 1468 l 1,14,-1
837 1451 m 1,16,17
 837 1434 837 1434 823 1434 c 0,18,19
 817 1434 817 1434 813 1438 c 1,20,-1
 823 1452 l 1,21,-1
 837 1451 l 1,16,17
253 1741 m 1,22,-1
 255 1643 l 1,23,-1
 255 1534 l 2,24,25
 255 1491 255 1491 256 1456 c 1,26,27
 247 1445 247 1445 175 1445 c 1,28,-1
 154 1446 l 1,29,-1
 103 1446 l 1,30,-1
 -84 1439 l 1,31,-1
 -108 1474 l 1,32,33
 -108 1788 -108 1788 -86 1813 c 1,34,35
 -5 1811 -5 1811 79 1811.5 c 128,-1,36
 163 1812 163 1812 247 1809 c 1,37,38
 254 1807 254 1807 254 1784 c 1,39,-1
 253 1773 l 1,40,-1
 253 1741 l 1,22,-1
EndSplineSet
EndChar

StartChar: copyright
Encoding: 169 169 107
Width: 1646
GlyphClass: 2
Flags: W
LayerCount: 2
Fore
SplineSet
843 -66 m 0,0,1
 622 -66 622 -66 399 60 c 1,2,-1
 399 59 l 1,3,4
 221 170 221 170 118 382 c 1,5,6
 36 548 36 548 12 745 c 1,7,8
 21 1012 21 1012 158 1212 c 0,9,10
 274 1381 274 1381 470 1476 c 1,11,12
 642 1558 642 1558 827 1558 c 0,13,14
 1041 1558 1041 1558 1230 1447 c 0,15,16
 1515 1281 1515 1281 1616 955 c 0,17,18
 1649 849 1649 849 1655 733 c 1,19,20
 1649 526 1649 526 1550 349 c 0,21,22
 1517 291 1517 291 1475 241 c 1,23,-1
 1475 242 l 1,24,25
 1286 21 1286 21 1025 -44 c 0,26,27
 937 -66 937 -66 843 -66 c 0,0,1
829 1356 m 2,28,29
 701 1356 701 1356 588 1304 c 1,30,31
 359 1196 359 1196 271 972 c 0,32,33
 242 897 242 897 223 758 c 1,34,35
 223 636 223 636 271 524.5 c 128,-1,36
 319 413 319 413 401 327.5 c 128,-1,37
 483 242 483 242 591.5 191.5 c 128,-1,38
 700 141 700 141 822 141 c 256,39,40
 944 141 944 141 1055.5 189.5 c 128,-1,41
 1167 238 1167 238 1251.5 323.5 c 128,-1,42
 1336 409 1336 409 1386 525.5 c 128,-1,43
 1436 642 1436 642 1436 750.5 c 128,-1,44
 1436 859 1436 859 1414 933 c 128,-1,45
 1392 1007 1392 1007 1352.5 1071 c 128,-1,46
 1313 1135 1313 1135 1258 1187 c 128,-1,47
 1203 1239 1203 1239 1137 1276 c 0,48,49
 998 1354 998 1354 843 1356 c 1,50,-1
 829 1356 l 2,28,29
1157 650 m 1,51,-1
 1171 651 l 1,52,-1
 1184 651 l 2,53,54
 1229 651 1229 651 1237 631 c 1,55,56
 1205 489 1205 489 1104 392 c 0,57,58
 1002 294 1002 294 876 294 c 128,-1,59
 750 294 750 294 664 335.5 c 128,-1,60
 578 377 578 377 523 444 c 0,61,62
 417 572 417 572 412 757 c 1,63,64
 424 943 424 943 562 1075 c 0,65,66
 693 1200 693 1200 862 1200 c 0,67,68
 1086 1200 1086 1200 1182 1008 c 0,69,70
 1211 950 1211 950 1226 882 c 1,71,72
 1222 873 1222 873 1179 873 c 1,73,-1
 1156 874 l 1,74,-1
 1007 874 l 1,75,-1
 999 882 l 1,76,77
 962 996 962 996 851 996 c 0,78,79
 752 996 752 996 700 910 c 0,80,81
 661 846 661 846 661 775 c 128,-1,82
 661 704 661 704 671 662.5 c 128,-1,83
 681 621 681 621 702 588 c 0,84,85
 750 516 750 516 838 516 c 0,86,87
 915 516 915 516 944 558 c 0,88,89
 952 571 952 571 960 586 c 0,90,91
 984 629 984 629 1004 648 c 1,92,93
 1024 650 1024 650 1040 650 c 2,94,-1
 1157 650 l 1,51,-1
1227 881 m 1,95,-1
 1226 882 l 2,96,97
 1226 883 1226 883 1227 883 c 1,98,-1
 1227 881 l 1,95,-1
EndSplineSet
EndChar

StartChar: ordfeminine
Encoding: 170 170 108
Width: 845
GlyphClass: 2
Flags: W
LayerCount: 2
Fore
SplineSet
355 1252 m 2,0,-1
 444 1252 l 2,1,2
 489 1252 489 1252 540 1249 c 1,3,-1
 540 1311 l 2,4,5
 540 1418 540 1418 482 1446 c 0,6,7
 460 1457 460 1457 425 1457 c 0,8,9
 342 1457 342 1457 311 1399 c 1,10,11
 257 1399 257 1399 204.5 1398 c 128,-1,12
 152 1397 152 1397 98 1397 c 1,13,14
 147 1513 147 1513 433 1513 c 2,15,-1
 489 1513 l 2,16,17
 667 1513 667 1513 756 1448 c 1,18,19
 792 1407 792 1407 792 1327 c 2,20,-1
 791 1217 l 1,21,-1
 791 938 l 1,22,-1
 784 937 l 1,23,-1
 776 938 l 1,24,-1
 758 938 l 2,25,26
 706 938 706 938 654 940 c 1,27,-1
 648 940 l 1,28,29
 598 942 598 942 550 942 c 1,30,-1
 548 963 l 1,31,-1
 547 967 l 1,32,-1
 547 1022 l 1,33,34
 406 924 406 924 276 924 c 0,35,36
 177 924 177 924 136.5 951.5 c 128,-1,37
 96 979 96 979 80 1007.5 c 128,-1,38
 64 1036 64 1036 64 1080 c 128,-1,39
 64 1124 64 1124 87.5 1157 c 128,-1,40
 111 1190 111 1190 153 1211 c 0,41,42
 235 1252 235 1252 355 1252 c 2,0,-1
541 1183 m 1,43,-1
 539 1217 l 1,44,-1
 539 1235 l 1,45,-1
 514 1235 l 2,46,47
 420 1235 420 1235 380 1219 c 0,48,49
 295 1186 295 1186 295 1105 c 0,50,51
 295 1056 295 1056 332 1028 c 0,52,53
 365 1003 365 1003 403.5 1003 c 128,-1,54
 442 1003 442 1003 463.5 1007.5 c 128,-1,55
 485 1012 485 1012 500 1024 c 0,56,57
 530 1047 530 1047 540 1103 c 1,58,-1
 540 1134 l 1,59,-1
 541 1183 l 1,43,-1
EndSplineSet
EndChar

StartChar: guillemotleft
Encoding: 171 171 109
Width: 1335
GlyphClass: 2
Flags: W
LayerCount: 2
Fore
SplineSet
1255 1046 m 1,0,-1
 1326 1044 l 1,1,-1
 1354 1044 l 2,2,3
 1382 1044 1382 1044 1384 1035 c 1,4,-1
 1305 863 l 1,5,6
 1224 684 1224 684 1145 526 c 1,7,-1
 1160 490 l 1,8,-1
 1160 484 l 1,9,10
 1184 428 1184 428 1210 367 c 128,-1,11
 1236 306 1236 306 1263 248 c 2,12,-1
 1291 188 l 2,13,14
 1337 89 1337 89 1380 -10 c 1,15,16
 1373 -24 1373 -24 1321 -24 c 1,17,-1
 1305 -23 l 1,18,-1
 1264 -23 l 1,19,-1
 1195 -24 l 1,20,-1
 991 -24 l 2,21,22
 972 -24 972 -24 956 -14 c 1,23,24
 924 37 924 37 892.5 86 c 128,-1,25
 861 135 861 135 828 187 c 1,26,-1
 830 187 l 1,27,-1
 793 243 l 2,28,29
 695 392 695 392 633 500 c 1,30,-1
 635 516 l 1,31,32
 672 578 672 578 713 643 c 128,-1,33
 754 708 754 708 795.5 774.5 c 128,-1,34
 837 841 837 841 879 907 c 128,-1,35
 921 973 921 973 960 1037 c 1,36,37
 970 1043 970 1043 1016 1043 c 2,38,-1
 1038 1043 l 1,39,-1
 1255 1046 l 1,0,-1
1162 498 m 1,40,41
 1183 498 1183 498 1183 487 c 1,42,-1
 1184 481 l 1,43,-1
 1164 481 l 1,44,-1
 1162 498 l 1,40,41
579 1044 m 1,45,-1
 611 1045 l 1,46,-1
 742 1045 l 1,47,-1
 751 1042 l 2,48,49
 752 1042 752 1042 753 1043 c 1,50,51
 749 1002 749 1002 695 907 c 1,52,-1
 670 862 l 1,53,54
 667 854 667 854 662.5 845 c 128,-1,55
 658 836 658 836 654 827 c 2,56,-1
 515 521 l 1,57,58
 575 378 575 378 636 249 c 128,-1,59
 697 120 697 120 752 -8 c 1,60,61
 743 -19 743 -19 653.5 -19 c 128,-1,62
 564 -19 564 -19 528 -21 c 0,63,64
 422 -25 422 -25 350 -25 c 0,65,66
 342 -25 342 -25 340 -14 c 1,67,-1
 302 42 l 2,68,69
 223 158 223 158 149 272 c 128,-1,70
 75 386 75 386 1 498 c 1,71,72
 6 549 6 549 94 676 c 1,73,74
 178 794 178 794 197 825 c 1,75,-1
 196 825 l 1,76,-1
 333 1038 l 1,77,78
 339 1042 339 1042 347 1046 c 1,79,-1
 350 1046 l 1,80,81
 420 1044 420 1044 484 1044 c 2,82,-1
 579 1044 l 1,45,-1
EndSplineSet
EndChar

StartChar: logicalnot
Encoding: 172 172 110
Width: 1283
GlyphClass: 2
Flags: W
LayerCount: 2
Fore
SplineSet
1128 228 m 1,0,1
 1050 228 1050 228 915 223 c 1,2,-1
 885 257 l 1,3,-1
 885 617 l 1,4,-1
 113 620 l 1,5,6
 108 624 108 624 108 638 c 2,7,-1
 111 811 l 1,8,-1
 111 834 l 1,9,-1
 110 859 l 1,10,-1
 110 910 l 1,11,12
 110 910 110 910 1189 922 c 1,13,14
 1195 920 1195 920 1200 919 c 128,-1,15
 1205 918 1205 918 1208 916 c 1,16,-1
 1211 581 l 2,17,18
 1213 411 1213 411 1213 248 c 1,19,20
 1208 227 1208 227 1191 227 c 2,21,-1
 1144 227 l 1,22,-1
 1128 228 l 1,0,1
111 916 m 2,23,24
 111 915 111 915 110.5 913.5 c 128,-1,25
 110 912 110 912 110 910 c 1,26,27
 108 911 108 911 103 911 c 1,28,-1
 111 916 l 2,23,24
EndSplineSet
EndChar

StartChar: registered
Encoding: 174 174 111
Width: 1710
GlyphClass: 2
Flags: W
LayerCount: 2
Fore
SplineSet
1562 295 m 0,0,1
 1520 231 1520 231 1465.5 176 c 128,-1,2
 1411 121 1411 121 1344 76 c 128,-1,3
 1277 31 1277 31 1202 0 c 1,4,5
 1048 -66 1048 -66 886 -66 c 0,6,7
 703 -66 703 -66 518 16 c 0,8,9
 457 43 457 43 401 79 c 1,10,-1
 402 79 l 1,11,12
 143 251 143 251 80 582 c 0,13,14
 63 671 63 671 56 746 c 1,15,16
 62 910 62 910 113 1048.5 c 128,-1,17
 164 1187 164 1187 249 1284 c 128,-1,18
 334 1381 334 1381 437 1442 c 0,19,20
 633 1558 633 1558 870 1558 c 0,21,22
 1084 1558 1084 1558 1272 1448 c 0,23,24
 1455 1340 1455 1340 1569 1154 c 0,25,26
 1686 963 1686 963 1698 733 c 1,27,28
 1692 496 1692 496 1562 295 c 0,0,1
1338 1153 m 1,29,30
 1140 1351 1140 1351 876 1351 c 0,31,32
 735 1351 735 1351 658 1324 c 0,33,34
 522 1275 522 1275 431 1175 c 1,35,36
 351 1079 351 1079 325 1009 c 0,37,38
 282 893 282 893 282 768 c 128,-1,39
 282 643 282 643 322 533.5 c 128,-1,40
 362 424 362 424 437 340 c 0,41,42
 600 159 600 159 860 159 c 0,43,44
 1123 159 1123 159 1293 336 c 0,45,46
 1462 513 1462 513 1462 786 c 0,47,48
 1462 993 1462 993 1338 1153 c 1,29,30
620 1118 m 1,49,-1
 884 1125 l 1,50,51
 1072 1125 1072 1125 1134 1020 c 0,52,53
 1156 984 1156 984 1156 925 c 128,-1,54
 1156 866 1156 866 1133 825.5 c 128,-1,55
 1110 785 1110 785 1078 763 c 0,56,57
 1027 727 1027 727 964 727 c 1,58,-1
 1070 526 l 1,59,60
 1079 515 1079 515 1084.5 504.5 c 128,-1,61
 1090 494 1090 494 1097 481.5 c 128,-1,62
 1104 469 1104 469 1112 454 c 1,63,-1
 1144 402 l 1,64,-1
 1144 392 l 1,65,66
 1089 387 1089 387 1024 387 c 1,67,68
 989 450 989 450 961 517 c 128,-1,69
 933 584 933 584 899 650 c 2,70,-1
 866 713 l 1,71,-1
 729 713 l 1,72,-1
 729 616 l 2,73,74
 729 557 729 557 726.5 498 c 128,-1,75
 724 439 724 439 724 392 c 1,76,77
 717 393 717 393 710 393 c 2,78,-1
 638 393 l 1,79,-1
 616 394 l 1,80,-1
 616 906 l 1,81,82
 614 976 614 976 614 1043 c 2,83,-1
 614 1118 l 1,84,-1
 620 1118 l 1,49,-1
724 379 m 1,85,-1
 724 392 l 1,86,87
 744 391 744 391 744 379 c 1,88,-1
 724 379 l 1,85,-1
1144 392 m 1,89,90
 1150 394 1150 394 1151 394 c 128,-1,91
 1152 394 1152 394 1154 394 c 1,92,-1
 1144 383 l 1,93,-1
 1144 392 l 1,89,90
1028 380 m 1,94,-1
 1018 387 l 1,95,-1
 1024 387 l 1,96,-1
 1028 380 l 1,94,-1
728 808 m 1,97,-1
 902 804 l 1,98,99
 973 804 973 804 999 819 c 0,100,101
 1047 848 1047 848 1047 913 c 0,102,103
 1047 960 1047 960 1026 991 c 1,104,105
 1003 1019 1003 1019 959 1025 c 128,-1,106
 915 1031 915 1031 854.5 1031 c 128,-1,107
 794 1031 794 1031 729 1024 c 1,108,-1
 728 964 l 1,109,-1
 728 808 l 1,97,-1
EndSplineSet
EndChar

StartChar: macron
Encoding: 175 175 112
Width: 678
GlyphClass: 2
Flags: W
LayerCount: 2
Fore
SplineSet
-99 1480 m 1,0,1
 303 1454 303 1454 576 1454 c 2,2,-1
 643 1454 l 1,3,-1
 795 1458 l 1,4,5
 799 1452 799 1452 799 1430 c 1,6,7
 799 1430 799 1430 798 1417 c 1,8,-1
 798 1316 l 2,9,10
 798 1299 798 1299 799 1287 c 1,11,-1
 799 1261 l 1,12,-1
 800 1233 l 2,13,14
 800 1216 800 1216 791.5 1212 c 128,-1,15
 783 1208 783 1208 769 1208 c 2,16,-1
 739 1208 l 1,17,-1
 727 1209 l 1,18,-1
 591 1207 l 1,19,-1
 566 1206 l 1,20,-1
 540 1206 l 2,21,22
 465 1206 465 1206 389 1202 c 1,23,-1
 120 1199 l 2,24,25
 12 1197 12 1197 -96 1195 c 1,26,-1
 -117 1219 l 1,27,-1
 -117 1283 l 1,28,-1
 -116 1301 l 1,29,-1
 -116 1358 l 1,30,-1
 -117 1379 l 1,31,32
 -117 1440 -117 1440 -99 1480 c 1,0,1
EndSplineSet
EndChar

StartChar: degree
Encoding: 176 176 113
Width: 878
GlyphClass: 2
Flags: W
LayerCount: 2
Fore
SplineSet
748 1251 m 1,0,1
 746 1138 746 1138 661 1047 c 0,2,3
 575 954 575 954 460 954 c 0,4,5
 331 954 331 954 236 1028 c 0,6,7
 126 1115 126 1115 124 1270 c 1,8,9
 162 1473 162 1473 317 1543 c 0,10,11
 372 1568 372 1568 436.5 1568 c 128,-1,12
 501 1568 501 1568 556 1546 c 128,-1,13
 611 1524 611 1524 654 1484 c 0,14,15
 748 1397 748 1397 748 1265 c 2,16,-1
 748 1251 l 1,0,1
EndSplineSet
EndChar

StartChar: plusminus
Encoding: 177 177 114
Width: 1266
GlyphClass: 2
Flags: W
LayerCount: 2
Fore
SplineSet
385 669 m 2,0,-1
 187 666 l 1,1,-1
 141 666 l 2,2,3
 98 666 98 666 98 679 c 2,4,-1
 98 760 l 1,5,-1
 97 788 l 1,6,-1
 97 957 l 2,7,8
 97 972 97 972 170 972 c 2,9,-1
 281 972 l 1,10,-1
 307 973 l 1,11,-1
 484 976 l 1,12,-1
 484 1158 l 2,13,14
 484 1192 484 1192 494.5 1197 c 128,-1,15
 505 1202 505 1202 520 1202 c 2,16,-1
 542 1201 l 1,17,-1
 748 1201 l 1,18,-1
 761 1202 l 1,19,20
 794 1202 794 1202 800 1191 c 1,21,-1
 799 1180 l 1,22,-1
 796 967 l 1,23,-1
 976 967 l 1,24,-1
 1032 966 l 1,25,-1
 1182 966 l 1,26,27
 1189 962 1189 962 1189 939 c 2,28,-1
 1186 703 l 1,29,-1
 1187 694 l 1,30,31
 1187 676 1187 676 1181 676 c 2,32,-1
 790 676 l 1,33,-1
 789 570 l 1,34,35
 791 538 791 538 791 503 c 2,36,-1
 791 462 l 2,37,38
 791 453 791 453 792 453 c 2,39,-1
 753 453 l 1,40,-1
 737 454 l 1,41,-1
 515 451 l 1,42,-1
 503 451 l 1,43,44
 494 559 494 559 494 665 c 1,45,46
 450 669 450 669 385 669 c 2,0,-1
499 455 m 1,47,-1
 504 446 l 1,48,49
 492 439 492 439 485 439 c 128,-1,50
 478 439 478 439 478 454 c 1,51,-1
 499 455 l 1,47,-1
94 163 m 1,52,-1
 92 212 l 1,53,54
 92 271 92 271 116 289 c 1,55,-1
 140 286 l 1,56,57
 298 273 298 273 410 273 c 2,58,-1
 544 273 l 1,59,-1
 634 274 l 1,60,-1
 760 274 l 1,61,-1
 844 275 l 1,62,63
 1070 275 1070 275 1182 266 c 1,64,65
 1186 262 1186 262 1186 229 c 2,66,-1
 1186 181 l 1,67,-1
 1185 153 l 1,68,-1
 1185 -18 l 1,69,70
 1182 -25 1182 -25 1156 -25 c 1,71,-1
 1147 -24 l 1,72,-1
 783 -28 l 2,73,74
 699 -29 699 -29 618 -31 c 128,-1,75
 537 -33 537 -33 453 -32 c 1,76,-1
 360 -32 l 1,77,-1
 225 -34 l 2,78,79
 182 -34 182 -34 152.5 -34 c 128,-1,80
 123 -34 123 -34 112 -35 c 1,81,-1
 91 -6 l 1,82,-1
 94 149 l 1,83,-1
 94 163 l 1,52,-1
EndSplineSet
EndChar

StartChar: twosuperior
Encoding: 178 178 115
Width: 1160
GlyphClass: 2
Flags: W
LayerCount: 2
Fore
SplineSet
1069 -3 m 2,0,1
 1069 -15 1069 -15 1061 -16 c 1,2,-1
 1008 -15 l 1,3,4
 843 -10 843 -10 666 -10 c 128,-1,5
 489 -10 489 -10 147 -23 c 1,6,7
 129 -2 129 -2 129 48 c 2,8,-1
 132 254 l 2,9,10
 132 260 132 260 162.5 280 c 128,-1,11
 193 300 193 300 216 316 c 2,12,-1
 382 428 l 1,13,14
 527 530 527 530 569.5 575 c 128,-1,15
 612 620 612 620 630 645 c 0,16,17
 670 703 670 703 670 748.5 c 128,-1,18
 670 794 670 794 646.5 816 c 128,-1,19
 623 838 623 838 585 838 c 0,20,21
 524 838 524 838 506 788 c 0,22,23
 499 768 499 768 496 748.5 c 128,-1,24
 493 729 493 729 484 720 c 1,25,26
 465 719 465 719 451 719 c 2,27,-1
 241 719 l 1,28,-1
 208 720 l 1,29,30
 173 720 173 720 152.5 720 c 128,-1,31
 132 720 132 720 129 722 c 1,32,33
 134 800 134 800 150 855 c 128,-1,34
 166 910 166 910 212.5 956.5 c 128,-1,35
 259 1003 259 1003 320 1031 c 0,36,37
 435 1083 435 1083 599 1083 c 0,38,39
 911 1083 911 1083 1023 910 c 0,40,41
 1062 849 1062 849 1062 767 c 128,-1,42
 1062 685 1062 685 1032 620 c 128,-1,43
 1002 555 1002 555 952 500 c 0,44,45
 873 411 873 411 712 308 c 1,46,-1
 713 309 l 1,47,48
 697 299 697 299 651 253 c 1,49,-1
 1008 258 l 2,50,51
 1062 258 1062 258 1070 192 c 0,52,53
 1073 172 1073 172 1073 148 c 2,54,-1
 1069 10 l 1,55,-1
 1069 -3 l 2,0,1
EndSplineSet
EndChar

StartChar: threesuperior
Encoding: 179 179 116
Width: 1227
GlyphClass: 2
Flags: W
LayerCount: 2
Fore
SplineSet
493 723 m 1,0,1
 361 723 361 723 223 727 c 1,2,-1
 186 727 l 2,3,4
 156 727 156 727 150 733 c 1,5,6
 153 748 153 748 153.5 762.5 c 128,-1,7
 154 777 154 777 155 792 c 0,8,9
 161 885 161 885 240 973 c 0,10,11
 262 997 262 997 296 1018 c 128,-1,12
 330 1039 330 1039 376 1052.5 c 128,-1,13
 422 1066 422 1066 470 1073 c 0,14,15
 547 1084 547 1084 637.5 1084 c 128,-1,16
 728 1084 728 1084 798 1066 c 128,-1,17
 868 1048 868 1048 928 1012 c 1,18,19
 1065 927 1065 927 1065 788 c 0,20,21
 1065 652 1065 652 918 586 c 0,22,23
 875 567 875 567 829 553 c 1,24,25
 1033 490 1033 490 1074 381 c 0,26,27
 1088 344 1088 344 1088 275 c 128,-1,28
 1088 206 1088 206 1053.5 145 c 128,-1,29
 1019 84 1019 84 965 46 c 0,30,31
 876 -16 876 -16 719 -37 c 1,32,33
 655 -43 655 -43 599 -43 c 128,-1,34
 543 -43 543 -43 487 -37 c 128,-1,35
 431 -31 431 -31 380 -16 c 0,36,37
 275 14 275 14 206 83 c 1,38,39
 138 144 138 144 133 306 c 0,40,41
 133 309 133 309 134 309 c 2,42,-1
 456 313 l 1,43,-1
 480 314 l 2,44,45
 485 314 485 314 487 308 c 1,46,47
 492 255 492 255 515.5 225.5 c 128,-1,48
 539 196 539 196 594 196 c 128,-1,49
 649 196 649 196 674.5 225.5 c 128,-1,50
 700 255 700 255 700 298 c 0,51,52
 700 375 700 375 641 406 c 0,53,54
 602 426 602 426 559.5 425 c 128,-1,55
 517 424 517 424 514 424 c 2,56,-1
 509 424 l 2,57,58
 480 424 480 424 474 439.5 c 128,-1,59
 468 455 468 455 468 500.5 c 128,-1,60
 468 546 468 546 470.5 581.5 c 128,-1,61
 473 617 473 617 488 617 c 1,62,-1
 501 616 l 1,63,-1
 545 616 l 2,64,65
 613 616 613 616 640 638 c 0,66,67
 689 678 689 678 689 753 c 0,68,69
 689 792 689 792 667 819 c 128,-1,70
 645 846 645 846 602.5 846 c 128,-1,71
 560 846 560 846 542.5 831.5 c 128,-1,72
 525 817 525 817 518 796.5 c 128,-1,73
 511 776 511 776 508 755.5 c 128,-1,74
 505 735 505 735 493 723 c 1,0,1
169 859 m 2,75,76
 169 858 169 858 168 857 c 2,77,-1
 169 859 l 2,75,76
EndSplineSet
EndChar

StartChar: acute
Encoding: 180 180 117
Width: 641
GlyphClass: 2
Flags: W
LayerCount: 2
Fore
SplineSet
125 1410 m 1,0,-1
 109 1409 l 1,1,-1
 60 1409 l 1,2,-1
 45 1438 l 1,3,-1
 213 1724 l 1,4,5
 227 1745 227 1745 238 1762.5 c 128,-1,6
 249 1780 249 1780 262 1794 c 1,7,-1
 332 1794 l 1,8,-1
 750 1784 l 1,9,-1
 750 1781 l 1,10,11
 682 1703 682 1703 614.5 1629 c 128,-1,12
 547 1555 547 1555 503.5 1504.5 c 128,-1,13
 460 1454 460 1454 442 1441 c 128,-1,14
 424 1428 424 1428 404 1422 c 0,15,16
 375 1413 375 1413 308 1413 c 1,17,-1
 125 1410 l 1,0,-1
EndSplineSet
EndChar

StartChar: mu
Encoding: 181 181 118
Width: 1358
GlyphClass: 2
Flags: W
LayerCount: 2
Fore
SplineSet
1156 -19 m 1,0,-1
 1104 -20 l 1,1,-1
 971 -20 l 2,2,3
 890 -20 890 -20 806 -16 c 1,4,5
 795 -9 795 -9 795 72 c 2,6,-1
 795 93 l 1,7,-1
 761 99 l 1,8,-1
 744 67 l 1,9,10
 681 -48 681 -48 625 -48 c 0,11,12
 622 -48 622 -48 585 -37 c 1,13,-1
 585 -119 l 1,14,-1
 589 -416 l 1,15,-1
 583 -416 l 2,16,17
 565 -416 565 -416 544.5 -417.5 c 128,-1,18
 524 -419 524 -419 507 -420 c 2,19,-1
 467 -422 l 2,20,21
 374 -427 374 -427 324 -427 c 2,22,-1
 272 -427 l 1,23,-1
 253 -426 l 1,24,-1
 147 -426 l 1,25,26
 147 -426 147 -426 138 -427 c 1,27,-1
 106 -427 l 2,28,29
 90 -427 90 -427 85 -425 c 1,30,-1
 92 -401 l 1,31,-1
 86 -64 l 2,32,33
 79 333 79 333 79 610 c 1,34,-1
 76 825 l 1,35,-1
 76 894 l 1,36,-1
 74 1033 l 2,37,38
 74 1052 74 1052 83 1060 c 1,39,40
 125 1061 125 1061 164 1061 c 2,41,-1
 247 1061 l 1,42,-1
 276 1060 l 1,43,-1
 590 1060 l 1,44,45
 602 1055 602 1055 610 1032 c 1,46,47
 607 986 607 986 607 915 c 2,48,-1
 603 560 l 1,49,-1
 602 543 l 1,50,-1
 602 525 l 1,51,-1
 600 456 l 1,52,53
 600 323 600 323 640 289 c 0,54,55
 657 274 657 274 686.5 274 c 128,-1,56
 716 274 716 274 733.5 287 c 128,-1,57
 751 300 751 300 760 322 c 0,58,59
 775 359 775 359 775 429 c 1,60,-1
 774 497 l 1,61,-1
 774 514 l 1,62,-1
 777 642 l 2,63,64
 778 677 778 677 778 712 c 2,65,-1
 778 1044 l 2,66,67
 778 1052 778 1052 929 1052 c 1,68,-1
 949 1049 l 1,69,-1
 968 1049 l 1,70,-1
 1299 1055 l 1,71,72
 1308 1050 1308 1050 1312 1029 c 1,73,-1
 1313 945 l 1,74,-1
 1303 302 l 2,75,76
 1303 284 1303 284 1304.5 282.5 c 128,-1,77
 1306 281 1306 281 1306 279 c 1,78,-1
 1307 280 l 1,79,80
 1307 264 1307 264 1308 246 c 128,-1,81
 1309 228 1309 228 1310 208 c 2,82,-1
 1313 139 l 2,83,84
 1313 134 1313 134 1319 131 c 1,85,-1
 1311 -7 l 1,86,87
 1304 -20 1304 -20 1271 -20 c 2,88,-1
 1260 -20 l 1,89,-1
 1250 -19 l 1,90,-1
 1156 -19 l 1,0,-1
609 -422 m 1,91,92
 611 -428 611 -428 611 -434 c 128,-1,93
 611 -440 611 -440 599.5 -440 c 128,-1,94
 588 -440 588 -440 588 -432 c 128,-1,95
 588 -424 588 -424 592 -416 c 1,96,-1
 609 -422 l 1,91,92
EndSplineSet
EndChar

StartChar: paragraph
Encoding: 182 182 119
Width: 1323
GlyphClass: 2
Flags: W
LayerCount: 2
Fore
SplineSet
562 -34 m 1,0,-1
 528 -34 l 2,1,2
 503 -34 503 -34 503 -25 c 2,3,-1
 503 174 l 1,4,-1
 506 799 l 1,5,6
 152 813 152 813 59 1031 c 0,7,8
 36 1085 36 1085 33 1158 c 1,9,10
 53 1433 53 1433 376 1494 c 0,11,12
 470 1511 470 1511 603 1511 c 1,13,-1
 626 1509 l 1,14,-1
 725 1509 l 1,15,-1
 736 1511 l 1,16,-1
 930 1515 l 2,17,18
 1080 1519 1080 1519 1230 1519 c 0,19,20
 1260 1519 1260 1519 1260 1477 c 2,21,-1
 1260 1430 l 1,22,-1
 1261 1415 l 1,23,-1
 1260 1399 l 1,24,-1
 1256 1037 l 2,25,26
 1254 901 1254 901 1254 767 c 128,-1,27
 1254 633 1254 633 1252 500 c 2,28,-1
 1243 -25 l 1,29,-1
 1244 -31 l 1,30,31
 1239 -45 1239 -45 1212.5 -48 c 128,-1,32
 1186 -51 1186 -51 1129 -51 c 2,33,-1
 955 -48 l 2,34,35
 947 -48 947 -48 927 -14 c 1,36,-1
 927 -3 l 1,37,-1
 926 12 l 1,38,-1
 926 46 l 2,39,40
 926 169 926 169 928.5 294.5 c 128,-1,41
 931 420 931 420 933 548 c 2,42,-1
 944 1285 l 1,43,-1
 881 1290 l 2,44,45
 854 1293 854 1293 810 1303 c 1,46,47
 802 1207 802 1207 798.5 1029 c 128,-1,48
 795 851 795 851 795 317 c 2,49,-1
 795 227 l 1,50,-1
 796 139 l 1,51,-1
 796 -31 l 1,52,-1
 562 -34 l 1,0,-1
797 -31 m 2,53,54
 798 -31 798 -31 798 -32 c 1,55,56
 796 -32 796 -32 796 -31 c 1,57,-1
 797 -31 l 2,53,54
EndSplineSet
EndChar

StartChar: periodcentered
Encoding: 183 183 120
Width: 791
GlyphClass: 2
Flags: W
LayerCount: 2
Fore
SplineSet
208 697 m 1,0,1
 279 779 279 779 393 779 c 2,2,-1
 404 779 l 2,3,4
 413 779 413 779 425 777 c 1,5,-1
 437 777 l 2,6,7
 523 777 523 777 594 696 c 1,8,9
 663 615 663 615 663 520 c 0,10,11
 663 404 663 404 586 324 c 1,12,13
 511 244 511 244 403 244 c 0,14,15
 289 244 289 244 211 324 c 0,16,17
 141 396 141 396 130 503 c 1,18,19
 141 532 141 532 147 557.5 c 128,-1,20
 153 583 153 583 160 606 c 0,21,22
 177 662 177 662 209 697 c 1,23,-1
 208 697 l 1,0,1
EndSplineSet
EndChar

StartChar: cedilla
Encoding: 184 184 121
Width: 605
GlyphClass: 2
Flags: W
LayerCount: 2
Fore
SplineSet
247 -1 m 1,0,-1
 255 -2 l 1,1,-1
 272 -2 l 1,2,-1
 410 -4 l 1,3,4
 421 -6 421 -6 421 -14.5 c 128,-1,5
 421 -23 421 -23 416.5 -31.5 c 128,-1,6
 412 -40 412 -40 404.5 -52 c 128,-1,7
 397 -64 397 -64 386 -80.5 c 128,-1,8
 375 -97 375 -97 362 -121 c 1,9,10
 546 -121 546 -121 598 -230 c 0,11,12
 614 -263 614 -263 614 -311 c 128,-1,13
 614 -359 614 -359 587.5 -403 c 128,-1,14
 561 -447 561 -447 516 -476 c 0,15,16
 424 -535 424 -535 292 -535 c 0,17,18
 122 -535 122 -535 33 -496 c 0,19,20
 4 -484 4 -484 4 -471 c 0,21,22
 4 -451 4 -451 33 -398 c 1,23,-1
 46 -369 l 2,24,25
 47 -366 47 -366 48.5 -363 c 128,-1,26
 50 -360 50 -360 52 -354 c 0,27,28
 58 -337 58 -337 69 -331 c 1,29,30
 86 -337 86 -337 99 -343 c 128,-1,31
 112 -349 112 -349 134 -357 c 0,32,33
 194 -378 194 -378 221 -378 c 128,-1,34
 248 -378 248 -378 265.5 -377 c 128,-1,35
 283 -376 283 -376 302 -370 c 0,36,37
 353 -354 353 -354 353 -315 c 0,38,39
 353 -271 353 -271 275 -271 c 1,40,41
 267 -274 267 -274 243 -279 c 1,42,-1
 221 -286 l 1,43,44
 210 -286 210 -286 186 -270 c 2,45,-1
 164 -256 l 1,46,-1
 165 -256 l 1,47,48
 121 -231 121 -231 121 -197 c 1,49,50
 148 -150 148 -150 174.5 -102 c 128,-1,51
 201 -54 201 -54 227 -7 c 1,52,53
 230 -4 230 -4 242 -1 c 1,54,-1
 247 -1 l 1,0,-1
221 -306 m 1,55,-1
 216 -307 l 1,56,-1
 214 -288 l 1,57,-1
 221 -286 l 1,58,-1
 221 -306 l 1,55,-1
EndSplineSet
EndChar

StartChar: onesuperior
Encoding: 185 185 122
Width: 1030
GlyphClass: 2
Flags: W
LayerCount: 2
Fore
SplineSet
785 938 m 1,0,-1
 784 897 l 1,1,-1
 784 774 l 2,2,3
 784 600 784 600 787 420 c 2,4,-1
 792 -14 l 1,5,6
 784 -22 784 -22 708 -22 c 1,7,-1
 686 -21 l 1,8,-1
 489 -21 l 1,9,-1
 437 -22 l 1,10,-1
 427 -22 l 1,11,-1
 409 -23 l 1,12,-1
 400 -22 l 1,13,14
 383 -1 383 -1 383 14 c 0,15,16
 383 362 383 362 391 692 c 1,17,18
 271 609 271 609 164 573 c 0,19,20
 161 573 161 573 161 574 c 2,21,-1
 161 861 l 1,22,-1
 254 906 l 1,23,24
 257 909 257 909 262 909 c 1,25,-1
 281 918 l 1,26,27
 435 987 435 987 482 1055 c 1,28,29
 587 1052 587 1052 674 1052 c 2,30,-1
 769 1052 l 2,31,32
 776 1052 776 1052 784 1053 c 1,33,34
 785 1048 785 1048 785 1018 c 2,35,-1
 785 938 l 1,0,-1
EndSplineSet
EndChar

StartChar: ordmasculine
Encoding: 186 186 123
Width: 938
GlyphClass: 2
Flags: W
LayerCount: 2
Fore
SplineSet
-17 1225 m 1,0,1
 11 1392 11 1392 146 1482 c 0,2,3
 263 1559 263 1559 426 1559 c 0,4,5
 778 1559 778 1559 905 1387 c 0,6,7
 953 1322 953 1322 959 1223 c 1,8,9
 944 1038 944 1038 785 948 c 0,10,11
 649 870 649 870 429 870 c 0,12,13
 156 870 156 870 40 1048 c 0,14,15
 -4 1114 -4 1114 -17 1215 c 1,16,-1
 -17 1225 l 1,0,1
EndSplineSet
EndChar

StartChar: guillemotright
Encoding: 187 187 124
Width: 1332
GlyphClass: 2
Flags: W
LayerCount: 2
Fore
SplineSet
809 -19 m 1,0,1
 751 -22 751 -22 669 -22 c 2,2,-1
 639 -22 l 2,3,4
 603 -22 603 -22 600 -19 c 1,5,-1
 819 516 l 1,6,-1
 804 549 l 1,7,-1
 809 554 l 1,8,-1
 602 1034 l 2,9,10
 601 1035 601 1035 601 1039 c 0,11,12
 601 1045 601 1045 662 1045 c 2,13,-1
 881 1045 l 1,14,-1
 981 1048 l 1,15,16
 1019 1048 1019 1048 1047 1005 c 1,17,-1
 1047 1006 l 1,18,19
 1055 990 1055 990 1061 980 c 2,20,-1
 1238 696 l 1,21,-1
 1237 696 l 1,22,-1
 1266 649 l 1,23,24
 1345 534 1345 534 1345 517.5 c 128,-1,25
 1345 501 1345 501 1336.5 483.5 c 128,-1,26
 1328 466 1328 466 1315 446 c 128,-1,27
 1302 426 1302 426 1286.5 404.5 c 128,-1,28
 1271 383 1271 383 1258 363 c 2,29,-1
 1236 331 l 2,30,31
 1196 273 1196 273 1150 195 c 0,32,33
 1063 48 1063 48 1022 -12 c 1,34,35
 1004 -21 1004 -21 915 -21 c 1,36,-1
 828 -19 l 1,37,-1
 809 -19 l 1,0,1
9 1043 m 1,38,39
 9 1052 9 1052 81.5 1052 c 128,-1,40
 154 1052 154 1052 418 1046 c 1,41,-1
 418 1045 l 2,42,43
 418 1042 418 1042 419 1041 c 2,44,-1
 579 787 l 2,45,46
 621 719 621 719 660.5 651.5 c 128,-1,47
 700 584 700 584 744 515 c 1,48,-1
 741 512 l 1,49,50
 715 468 715 468 688.5 424 c 128,-1,51
 662 380 662 380 635 335 c 1,52,-1
 636 335 l 1,53,54
 591 264 591 264 543 183 c 2,55,-1
 431 -6 l 1,56,57
 416 -15 416 -15 352 -15 c 2,58,-1
 320 -15 l 1,59,-1
 255 -16 l 1,60,61
 166 -23 166 -23 87 -23 c 128,-1,62
 8 -23 8 -23 8 -14.5 c 128,-1,63
 8 -6 8 -6 12.5 8.5 c 128,-1,64
 17 23 17 23 24 40 c 0,65,66
 42 80 42 80 58 110 c 1,67,-1
 115 242 l 2,68,69
 126 268 126 268 137.5 296 c 128,-1,70
 149 324 149 324 163 352 c 1,71,-1
 229 507 l 1,72,-1
 11 1028 l 1,73,-1
 9 1043 l 1,38,39
801 559 m 1,74,-1
 804 549 l 1,75,-1
 773 517 l 1,76,-1
 781 559 l 1,77,-1
 801 559 l 1,74,-1
444 -23 m 1,78,-1
 430 -9 l 1,79,-1
 433 -6 l 1,80,-1
 447 -20 l 1,81,-1
 444 -23 l 1,78,-1
745 516 m 1,82,-1
 744 520 l 1,83,-1
 746 516 l 1,84,-1
 745 516 l 1,82,-1
744 515 m 1,85,-1
 745 516 l 1,86,-1
 744 515 l 1,85,-1
EndSplineSet
EndChar

StartChar: questiondown
Encoding: 191 191 128
Width: 1121
GlyphClass: 2
Flags: W
LayerCount: 2
Fore
SplineSet
1103 -94 m 0,0,1
 1103 -172 1103 -172 685 -185 c 1,2,3
 449 -185 449 -185 285 -111 c 1,4,-1
 240 -88 l 1,5,-1
 241 -89 l 1,6,7
 157 -36 157 -36 116 32 c 1,8,-1
 102 57 l 1,9,10
 84 94 84 94 76 139 c 0,11,12
 60 228 60 228 52 246 c 1,13,14
 57 371 57 371 114 450 c 1,15,16
 182 553 182 553 332 668 c 0,17,18
 404 722 404 722 426.5 765.5 c 128,-1,19
 449 809 449 809 451 851 c 1,20,-1
 441 946 l 1,21,22
 444 949 444 949 448 951 c 1,23,-1
 449 951 l 1,24,25
 455 953 455 953 469 953 c 2,26,-1
 589 955 l 1,27,-1
 627 954 l 1,28,29
 696 954 696 954 852 960 c 1,30,-1
 954 963 l 1,31,32
 965 952 965 952 965 907 c 2,33,-1
 965 838 l 2,34,35
 965 738 965 738 922 675 c 0,36,37
 884 620 884 620 828 568.5 c 128,-1,38
 772 517 772 517 742 484 c 0,39,40
 674 409 674 409 659 337 c 1,41,42
 672 259 672 259 752 248 c 0,43,44
 774 245 774 245 797 245 c 1,45,-1
 801 246 l 1,46,47
 934 250 934 250 1072 306 c 1,48,49
 1079 301 1079 301 1105 278 c 1,50,-1
 1105 263 l 1,51,52
 1103 83 1103 83 1103 -94 c 0,0,1
450 1226 m 1,53,-1
 447 1318 l 1,54,-1
 447 1473 l 1,55,56
 556 1475 556 1475 661.5 1480 c 128,-1,57
 767 1485 767 1485 879 1490 c 2,58,-1
 949 1493 l 1,59,60
 973 1457 973 1457 972 1442 c 128,-1,61
 971 1427 971 1427 971 1417 c 2,62,-1
 971 1380 l 1,63,-1
 970 1361 l 1,64,-1
 970 1259 l 1,65,-1
 971 1236 l 1,66,67
 971 1138 971 1138 953 1117 c 1,68,-1
 868 1120 l 1,69,70
 770 1125 770 1125 655 1127.5 c 128,-1,71
 540 1130 540 1130 513 1132 c 128,-1,72
 486 1134 486 1134 472 1140 c 0,73,74
 449 1149 449 1149 449 1188 c 2,75,-1
 449 1213 l 1,76,-1
 450 1226 l 1,53,-1
447 1475 m 1,77,-1
 419 1473 l 1,78,79
 441 1495 441 1495 447 1495 c 1,80,-1
 447 1475 l 1,77,-1
EndSplineSet
EndChar

StartChar: AE
Encoding: 198 198 135
Width: 2383
GlyphClass: 2
Flags: W
LayerCount: 2
Fore
SplineSet
2326 -14 m 1,0,-1
 1994 -11 l 1,1,2
 1878 -11 1878 -11 1693 -16 c 1,3,4
 1676 -24 1676 -24 1597 -24 c 2,5,-1
 1546 -24 l 1,6,7
 1512 -26 1512 -26 1462 -26 c 1,8,-1
 1422 -25 l 1,9,-1
 1273 -27 l 1,10,11
 1178 -25 1178 -25 1085 -19 c 0,12,13
 1082 -18 1082 -18 1078 -7 c 2,14,-1
 1072 15 l 1,15,16
 1050 147 1050 147 1012 192 c 0,17,18
 993 213 993 213 966 213 c 2,19,-1
 597 209 l 1,20,21
 583 153 583 153 568 95 c 128,-1,22
 553 37 553 37 539 -19 c 1,23,24
 528 -29 528 -29 443 -29 c 1,25,-1
 420 -28 l 1,26,-1
 361 -28 l 1,27,-1
 101 -34 l 1,28,-1
 70 -34 l 1,29,-1
 43 -35 l 1,30,-1
 -27 -35 l 1,31,32
 -35 -28 -35 -28 -42 -17 c 1,33,34
 52 307 52 307 157 622 c 0,35,36
 375 1275 375 1275 410 1390 c 128,-1,37
 445 1505 445 1505 447 1507 c 1,38,-1
 614 1507 l 1,39,-1
 969 1512 l 1,40,-1
 1065 1507 l 1,41,-1
 1144 1512 l 1,42,43
 1164 1512 1164 1512 1177 1508 c 1,44,45
 1641 1516 1641 1516 1870 1516 c 1,46,47
 1882 1508 1882 1508 1884 1505 c 1,48,-1
 1936 1327 l 2,49,50
 1951 1274 1951 1274 1965.5 1223.5 c 128,-1,51
 1980 1173 1980 1173 1993 1121 c 1,52,53
 1987 1115 1987 1115 1942 1115 c 2,54,-1
 1935 1115 l 2,55,56
 1671 1115 1671 1115 1421 1123 c 1,57,58
 1442 996 1442 996 1462 918 c 1,59,-1
 1758 925 l 2,60,61
 1820 927 1820 927 1880 927 c 0,62,63
 1992 927 1992 927 2007 897 c 1,64,-1
 2014 865 l 1,65,66
 2030 808 2030 808 2060 720 c 1,67,-1
 2059 720 l 1,68,-1
 2099 583 l 1,69,70
 1806 568 1806 568 1625 568 c 2,71,-1
 1568 568 l 1,72,-1
 1624 377 l 1,73,74
 1761 377 1761 377 1893 385.5 c 128,-1,75
 2025 394 2025 394 2100 394 c 0,76,77
 2207 394 2207 394 2226 377 c 1,78,-1
 2307 99 l 2,79,80
 2310 87 2310 87 2315 73 c 128,-1,81
 2320 59 2320 59 2324 45 c 0,82,83
 2336 9 2336 9 2336 -1.5 c 128,-1,84
 2336 -12 2336 -12 2326 -14 c 1,0,-1
2099 583 m 1,85,-1
 2106 584 l 1,86,87
 2108 582 2108 582 2109 582 c 2,88,-1
 2110 581 l 1,89,90
 2102 581 2102 581 2102 577 c 2,91,-1
 2102 574 l 1,92,-1
 2099 583 l 1,85,-1
1284 -34 m 1,93,-1
 1270 -49 l 1,94,-1
 1265 -45 l 1,95,-1
 1278 -29 l 1,96,-1
 1284 -34 l 1,93,-1
744 534 m 1,97,98
 976 534 976 534 982 595 c 1,99,100
 982 624 982 624 974 652.5 c 128,-1,101
 966 681 966 681 960 710 c 2,102,-1
 922 881 l 1,103,104
 897 976 897 976 862 1146 c 1,105,-1
 847 1180 l 2,106,107
 841 1192 841 1192 816 1203 c 1,108,109
 761 1197 761 1197 678 833 c 0,110,111
 663 767 663 767 649.5 705.5 c 128,-1,112
 636 644 636 644 625 601 c 1,113,-1
 664 535 l 1,114,-1
 703 535 l 1,115,-1
 744 534 l 1,97,98
EndSplineSet
EndChar

StartChar: Eth
Encoding: 208 208 145
Width: 1645
GlyphClass: 2
Flags: W
LayerCount: 2
Fore
SplineSet
513 1512 m 1,0,-1
 698 1515 l 1,1,2
 1192 1515 1192 1515 1385 1353 c 1,3,-1
 1394 1346 l 1,4,-1
 1393 1346 l 1,5,6
 1560 1196 1560 1196 1608 930 c 0,7,8
 1622 852 1622 852 1622 759 c 0,9,10
 1622 397 1622 397 1397 181 c 0,11,12
 1187 -21 1187 -21 879 -23 c 1,13,-1
 875 -27 l 1,14,-1
 850 -27 l 1,15,-1
 586 -24 l 1,16,17
 390 -24 390 -24 133 -33 c 1,18,19
 112 -2 112 -2 112 45 c 1,20,-1
 113 88 l 1,21,-1
 113 244 l 1,22,-1
 115 466 l 1,23,-1
 115 634 l 1,24,-1
 46 633 l 2,25,26
 10 633 10 633 -27 633 c 1,27,-1
 -51 648 l 1,28,-1
 -50 662 l 1,29,-1
 -50 678 l 1,30,-1
 -48 760 l 1,31,-1
 -48 771 l 1,32,-1
 -50 812 l 1,33,34
 -50 857 -50 857 -35 857 c 2,35,-1
 114 857 l 1,36,-1
 113 938 l 1,37,-1
 113 1184 l 1,38,-1
 114 1207 l 1,39,-1
 114 1493 l 2,40,41
 114 1512 114 1512 397 1512 c 2,42,-1
 513 1512 l 1,0,-1
651 400 m 1,43,44
 651 294 651 294 695 288 c 1,45,46
 805 291 805 291 854 302 c 1,47,48
 1053 372 1053 372 1053 781 c 0,49,50
 1053 914 1053 914 1038 979 c 0,51,52
 1008 1115 1008 1115 929 1173 c 1,53,54
 877 1206 877 1206 826.5 1210 c 128,-1,55
 776 1214 776 1214 745 1214 c 128,-1,56
 714 1214 714 1214 685 1216 c 1,57,58
 672 1198 672 1198 661 1176 c 1,59,-1
 661 1177 l 1,60,-1
 641 1140 l 1,61,-1
 641 1039 l 1,62,-1
 643 893 l 1,63,-1
 643 858 l 1,64,-1
 693 858 l 1,65,-1
 735 857 l 1,66,-1
 801 857 l 1,67,68
 817 841 817 841 817 756 c 1,69,-1
 816 728 l 1,70,-1
 816 676 l 2,71,72
 816 645 816 645 788 645 c 1,73,-1
 770 646 l 1,74,-1
 649 646 l 1,75,-1
 652 467 l 1,76,-1
 651 400 l 1,43,44
EndSplineSet
EndChar

StartChar: multiply
Encoding: 215 215 152
Width: 1283
GlyphClass: 2
Flags: W
LayerCount: 2
Fore
SplineSet
973 87 m 1,0,-1
 939 53 l 1,1,-1
 663 320 l 1,2,3
 627 279 627 279 580.5 235 c 128,-1,4
 534 191 534 191 493 150 c 2,5,-1
 393 51 l 1,6,-1
 383 48 l 1,7,8
 368 50 368 50 336.5 81.5 c 128,-1,9
 305 113 305 113 295 120 c 1,10,-1
 266 150 l 1,11,12
 250 165 250 165 232.5 181 c 128,-1,13
 215 197 215 197 200 212 c 0,14,15
 166 244 166 244 166 254 c 0,16,17
 166 268 166 268 218 319 c 2,18,-1
 292 391 l 2,19,20
 314 413 314 413 335 433 c 128,-1,21
 356 453 356 453 371 468 c 2,22,-1
 435 533 l 1,23,24
 342 633 342 633 210 765 c 1,25,-1
 190 782 l 2,26,27
 171 799 171 799 169 811 c 0,28,29
 166 829 166 829 225 880 c 1,30,-1
 286 941 l 2,31,32
 295 950 295 950 308 964 c 128,-1,33
 321 978 321 978 334 991 c 0,34,35
 368 1023 368 1023 383 1023 c 1,36,-1
 479 925 l 2,37,38
 520 883 520 883 568 835 c 2,39,-1
 658 745 l 1,40,-1
 930 1019 l 1,41,-1
 932 1021 l 1,42,-1
 934 1021 l 2,43,44
 951 1021 951 1021 1064 895 c 1,45,-1
 1108 850 l 2,46,47
 1135 823 1135 823 1138 816 c 1,48,49
 1130 808 1130 808 1123 804 c 1,50,-1
 1047 729 l 1,51,52
 914 602 914 602 855 540 c 1,53,54
 931 468 931 468 1083 316 c 1,55,-1
 1103 297 l 2,56,57
 1135 267 1135 267 1135 260 c 128,-1,58
 1135 253 1135 253 1125 241 c 128,-1,59
 1115 229 1115 229 1099.5 212.5 c 128,-1,60
 1084 196 1084 196 1065 177.5 c 128,-1,61
 1046 159 1046 159 1028 141 c 0,62,63
 989 104 989 104 972 87 c 1,64,-1
 973 87 l 1,0,-1
939 53 m 1,65,66
 938 52 938 52 937 52 c 1,67,68
 939 52 939 52 939 53 c 1,65,66
EndSplineSet
EndChar

StartChar: Oslash
Encoding: 216 216 153
Width: 1645
GlyphClass: 2
Flags: W
LayerCount: 2
Fore
SplineSet
1434 1608 m 0,0,1
 1434 1591 1434 1591 1320 1420 c 1,2,3
 1541 1255 1541 1255 1592 954 c 0,4,5
 1608 864 1608 864 1608 781 c 128,-1,6
 1608 698 1608 698 1600.5 622.5 c 128,-1,7
 1593 547 1593 547 1576 478 c 0,8,9
 1538 329 1538 329 1460 230 c 1,10,-1
 1414 169 l 1,11,12
 1322 62 1322 62 1140 -1 c 0,13,14
 981 -56 981 -56 790 -57 c 128,-1,15
 599 -58 599 -58 429 14 c 1,16,-1
 388 -54 l 1,17,18
 307 -181 307 -181 286 -184 c 1,19,-1
 267 -178 l 1,20,21
 263 -178 263 -178 257.5 -175.5 c 128,-1,22
 252 -173 252 -173 247 -171 c 1,23,-1
 279 -90 l 1,24,-1
 364 46 l 1,25,-1
 351 58 l 1,26,27
 93 228 93 228 48 561 c 0,28,29
 35 658 35 658 35 752 c 1,30,-1
 37 774 l 1,31,32
 52 955 52 955 80.5 1042 c 128,-1,33
 109 1129 109 1129 149 1200.5 c 128,-1,34
 189 1272 189 1272 267 1342.5 c 128,-1,35
 345 1413 345 1413 438 1460 c 0,36,37
 624 1552 624 1552 848.5 1552 c 128,-1,38
 1073 1552 1073 1552 1268 1451 c 1,39,-1
 1387 1638 l 2,40,41
 1384 1633 1384 1633 1384 1632 c 0,42,43
 1434 1616 1434 1616 1434 1608 c 0,0,1
1010 1052 m 1,44,45
 947 1178 947 1178 833 1178 c 0,46,47
 657 1178 657 1178 626 932 c 0,48,49
 618 868 618 868 614 811 c 2,50,-1
 610 760 l 1,51,-1
 609 755 l 1,52,-1
 609 752 l 1,53,54
 605 720 605 720 605 674 c 0,55,56
 605 586 605 586 627 456 c 1,57,-1
 1010 1052 l 1,44,45
666 380 m 1,58,59
 720 304 720 304 802 299 c 1,60,61
 965 299 965 299 1015 458 c 0,62,63
 1043 547 1043 547 1045.5 639 c 128,-1,64
 1048 731 1048 731 1048 774 c 0,65,66
 1048 846 1048 846 1037 969 c 1,67,-1
 666 380 l 1,58,59
EndSplineSet
EndChar

StartChar: Thorn
Encoding: 222 222 159
Width: 1527
GlyphClass: 2
Flags: W
LayerCount: 2
Fore
SplineSet
997 1367 m 1,0,1
 1023 1369 1023 1369 1040 1369 c 0,2,3
 1246 1369 1246 1369 1382 1242 c 0,4,5
 1531 1103 1531 1103 1531 873 c 0,6,7
 1531 520 1531 520 1200 406 c 0,8,9
 1095 369 1095 369 945 356 c 1,10,-1
 729 347 l 1,11,12
 724 239 724 239 719 106 c 1,13,-1
 720 75 l 1,14,-1
 720 -7 l 1,15,16
 717 -22 717 -22 706 -25 c 1,17,-1
 134 -34 l 1,18,19
 117 12 117 12 117 120 c 2,20,-1
 117 527 l 1,21,-1
 119 938 l 1,22,-1
 118 1358 l 1,23,-1
 119 1361 l 1,24,-1
 119 1468 l 2,25,26
 119 1575 119 1575 136 1622 c 1,27,-1
 708 1613 l 1,28,29
 719 1610 719 1610 722 1594 c 1,30,-1
 722 1513 l 1,31,-1
 721 1483 l 1,32,-1
 724 1377 l 1,33,34
 901 1374 901 1374 990 1367 c 1,35,-1
 997 1367 l 1,0,1
686 1069 m 1,36,37
 696 999 696 999 696 699 c 1,38,-1
 737 640 l 1,39,40
 920 644 920 644 983 761 c 0,41,42
 1007 806 1007 806 1007 852 c 0,43,44
 1007 925 1007 925 991.5 962 c 128,-1,45
 976 999 976 999 943 1022 c 128,-1,46
 910 1045 910 1045 868 1056 c 1,47,48
 813 1069 813 1069 686 1069 c 1,36,37
EndSplineSet
EndChar

StartChar: germandbls
Encoding: 223 223 160
Width: 1559
GlyphClass: 2
Flags: W
LayerCount: 2
Fore
SplineSet
1096 -66 m 0,0,1
 838 -66 838 -66 725 32 c 1,2,-1
 722 31 l 1,3,4
 662 90 662 90 631 213 c 1,5,-1
 593 211 l 1,6,-1
 593 93 l 2,7,8
 593 -14 593 -14 597 -18 c 1,9,10
 521 -22 521 -22 448 -22 c 2,11,-1
 111 -18 l 1,12,-1
 78 -18 l 1,13,-1
 73 721 l 1,14,-1
 73 810 l 2,15,16
 73 1085 73 1085 81.5 1144.5 c 128,-1,17
 90 1204 90 1204 102 1244 c 0,18,19
 127 1334 127 1334 174 1383 c 1,20,21
 326 1514 326 1514 570 1552 c 0,22,23
 649 1565 649 1565 726 1565 c 0,24,25
 869 1565 869 1565 1011 1537 c 1,26,27
 1343 1502 1343 1502 1424 1298 c 0,28,29
 1443 1250 1443 1250 1443 1194 c 0,30,31
 1443 1080 1443 1080 1379 1003 c 1,32,33
 1361 983 1361 983 1334.5 959.5 c 128,-1,34
 1308 936 1308 936 1284 912 c 0,35,36
 1226 856 1226 856 1226 828.5 c 128,-1,37
 1226 801 1226 801 1251 779 c 128,-1,38
 1276 757 1276 757 1307.5 738.5 c 128,-1,39
 1339 720 1339 720 1368.5 705.5 c 128,-1,40
 1398 691 1398 691 1407 682 c 1,41,-1
 1407 683 l 1,42,43
 1557 591 1557 591 1592 452 c 0,44,45
 1606 399 1606 399 1606 328.5 c 128,-1,46
 1606 258 1606 258 1583 199.5 c 128,-1,47
 1560 141 1560 141 1521 96.5 c 128,-1,48
 1482 52 1482 52 1430.5 21 c 128,-1,49
 1379 -10 1379 -10 1322 -29 c 0,50,51
 1212 -66 1212 -66 1096 -66 c 0,0,1
939 1178 m 0,52,53
 939 1286 939 1286 803 1286 c 0,54,55
 689 1286 689 1286 637 1195 c 0,56,57
 599 1128 599 1128 596 1009 c 1,58,-1
 592 1000 l 1,59,60
 593 921 593 921 593 840 c 2,61,-1
 593 313 l 1,62,-1
 639 358 l 1,63,-1
 1001 361 l 1,64,65
 1017 359 1017 359 1018 338.5 c 128,-1,66
 1019 318 1019 318 1019.5 304 c 128,-1,67
 1020 290 1020 290 1024 278 c 0,68,69
 1034 251 1034 251 1067 251 c 0,70,71
 1073 251 1073 251 1084 254 c 1,72,-1
 1104 255 l 1,73,74
 1120 297 1120 297 1120 318 c 128,-1,75
 1120 339 1120 339 1108 360.5 c 128,-1,76
 1096 382 1096 382 1078 400 c 0,77,78
 1050 427 1050 427 995 457 c 1,79,80
 953 490 953 490 901 524 c 128,-1,81
 849 558 849 558 802 598 c 1,82,83
 693 694 693 694 693 806.5 c 128,-1,84
 693 919 693 919 799 1014 c 1,85,-1
 798 1014 l 1,86,-1
 830 1037 l 2,87,88
 908 1094 908 1094 929 1135 c 0,89,90
 939 1155 939 1155 939 1178 c 0,52,53
727 15 m 1,91,-1
 713 0 l 1,92,-1
 696 12 l 1,93,-1
 713 32 l 1,94,-1
 722 31 l 2,95,96
 723 31 723 31 723 30 c 1,97,-1
 720 30 l 1,98,-1
 727 15 l 1,91,-1
77 -22 m 1,99,100
 77 -19 77 -19 76 -19 c 2,101,-1
 72 -19 l 1,102,103
 74 -18 74 -18 78 -18 c 1,104,-1
 78 -20 l 2,105,106
 78 -21 78 -21 77.5 -21 c 128,-1,107
 77 -21 77 -21 77 -22 c 1,99,100
EndSplineSet
EndChar

StartChar: ae
Encoding: 230 230 167
Width: 2100
GlyphClass: 2
Flags: W
LayerCount: 2
Fore
SplineSet
1480 1034 m 1,0,-1
 1438 1033 l 1,1,2
 1360 1033 1360 1033 1323 1038 c 1,3,-1
 1246 1042 l 1,4,5
 1246 1011 1246 1011 1250 1000 c 0,6,7
 1257 981 1257 981 1257 972 c 1,8,-1
 1279 884 l 1,9,-1
 1297 883 l 1,10,-1
 1343 883 l 1,11,-1
 1716 889 l 2,12,13
 1747 889 1747 889 1752.5 873.5 c 128,-1,14
 1758 858 1758 858 1760 846.5 c 128,-1,15
 1762 835 1762 835 1768 824 c 1,16,-1
 1779 785 l 1,17,18
 1787 774 1787 774 1787 766.5 c 128,-1,19
 1787 759 1787 759 1792 749 c 1,20,-1
 1807 698 l 1,21,22
 1812 677 1812 677 1826 637.5 c 128,-1,23
 1840 598 1840 598 1849 571 c 1,24,-1
 1580 563 l 1,25,-1
 1470 563 l 2,26,27
 1438 563 1438 563 1387 566 c 1,28,-1
 1396 530 l 1,29,30
 1396 523 1396 523 1401 514 c 1,31,-1
 1432 407 l 1,32,-1
 1450 406 l 1,33,-1
 1465 406 l 1,34,-1
 1900 416 l 2,35,36
 1926 416 1926 416 1964 400 c 1,37,-1
 1986 329 l 1,38,-1
 1997 301 l 1,39,-1
 1996 302 l 1,40,-1
 2050 122 l 2,41,42
 2052 112 2052 112 2056 108 c 128,-1,43
 2060 104 2060 104 2060 93 c 1,44,-1
 2067 69 l 2,45,46
 2072 54 2072 54 2072 49 c 256,47,48
 2072 44 2072 44 2063 44 c 2,49,-1
 2049 44 l 1,50,-1
 1980 47 l 1,51,-1
 1930 47 l 1,52,-1
 1918 48 l 1,53,-1
 1826 48 l 1,54,-1
 1818 49 l 1,55,-1
 1767 49 l 2,56,57
 1647 49 1647 49 1527 51 c 1,58,59
 1519 47 1519 47 1491 47 c 2,60,-1
 1394 47 l 1,61,62
 1373 46 1373 46 1346 46 c 0,63,64
 1307 46 1307 46 1280.5 46 c 128,-1,65
 1254 46 1254 46 1238 47 c 1,66,-1
 1150 43 l 1,67,-1
 1150 47 l 1,68,-1
 1088 47 l 1,69,-1
 1034 45 l 1,70,71
 971 45 971 45 968 64 c 1,72,-1
 927 217 l 1,73,74
 921 247 921 247 915 252 c 0,75,76
 908 258 908 258 874 258 c 2,77,-1
 540 258 l 1,78,79
 522 199 522 199 515 170 c 2,80,-1
 489 59 l 1,81,82
 479 42 479 42 396 42 c 1,83,-1
 384 43 l 1,84,-1
 313 43 l 1,85,86
 264 40 264 40 188 40 c 2,87,-1
 -21 40 l 1,88,-1
 -29 39 l 1,89,-1
 -45 55 l 1,90,91
 -45 57 -45 57 -47 59 c 1,92,-1
 -24 129 l 2,93,94
 -18 149 -18 149 -13.5 168.5 c 128,-1,95
 -9 188 -9 188 3 208 c 1,96,-1
 2 208 l 1,97,98
 26 274 26 274 66 394 c 1,99,-1
 90 473 l 1,100,-1
 89 473 l 1,101,102
 144 641 144 641 180 746 c 0,103,104
 249 949 249 949 290 1074 c 1,105,-1
 311 1135 l 1,106,107
 338 1205 338 1205 396 1386 c 1,108,-1
 395 1386 l 1,109,-1
 403 1401 l 1,110,111
 430 1400 430 1400 456 1400 c 2,112,-1
 658 1400 l 1,113,114
 665 1399 665 1399 674 1399 c 2,115,-1
 793 1399 l 1,116,-1
 827 1398 l 1,117,-1
 862 1398 l 1,118,-1
 941 1397 l 1,119,-1
 957 1397 l 2,120,121
 999 1397 999 1397 1049 1392 c 1,122,123
 1173 1396 1173 1396 1350 1396 c 2,124,-1
 1403 1396 l 1,125,-1
 1428 1397 l 1,126,-1
 1624 1397 l 1,127,128
 1643 1393 1643 1393 1660 1329.5 c 128,-1,129
 1677 1266 1677 1266 1682 1250 c 2,130,-1
 1747 1037 l 1,131,132
 1739 1030 1739 1030 1731 1030 c 128,-1,133
 1723 1030 1723 1030 1720 1031 c 1,134,-1
 1706 1031 l 1,135,-1
 1693 1032 l 1,136,-1
 1480 1034 l 1,0,-1
594 658 m 1,137,-1
 585 606 l 1,138,-1
 590 564 l 1,139,-1
 602 564 l 1,140,-1
 650 566 l 1,141,-1
 811 561 l 1,142,-1
 816 562 l 1,143,-1
 821 562 l 2,144,145
 868 562 868 562 875 575.5 c 128,-1,146
 882 589 882 589 882 607 c 128,-1,147
 882 625 882 625 877 644.5 c 128,-1,148
 872 664 872 664 867 684 c 1,149,-1
 867 681 l 1,150,-1
 859 711 l 2,151,152
 857 718 857 718 855 724.5 c 128,-1,153
 853 731 853 731 853 736 c 1,154,-1
 825 862 l 1,155,156
 819 884 819 884 815 911 c 1,157,-1
 800 989 l 1,158,159
 797 994 797 994 796 999.5 c 128,-1,160
 795 1005 795 1005 793 1010 c 1,161,-1
 793 1007 l 1,162,-1
 775 1087 l 2,163,164
 767 1119 767 1119 738 1132 c 1,165,166
 698 1118 698 1118 666 972 c 1,167,-1
 657 923 l 1,168,169
 653 915 653 915 651 905 c 2,170,-1
 645 882 l 1,171,172
 629 804 629 804 594 658 c 1,137,-1
-46 55 m 1,173,174
 -44 55 -44 55 -42.5 44 c 128,-1,175
 -41 33 -41 33 -45 32 c 1,176,-1
 -56 5 l 1,177,178
 -64 13 -64 13 -64 27 c 128,-1,179
 -64 41 -64 41 -59 53 c 1,180,-1
 -57 53 l 1,181,-1
 -59 53 l 1,182,183
 -56 59 -56 59 -50 65 c 1,184,-1
 -47 59 l 1,185,-1
 -48 56 l 2,186,187
 -48 53 -48 53 -57 53 c 2,188,-1
 -46 53 l 1,189,-1
 -46 55 l 1,173,174
1151 33 m 1,190,-1
 1141 59 l 1,191,-1
 1150 43 l 1,192,-1
 1151 33 l 1,190,-1
1754 1033 m 1,193,194
 1751 1033 1751 1033 1747 1037 c 1,195,196
 1749 1038 1749 1038 1751.5 1038 c 128,-1,197
 1754 1038 1754 1038 1754 1033 c 1,193,194
1856 570 m 1,198,199
 1852 569 1852 569 1852 567 c 2,200,-1
 1852 565 l 1,201,-1
 1850 570 l 1,202,-1
 1849 571 l 1,203,-1
 1850 570 l 1,204,-1
 1856 570 l 1,198,199
400 1401 m 1,205,-1
 407 1404 l 1,206,-1
 400 1401 l 1,205,-1
EndSplineSet
EndChar

StartChar: eth
Encoding: 240 240 177
Width: 1453
GlyphClass: 2
Flags: W
LayerCount: 2
Fore
SplineSet
103 1128 m 1,0,1
 95 1261 95 1261 95 1331 c 2,2,-1
 95 1377 l 1,3,-1
 90 1381 l 1,4,5
 91 1384 91 1384 100 1384 c 2,6,-1
 111 1384 l 2,7,8
 130 1384 130 1384 179 1391 c 0,9,10
 266 1402 266 1402 458 1402 c 2,11,-1
 592 1402 l 2,12,13
 818 1402 818 1402 936.5 1376 c 128,-1,14
 1055 1350 1055 1350 1136.5 1309.5 c 128,-1,15
 1218 1269 1218 1269 1270 1199 c 1,16,17
 1429 1000 1429 1000 1429 728 c 0,18,19
 1429 400 1429 400 1222 213 c 0,20,21
 1045 53 1045 53 805 43 c 1,22,-1
 799 46 l 1,23,-1
 755 44 l 1,24,25
 737 42 737 42 692 42 c 128,-1,26
 647 42 647 42 605 45 c 1,27,-1
 494 45 l 1,28,-1
 470 46 l 1,29,-1
 121 40 l 1,30,31
 105 72 105 72 105 106 c 2,32,-1
 105 243 l 1,33,34
 107 306 107 306 107 367 c 2,35,-1
 107 559 l 1,36,-1
 108 643 l 1,37,38
 85 642 85 642 54 642 c 2,39,-1
 -2 642 l 1,40,41
 -13 646 -13 646 -26 657 c 1,42,-1
 -25 670 l 1,43,-1
 -25 686 l 1,44,-1
 -23 770 l 1,45,-1
 -23 781 l 1,46,-1
 -25 822 l 1,47,48
 -25 869 -25 869 -10 869 c 2,49,-1
 109 869 l 1,50,51
 106 896 106 896 106 916 c 1,52,-1
 103 965 l 1,53,-1
 103 1128 l 1,0,1
595 493 m 2,54,55
 595 347 595 347 626 328 c 1,56,-1
 662 328 l 2,57,58
 899 328 899 328 915 656 c 0,59,60
 917 698 917 698 918 731 c 1,61,-1
 918 812 l 1,62,63
 916 828 916 828 912 889.5 c 128,-1,64
 908 951 908 951 881 1004 c 128,-1,65
 854 1057 854 1057 816 1085 c 0,66,67
 754 1130 754 1130 643 1130 c 2,68,-1
 616 1130 l 1,69,-1
 605 1093 l 1,70,-1
 605 1095 l 1,71,-1
 591 1072 l 1,72,-1
 591 1052 l 2,73,74
 591 1041 591 1041 592 1035 c 1,75,-1
 592 1024 l 1,76,-1
 593 1012 l 1,77,-1
 593 952 l 1,78,-1
 591 901 l 1,79,-1
 591 870 l 1,80,-1
 640 870 l 1,81,-1
 658 869 l 1,82,-1
 714 869 l 2,83,84
 727 869 727 869 727 766 c 1,85,-1
 726 737 l 1,86,-1
 726 684 l 2,87,88
 726 656 726 656 714 656 c 2,89,-1
 654 656 l 2,90,91
 620 656 620 656 595 655 c 1,92,-1
 595 600 l 1,93,-1
 596 585 l 1,94,-1
 596 542 l 1,95,-1
 595 515 l 1,96,-1
 595 493 l 2,54,55
EndSplineSet
EndChar

StartChar: divide
Encoding: 247 247 184
Width: 1282
GlyphClass: 2
Flags: W
LayerCount: 2
Fore
SplineSet
199 675 m 1,0,-1
 892 664 l 1,1,2
 1086 664 1086 664 1142.5 665.5 c 128,-1,3
 1199 667 1199 667 1199 665 c 2,4,-1
 1190 462 l 1,5,-1
 1190 416 l 1,6,-1
 1191 405 l 1,7,8
 1186 398 1186 398 1161 398 c 1,9,-1
 1161 399 l 1,10,11
 927 393 927 393 839 393 c 2,12,-1
 814 393 l 2,13,14
 750 393 750 393 649 385 c 1,15,-1
 395 376 l 2,16,17
 326 374 326 374 259 371 c 128,-1,18
 192 368 192 368 120 367 c 1,19,20
 104 389 104 389 104 423 c 0,21,22
 104 642 104 642 140 675 c 1,23,-1
 199 675 l 1,0,-1
794 185 m 128,-1,25
 807 158 807 158 807 126.5 c 128,-1,26
 807 95 807 95 793 59 c 128,-1,27
 779 23 779 23 741.5 -0.5 c 128,-1,28
 704 -24 704 -24 670 -24 c 128,-1,29
 636 -24 636 -24 609.5 -16 c 128,-1,30
 583 -8 583 -8 561 9 c 0,31,32
 511 48 511 48 511 113 c 0,33,34
 511 179 511 179 554 225 c 0,35,36
 594 269 594 269 654 269 c 0,37,38
 713 269 713 269 747 240.5 c 128,-1,24
 781 212 781 212 794 185 c 128,-1,25
800 1002 m 128,-1,40
 813 976 813 976 813 937.5 c 128,-1,41
 813 899 813 899 786 862 c 0,42,43
 737 795 737 795 656 795 c 0,44,45
 599 795 599 795 569 824 c 0,46,47
 517 874 517 874 517 938 c 256,48,49
 517 1002 517 1002 562 1044 c 0,50,51
 604 1082 604 1082 647 1082 c 128,-1,52
 690 1082 690 1082 717 1072.5 c 128,-1,53
 744 1063 744 1063 765.5 1045.5 c 128,-1,39
 787 1028 787 1028 800 1002 c 128,-1,40
EndSplineSet
EndChar

